*
G04 Mass Parameters ***
*
G04 Image ***
*
%IND:\UTENTI\00.LAVORI IN CORSO\METALTRONICA\23-325-0\23-325-0.IN2*%
%ICAS*%
%MOIN*%
%IPPOS*%
%ASAXBY*%
G74*%FSLAN2X34Y34*%
*
G04 Aperture Definitions ***
*
%ADD10C,0.1260*%
%ADD11C,0.0394*%
%ADD12R,0.1378X0.0787*%
%ADD13R,0.0380X0.0320*%
%ADD14R,0.0501X0.0404*%
%ADD15R,0.1100X0.0850*%
%ADD16R,0.0320X0.0380*%
%ADD17R,0.1060X0.1180*%
%ADD18R,0.1260X0.0630*%
%ADD19R,0.0400X0.0710*%
%ADD20R,0.1575X0.0787*%
%ADD21R,0.0630X0.1102*%
%ADD22R,0.0630X0.0984*%
%ADD23R,0.0404X0.0501*%
%ADD24R,0.0400X0.0500*%
%ADD25R,0.1080X0.0850*%
%ADD26R,0.0315X0.0197*%
%ADD27R,0.1500X0.1670*%
%ADD28C,0.1000*%
%ADD29C,0.0590*%
%ADD30R,0.0649X0.0512*%
%ADD31R,0.0118X0.0394*%
%ADD32R,0.0590X0.0590*%
%ADD33C,0.0630*%
%ADD34R,0.0630X0.0630*%
%ADD35C,0.0512*%
%ADD36R,0.0512X0.0512*%
%ADD37C,0.0787*%
%ADD38R,0.0787X0.0787*%
%ADD39R,0.0236X0.0413*%
%ADD40R,0.0197X0.0197*%
%ADD41R,0.1417X0.0708*%
%ADD42C,0.0187*%
%ADD43R,0.0354X0.0236*%
%ADD44R,0.0453X0.0275*%
%ADD45R,0.0500X0.0400*%
%ADD46R,0.1181X0.0590*%
%ADD47R,0.0710X0.0400*%
%ADD48R,0.0866X0.0630*%
%ADD49R,0.0276X0.0197*%
%ADD50R,0.0197X0.0276*%
%ADD51R,0.0850X0.1080*%
%ADD52R,0.0118X0.0571*%
%ADD53R,0.0512X0.0354*%
%ADD54C,0.0236*%
%ADD55R,0.0236X0.0610*%
%ADD56O,0.0256X0.0650*%
%ADD57O,0.0590X0.0118*%
%ADD58R,0.0512X0.0236*%
%ADD59C,0.0400*%
%ADD60R,0.0669X0.0276*%
%ADD61R,0.0850X0.0420*%
%ADD62R,0.4100X0.4250*%
%ADD63C,0.0800*%
%ADD64R,0.1500X0.0820*%
%ADD65R,0.3500X0.4500*%
%ADD66R,0.0680X0.1580*%
%ADD67R,0.0680X0.0550*%
%ADD68O,0.0700X0.0110*%
%ADD69R,0.0700X0.0110*%
%ADD70O,0.0110X0.0700*%
%ADD71R,0.0110X0.0700*%
%ADD72C,0.0100*%
%ADD73C,0.0060*%
%ADD74C,0.0050*%
%ADD75C,0.0010*%
%ADD76C,0.0500*%
%ADD77C,0.0236*%
%ADD78C,0.0250*%
%ADD79C,0.0110*%
%ADD80C,0.0300*%
%ADD81C,0.0120*%
%ADD82C,0.0150*%
%ADD83C,0.0600*%
%ADD84C,0.0400*%
%ADD85C,0.0800*%
%ADD86C,0.0080*%
%ADD87C,0.0236*%
%ADD88C,0.0236*%
*
G04 Plot Data ***
*
G54D72*
G01X0018508Y-0001192D02*
X0018842D01*
X0018508Y-0000858D01*
Y-0000775D01*
X0018550Y-0000692D01*
X0018800D01*
X0018842Y-0000775D01*
X0019083Y-0000692D02*
Y-0001192D01*
X0019167Y-0001108D01*
X0019333Y-0000775D01*
X0019417Y-0000692D01*
Y-0001192D01*
X0019658D02*
X0019825D01*
X0019742D02*
Y-0000692D01*
X0019658D02*
X0019825D01*
X0009800Y0041950D02*
X0012900D01*
X0011860Y0047790D02*
X0011800Y0047730D01*
X0009480D01*
X0011800D01*
X0011860Y0047790D01*
X0017150Y0026100D02*
X0014900D01*
X0015350Y0028900D02*
X0018100D01*
X0019850Y0027150D01*
X0021600D01*
X0015350Y0020220D02*
X0019300D01*
X0033350Y0042250D02*
X0031500D01*
X0031100Y0041850D01*
X0028100D01*
X0027950Y0042000D01*
X0027700D01*
X0010650Y0048000D02*
X0016450D01*
X0017940Y0046510D01*
X0025050D01*
X0010650Y0005800D02*
X0015850D01*
X0016750Y0006700D01*
Y0006750D01*
X0033050Y0041900D02*
X0031500D01*
X0031250Y0041650D01*
X0028050D01*
X0027900Y0041500D01*
X0027700D01*
X0025250D01*
X0033750Y0038200D02*
X0033550Y0038000D01*
X0026000D01*
X0015150Y0008950D02*
X0019250D01*
X0020000Y0009700D01*
X0027700D01*
X0028050Y0009350D01*
X0033050Y0041000D02*
X0031300D01*
X0031150Y0040850D01*
X0028350D01*
X0028200Y0041000D01*
X0027700D01*
X0015350Y0028300D02*
X0015400Y0028250D01*
X0017250D01*
X0017750Y0027750D01*
Y0027450D01*
X0010350Y0047450D02*
X0011000D01*
X0024850Y0034600D02*
X0027700D01*
X0028500Y0033800D01*
X0032650D01*
X0033100Y0033350D01*
X0022400Y0015900D02*
X0022250Y0016050D01*
X0018350D01*
X0018150Y0015850D01*
X0015600D01*
X0015050Y0015300D01*
X0014500D01*
X0014450Y0015350D01*
X0024700Y0016250D02*
X0018250D01*
X0018050Y0016050D01*
X0015400D01*
X0014900Y0015550D01*
X0021900Y0007550D02*
X0020600D01*
X0020500Y0007650D01*
X0018950D01*
X0017850Y0008750D01*
X0015300D01*
X0015250Y0008700D01*
X0014550D01*
X0014500Y0008750D01*
X0019550Y0015250D02*
X0018400D01*
X0018000Y0015650D01*
X0015700D01*
X0015150Y0015100D01*
X0014150D01*
X0027700Y0031000D02*
X0028100D01*
X0028250Y0030850D01*
X0032950D01*
X0033100Y0031000D01*
X0026000Y0015600D02*
X0026150Y0015750D01*
X0027650D01*
X0017500Y0014250D02*
X0008600D01*
X0008100Y0014750D01*
X0006750D01*
X0024350Y0012350D02*
X0024012Y0012012D01*
X0018838D01*
X0018250Y0012600D01*
X0014710D01*
X0009350Y0017500D02*
X0010150Y0018300D01*
X0013050D01*
X0025350Y0045000D02*
X0026850D01*
X0028050Y0043800D01*
X0030900D01*
X0031700Y0043000D01*
X0033050D01*
X0014200Y0015950D02*
X0013400D01*
X0012950Y0015500D01*
X0009750D01*
X0026650Y0039000D02*
X0032600D01*
X0033050Y0039450D01*
X0019500Y0028500D02*
X0031400D01*
X0033050Y0043500D02*
X0031600D01*
X0028600Y0046500D01*
X0027550D01*
X0006800Y0014200D02*
X0007300Y0013700D01*
X0016050D01*
X0026650Y0006500D02*
X0026600D01*
X0026000Y0007100D01*
X0022200D01*
X0022100Y0007000D01*
X0016500D01*
X0031800Y0027250D02*
X0033750D01*
X0007300Y0015150D02*
X0007450Y0015000D01*
X0008250D01*
X0008450Y0014800D01*
X0014200D01*
X0014280Y0014880D01*
X0015970D01*
X0006000Y0021350D02*
X0007400D01*
X0008150Y0020600D01*
X0009950D01*
X0010300Y0020950D01*
X0017150D01*
X0016400Y0009800D02*
X0016200Y0010000D01*
X0007150D01*
G54D78*
G01X0011050Y0013440D02*
X0012930D01*
X0013270Y0013100D01*
X0018950D01*
X0014000Y0022250D02*
Y0021550D01*
X0014200Y0021350D01*
X0018750D01*
X0014500Y0007250D02*
X0015000D01*
X0013500D02*
X0014500D01*
X0015650Y0010700D02*
X0020200D01*
Y0009100D02*
X0022200D01*
X0023250Y0008050D01*
X0025100D01*
X0025250Y0008200D01*
X0022500Y0024200D02*
X0023350D01*
X0023650Y0024500D01*
X0027700D01*
X0027950Y0024750D01*
Y0024950D01*
X0020200Y0010700D02*
X0015650D01*
X0025500Y0018450D02*
X0027050D01*
X0027800Y0019200D01*
Y0019350D01*
X0021100Y0013150D02*
X0021900D01*
X0022250Y0012800D01*
X0018350Y0024200D02*
X0022500D01*
X0007100Y0009300D02*
X0016950D01*
X0018000Y0010350D01*
X0020850D01*
X0022000Y0018450D02*
X0020250D01*
X0023750D02*
X0022000D01*
X0025500D02*
X0023750D01*
X0023000Y0012800D02*
X0026000D01*
X0028250Y0020550D02*
X0012250D01*
X0008000Y0042500D02*
X0011900D01*
X0013200Y0043800D01*
X0014500D01*
Y0007250D02*
X0015000D01*
X0023000Y0012800D02*
X0022250D01*
X0014500Y0007250D02*
X0015000D01*
G54D84*
G01X0010750Y0046300D02*
X0016050D01*
X0017750Y0044600D01*
X0022200D01*
X0008600Y0045350D02*
X0016300D01*
X0017900Y0043750D01*
X0024150D01*
G54D10*
X0033071Y0000000D03*
Y0047244D03*
X0000000D03*
Y0000000D03*
G54D28*
X0031484Y0007984D03*
X0029516D03*
X0028531Y0007000D03*
X0029516Y0006016D03*
X0031484D03*
X0030500Y0007000D03*
G54D29*
X0008791Y0021199D03*
X0023250Y-0001000D03*
X0022463D03*
X0021675D03*
X0020750Y0048250D03*
X0021537D03*
X0022325D03*
X0026325Y0048000D03*
X0025537D03*
X0028500Y-0001000D03*
X0027713D03*
X0026925D03*
X0026138D03*
X0025350D03*
G54D32*
X0024750Y0048000D03*
G54D33*
X0009500Y0022750D03*
Y0023750D03*
Y0024750D03*
X0008500Y0025250D03*
Y0024250D03*
Y0023250D03*
Y0022250D03*
G54D34*
X0009500Y0021750D03*
G54D35*
X0008750Y0018537D03*
Y0019325D03*
G54D36*
Y0017750D03*
G54D37*
X0010750Y0030000D03*
X0009750D03*
X0008750D03*
X0010750Y0036750D03*
X0009750D03*
X0008750D03*
X0010750Y0032250D03*
X0009750D03*
X0008750D03*
X0010750Y0039000D03*
X0009750D03*
X0008750D03*
X0010750Y0034500D03*
X0009750D03*
X0008750D03*
X0010750Y0041250D03*
X0009750D03*
X0008750D03*
X0023500Y0035000D03*
Y0039000D03*
Y0041000D03*
X0015000Y0023250D03*
Y0024250D03*
X0014000D03*
Y0023250D03*
Y0022250D03*
G54D38*
Y0001750D03*
X0023500Y0034000D03*
X0015000Y0022250D03*
G54D54*
X0030000Y0016500D03*
X0030500D03*
X0031000D03*
X0031500D03*
X0032000D03*
X0032500D03*
X0033000D03*
Y0017500D03*
X0032500D03*
X0032000D03*
X0031500D03*
X0031000D03*
X0030500D03*
X0030000D03*
Y0018500D03*
X0030500D03*
X0031000D03*
X0031500D03*
X0032000D03*
X0032500D03*
X0033000D03*
Y0019500D03*
X0032500D03*
X0032000D03*
X0031500D03*
X0031000D03*
X0030500D03*
X0030000D03*
X0031000Y0013000D03*
Y0013500D03*
Y0014000D03*
Y0014500D03*
Y0015000D03*
X0031500Y0013000D03*
Y0013500D03*
Y0014000D03*
Y0014500D03*
Y0015000D03*
X0032000Y0013000D03*
Y0013500D03*
Y0014000D03*
Y0014500D03*
Y0015000D03*
X0033000Y0013000D03*
Y0013500D03*
Y0014000D03*
Y0014500D03*
Y0015000D03*
X0015000Y0006750D03*
X0014500D03*
Y0007250D03*
X0015000Y0007750D03*
X0014500D03*
X0015500Y0006750D03*
Y0007750D03*
Y0007250D03*
Y0006250D03*
Y0008250D03*
X0014500Y0006250D03*
X0015000D03*
Y0008250D03*
X0014500D03*
X0003000Y-0001000D03*
X0003500D03*
X0004000D03*
X0004500D03*
X0005000D03*
Y-0000500D03*
X0004500D03*
X0004000D03*
X0003500D03*
X0003000D03*
X0002500Y-0001000D03*
Y-0000500D03*
X0003000Y0000000D03*
X0003500D03*
X0004000D03*
X0004500D03*
X0005000D03*
Y0000500D03*
X0004500D03*
X0004000D03*
X0003500D03*
X0003000D03*
X0002500Y0000000D03*
Y0000500D03*
Y0001000D03*
X0003000D03*
X0003500D03*
X0004000D03*
X0004500D03*
X0005000D03*
Y0001500D03*
X0004500D03*
X0004000D03*
X0003500D03*
X0003000D03*
X0002500D03*
Y0002000D03*
X0003000D03*
X0003500D03*
X0004000D03*
X0004500D03*
X0005000D03*
Y0002500D03*
X0004500D03*
X0004000D03*
X0003500D03*
X0003000D03*
X0002500D03*
X0003500Y0005000D03*
X0004000D03*
X0004500D03*
X0005000D03*
Y0005500D03*
X0004500D03*
X0004000D03*
X0003500D03*
X0003000D03*
Y0005000D03*
X0002500D03*
Y0005500D03*
Y0006000D03*
X0003000D03*
X0003500D03*
X0004000D03*
X0004500D03*
X0005000D03*
Y0006500D03*
X0004500D03*
X0004000D03*
X0003500D03*
X0003000D03*
X0002500D03*
Y0007000D03*
X0003000D03*
X0003500D03*
X0004000D03*
X0004500D03*
X0005000D03*
Y0007500D03*
X0004500D03*
X0004000D03*
X0003500D03*
X0003000D03*
X0002500D03*
Y0008000D03*
X0003000D03*
X0003500D03*
X0004000D03*
X0004500D03*
X0005000D03*
Y0008500D03*
X0004500D03*
X0004000D03*
X0003500D03*
X0003000D03*
X0002500D03*
X0020232Y0005756D03*
Y0005244D03*
X0020744Y0005756D03*
Y0005244D03*
X0021256Y0005756D03*
Y0005244D03*
X0021768Y0005756D03*
Y0005244D03*
G54D59*
X0029750Y0032250D03*
X0030250D03*
X0030750D03*
X0029250D03*
X0028750D03*
X0030750Y0031250D03*
X0030250D03*
X0029750D03*
X0029250D03*
X0028750D03*
X0030750Y0033250D03*
X0030250D03*
X0029750D03*
X0029250D03*
X0028750D03*
X0030250Y0034250D03*
X0029750D03*
X0029250D03*
X0030250Y0030250D03*
X0029750D03*
X0029250D03*
X0029750Y0042250D03*
X0030250D03*
X0030750D03*
X0029250D03*
X0028750D03*
X0030750Y0041250D03*
X0030250D03*
X0029750D03*
X0029250D03*
X0028750D03*
X0030750Y0043250D03*
X0030250D03*
X0029750D03*
X0029250D03*
X0028750D03*
X0030250Y0044250D03*
X0029750D03*
X0029250D03*
X0030250Y0040250D03*
X0029750D03*
X0029250D03*
G54D63*
X0014000Y0000750D03*
Y-0000250D03*
G54D77*
X0011800Y0047750D03*
X0009480Y0047730D03*
X0023700Y0028900D03*
X0027053Y0029650D03*
X0027750Y0005200D03*
X0025750Y0006050D03*
X0027250Y0021950D03*
X0027650Y0021000D03*
X0025900D03*
X0019750Y0023100D03*
X0001250Y0013750D03*
X0002750Y0013000D03*
X0008900Y0013950D03*
X0011600Y0013050D03*
X0017050Y0010000D03*
X0015600Y0012120D03*
X0013800Y0017000D03*
X0002900Y0024570D03*
X-0000030Y0025850D03*
X0004250Y0026250D03*
X-0000030Y0024650D03*
X0001970Y0024850D03*
X0004250Y0025250D03*
X0005750Y0023500D03*
X0004600Y0022732D03*
X0005750Y0022750D03*
X0001470Y0019650D03*
X0004600Y0016982D03*
X0002600Y0018500D03*
Y0019250D03*
X0004250Y0020000D03*
Y0019250D03*
X0005900Y0017430D03*
X0005750Y0019250D03*
X-0000030Y0019650D03*
X0004250Y0014500D03*
X0005850Y0016000D03*
X0002750Y0013750D03*
X0004250D03*
X-0000800Y0013250D03*
X0011050Y0013440D03*
X0018900Y0009350D03*
X0018950Y0013100D03*
X0018750Y0021350D03*
Y0026550D03*
X0023500Y0008400D03*
X0023850Y0009950D03*
X0027650Y0004530D03*
X0013500Y0007250D03*
X0024500Y0001750D03*
X0026250Y0001700D03*
X0027000Y0001750D03*
X0006600Y0029500D03*
X0020200Y0009100D03*
X0025250Y0008200D03*
X0033500Y0035450D03*
X0020200Y0010700D03*
X0015650D03*
X0027800Y0019350D03*
X0002750Y0025750D03*
Y0027250D03*
X0004450D03*
X-0000650Y0010600D03*
Y0012800D03*
X0018350Y0024200D03*
X0021850Y0034000D03*
X0022500Y0024200D03*
X-0000450Y0015200D03*
Y0018150D03*
X0020850Y0010350D03*
X0021100Y0013150D03*
X0007100Y0009300D03*
Y0005700D03*
X0006750Y0046500D03*
X-0000050Y0020800D03*
X0000350Y0025750D03*
X0027950Y0024950D03*
X0027500Y0027000D03*
X0027550Y0026250D03*
X0020250Y0018450D03*
X0022000D03*
X0025500D03*
X0023750D03*
X0003000Y0043150D03*
X0001050Y0021600D03*
Y0022750D03*
X0026000Y0012800D03*
Y0014250D03*
X0028250Y0015900D03*
Y0020550D03*
X0012250D03*
X0006600Y0041500D03*
X0016500Y0003350D03*
X0013000Y0034500D03*
Y0036750D03*
Y0041000D03*
Y0039000D03*
X0023200Y0011750D03*
X0021650Y0012300D03*
X0019900Y0015750D03*
X0019600Y0012550D03*
X0027250Y0014850D03*
X0012100Y0035150D03*
X0017600Y0008000D03*
Y0008500D03*
X0029602Y0022998D03*
X0011600Y0037350D03*
X0017150Y0026100D03*
X0014900D03*
X0010750Y0046300D03*
X0022200Y0044600D03*
X0017700Y0031800D03*
X0018300Y0018000D03*
X0010750Y0040550D03*
X0012350Y0039600D03*
X0023000Y0012800D03*
X0022250D03*
X0004470Y0039730D03*
Y0037120D03*
X0015000Y0007250D03*
X0015650Y0044450D03*
X0015350Y0028900D03*
X0021600Y0027150D03*
X0011200Y0033200D03*
X0015350Y0020220D03*
X0019300D03*
X0019600Y0025400D03*
X0016100Y0015400D03*
X0016000Y0043000D03*
X0011250Y0002900D03*
Y0012400D03*
X0011900Y0030900D03*
X0000500Y0027750D03*
X0001500Y0020200D03*
X0033350Y0042250D03*
X0027700Y0042000D03*
X0020400Y0026700D03*
X0021350Y0015300D03*
X0010650Y0048000D03*
X0025050Y0046510D03*
X0010650Y0005800D03*
X0016750Y0006750D03*
X0016364Y0013664D03*
X0033050Y0041900D03*
X0006750Y0036500D03*
X0006700Y0039000D03*
X0019300Y0017250D03*
X0019650Y0011300D03*
X0027700Y0041500D03*
X0025250D03*
X0025450Y0032150D03*
X0033750Y0038200D03*
X0026000Y0038000D03*
Y0022000D03*
X0022000Y0017100D03*
X0021800Y0011350D03*
X0014700Y0018050D03*
X0015150Y0008950D03*
X0028050Y0009350D03*
X0006650Y0034000D03*
X0033050Y0041000D03*
X0027700D03*
X0025600Y0042100D03*
X-0000450Y0027000D03*
X-0000850Y0014000D03*
X0012400Y0041600D03*
X0008600Y0045350D03*
X0024150Y0043750D03*
X0001900Y0042250D03*
X0002030Y0020680D03*
X0017720Y0029780D03*
X0017000Y0017850D03*
X0015350Y0028300D03*
X0017750Y0027450D03*
X0002350Y0032900D03*
X0000950Y0011750D03*
X0010350Y0047450D03*
X0011000D03*
X0011750Y0015850D03*
X0002600Y0015250D03*
X0003150Y0016200D03*
X0024850Y0034600D03*
X0033100Y0033350D03*
X0022500Y0019500D03*
X0022400Y0015900D03*
X0014450Y0015350D03*
X0008000Y0008500D03*
X0025100Y0020000D03*
X0024700Y0016250D03*
X0014900Y0015550D03*
X0020150Y0031750D03*
X0021100Y0015050D03*
X0021900Y0007550D03*
X0014500Y0008750D03*
X0014300Y0018050D03*
X0006700Y0031750D03*
X0019850Y0020000D03*
X0019550Y0015250D03*
X0014150Y0015100D03*
X0017750Y0011300D03*
X0017006Y0017394D03*
X0001950Y0026650D03*
X0001970Y0034970D03*
X0027700Y0031000D03*
X0033100D03*
X0026000Y0015600D03*
X0027650Y0015750D03*
X0024850Y0032500D03*
X0024300Y0027250D03*
X0025750Y0032000D03*
X0024350Y0012350D03*
X0014710Y0012600D03*
X0024900Y0032000D03*
Y0026650D03*
X0023800Y0011350D03*
X0023200Y0016750D03*
X0022700Y0042200D03*
X0009530Y0013170D03*
X0009350Y0017500D03*
X0013050Y0018300D03*
X0003250Y0031050D03*
X0004500Y0015500D03*
X0025350Y0045000D03*
X0033050Y0043000D03*
X0020100Y0015250D03*
X0025750Y0024150D03*
X0025600Y0026750D03*
X0023000Y0018100D03*
X0003500Y0011000D03*
X0002900Y0032550D03*
X0020280Y0015720D03*
X0012800Y0014500D03*
X0026500Y0027250D03*
Y0022000D03*
X0014200Y0015950D03*
X0009750Y0015500D03*
X0026650Y0039000D03*
X0033050Y0039450D03*
X0024800Y0032950D03*
X0021400Y0040600D03*
X0026050Y0016050D03*
Y0019450D03*
X0019500Y0028500D03*
X0031400D03*
X0012300Y0015950D03*
X0012550Y0015750D03*
X0017950Y0002500D03*
Y0009550D03*
X0003250Y0022476D03*
X0002650Y0034700D03*
X0033050Y0043500D03*
X0027550Y0046500D03*
X0006800Y0014200D03*
X0016050Y0013700D03*
X0004000Y0016650D03*
X0003700Y0030100D03*
X0026650Y0006500D03*
X0016500Y0007000D03*
X0015050Y0018050D03*
X0031800Y0027250D03*
X0033750D03*
X0007300Y0015150D03*
X0015970Y0014880D03*
X0021700Y0015350D03*
X0021400Y0030500D03*
X0006000Y0021350D03*
X0017150Y0020950D03*
X0024200Y0038400D03*
X0025500Y0022000D03*
G54D87*
X0009800Y0047350D03*
Y0041950D03*
X0012900D03*
X-0000150Y0028050D03*
X0002000Y0015000D03*
X0013000Y0014000D03*
X0016000Y0012050D03*
X0013856Y0016606D03*
X0013550Y0018350D03*
X0017750Y0018300D03*
X0016850Y0019500D03*
X0013050Y0042950D03*
X0027800Y0014250D03*
X0000130Y0042580D03*
X0015250Y0044350D03*
X0012250D03*
X0012900Y0044400D03*
X0014350Y0044450D03*
X0013750Y0044350D03*
X0011500D03*
X0010750Y0044450D03*
X0011400Y0047450D03*
X0009350Y0042950D03*
X0008430Y0043630D03*
X0006950Y0026850D03*
X0011500Y0021800D03*
X0026700Y0007250D03*
X0017550Y0007400D03*
X0005100Y0041500D03*
X0028850Y0014250D03*
X0029602Y0021002D03*
X0005000Y0039000D03*
Y0036500D03*
X0004900Y0029500D03*
X0005000Y0034000D03*
Y0031750D03*
X0024150Y0021000D03*
X0032447Y0029650D03*
X-0000030Y0009030D03*
Y0008080D03*
X0021500Y0023600D03*
X0023000Y0023250D03*
X0021250Y0021150D03*
X0022400Y0021000D03*
X0022050Y0025350D03*
X0025250Y0025850D03*
X0008500Y0012750D03*
X0008350Y0011950D03*
X0010470Y0014000D03*
X0009850Y0016500D03*
X0010900Y0018570D03*
X0010750Y0017500D03*
X0007250Y0011500D03*
X0005800Y0011232D03*
X0024250Y0025450D03*
X0013650Y0019280D03*
X0014197Y0019350D03*
X0010250Y0006500D03*
X0012950Y0008650D03*
X0022450Y0008000D03*
X0019820Y0018650D03*
X0020950Y0033400D03*
X0022950D03*
X0033100Y0032000D03*
Y0032500D03*
X0032447Y0034850D03*
Y0044850D03*
X0032350Y0038700D03*
X0032447Y0039650D03*
X0027053Y0034850D03*
Y0039650D03*
X0027400Y0044847D03*
X0016990Y0033600D03*
Y0027100D03*
Y0031350D03*
Y0035850D03*
Y0038100D03*
X0022150Y0017600D03*
X0016990Y0040350D03*
X0020200Y0040150D03*
X0024050Y0026250D03*
X0024250Y0028900D03*
X0016990Y0029350D03*
X0018650Y0029750D03*
X0011100Y0028030D03*
X0017750Y0019750D03*
X0024350Y0018970D03*
X0017050Y0019850D03*
X0016990Y0042350D03*
X0017000Y0048000D03*
X0007300Y0020800D03*
X0008000Y0042500D03*
X0014500Y0043800D03*
X0024750Y0012150D03*
X0026150Y0008780D03*
X0009500Y0006400D03*
X0027450Y0009400D03*
Y0014550D03*
X0013000Y0028000D03*
X0011250Y0001250D03*
X0012350Y0000600D03*
X0010500Y0001250D03*
X0009750Y0000650D03*
X0011500Y0007500D03*
X0013100Y0004950D03*
X0012500Y0001100D03*
X0008250Y0003750D03*
X0009200Y0000750D03*
X0013000Y0032250D03*
Y0030250D03*
X0017500Y0014250D03*
X0006750Y0014750D03*
G54D88*
X0016758Y0013692D03*
X0016400Y0009800D03*
X0007150Y0010000D03*
M02*
