*
G04 Mass Parameters ***
*
G04 Image ***
*
%IND:\UTENTI\00.LAVORI IN CORSO\METALTRONICA\23-325-0\23-325-0.SMT*%
%ICAS*%
%MOIN*%
%IPPOS*%
%ASAXBY*%
G74*%FSLAN2X34Y34*%
*
G04 Aperture Definitions ***
*
%ADD10C,0.1260*%
%ADD11C,0.0394*%
%ADD12R,0.1378X0.0787*%
%ADD13R,0.0380X0.0320*%
%ADD14R,0.0501X0.0404*%
%ADD15R,0.1100X0.0850*%
%ADD16R,0.0320X0.0380*%
%ADD17R,0.1060X0.1180*%
%ADD18R,0.1260X0.0630*%
%ADD19R,0.0400X0.0710*%
%ADD20R,0.1575X0.0787*%
%ADD21R,0.0630X0.1102*%
%ADD22R,0.0630X0.0984*%
%ADD23R,0.0404X0.0501*%
%ADD24R,0.0400X0.0500*%
%ADD25R,0.1080X0.0850*%
%ADD26R,0.0315X0.0197*%
%ADD27R,0.1500X0.1670*%
%ADD28C,0.1000*%
%ADD29C,0.0590*%
%ADD30R,0.0649X0.0512*%
%ADD31R,0.0118X0.0394*%
%ADD32R,0.0590X0.0590*%
%ADD33C,0.0630*%
%ADD34R,0.0630X0.0630*%
%ADD35C,0.0512*%
%ADD36R,0.0512X0.0512*%
%ADD37C,0.0787*%
%ADD38R,0.0787X0.0787*%
%ADD39R,0.0236X0.0413*%
%ADD40R,0.0197X0.0197*%
%ADD41R,0.1417X0.0708*%
%ADD42C,0.0187*%
%ADD43R,0.0354X0.0236*%
%ADD44R,0.0453X0.0275*%
%ADD45R,0.0500X0.0400*%
%ADD46R,0.1181X0.0590*%
%ADD47R,0.0710X0.0400*%
%ADD48R,0.0866X0.0630*%
%ADD49R,0.0276X0.0197*%
%ADD50R,0.0197X0.0276*%
%ADD51R,0.0850X0.1080*%
%ADD52R,0.0118X0.0571*%
%ADD53R,0.0512X0.0354*%
%ADD54C,0.0236*%
%ADD55R,0.0236X0.0610*%
%ADD56O,0.0256X0.0650*%
%ADD57O,0.0590X0.0118*%
%ADD58R,0.0512X0.0236*%
%ADD59C,0.0400*%
%ADD60R,0.0669X0.0276*%
%ADD61R,0.0850X0.0420*%
%ADD62R,0.4100X0.4250*%
%ADD63C,0.0800*%
%ADD64R,0.1500X0.0820*%
%ADD65R,0.3500X0.4500*%
%ADD66R,0.0680X0.1580*%
%ADD67R,0.0680X0.0550*%
%ADD68O,0.0700X0.0110*%
%ADD69R,0.0700X0.0110*%
%ADD70O,0.0110X0.0700*%
%ADD71R,0.0110X0.0700*%
%ADD72C,0.0100*%
%ADD73C,0.0060*%
%ADD74C,0.0050*%
%ADD75C,0.0010*%
%ADD76C,0.0500*%
%ADD77C,0.0236*%
%ADD78C,0.0250*%
%ADD79C,0.0110*%
%ADD80C,0.0300*%
%ADD81C,0.0120*%
%ADD82C,0.0150*%
%ADD83C,0.0600*%
%ADD84C,0.0400*%
%ADD85C,0.0800*%
%ADD86C,0.0080*%
%ADD87C,0.0236*%
%ADD88C,0.0236*%
%ADD89R,0.0512X0.0334*%
%ADD90R,0.0315X0.0236*%
%ADD91R,0.0236X0.0315*%
*
G04 Plot Data ***
*
G54D72*
G01X0027920Y0036050D02*
Y0031450D01*
X0027830Y0036050D02*
Y0031450D01*
X0027740Y0036050D02*
Y0031450D01*
X0031150Y0028990D02*
X0027700D01*
X0031150Y0028950D02*
X0027700D01*
X0031150Y0036050D02*
Y0028950D01*
Y0036050D02*
X0027700D01*
Y0031450D01*
X0028000D02*
X0027700D01*
X0028000D02*
Y0030650D01*
X0027700D01*
Y0028950D01*
X0031070Y0036050D02*
Y0028950D01*
X0030980Y0036050D02*
Y0028950D01*
X0030890Y0036050D02*
Y0028950D01*
X0030800Y0036050D02*
Y0028950D01*
X0030710Y0036050D02*
Y0028950D01*
X0030620Y0036050D02*
Y0028950D01*
X0030530Y0036050D02*
Y0028950D01*
X0030440Y0036050D02*
Y0028950D01*
X0030350Y0036050D02*
Y0028950D01*
X0030260Y0036050D02*
Y0028950D01*
X0030170Y0036050D02*
Y0028950D01*
X0030080Y0036050D02*
Y0028950D01*
X0029990Y0036050D02*
Y0028950D01*
X0029900Y0036050D02*
Y0028950D01*
X0029810Y0036050D02*
Y0028950D01*
X0029720Y0036050D02*
Y0028950D01*
X0029630Y0036050D02*
Y0028950D01*
X0029540Y0036050D02*
Y0028950D01*
X0029450Y0036050D02*
Y0028950D01*
X0029360Y0036050D02*
Y0028950D01*
X0029270Y0036050D02*
Y0028950D01*
X0029180Y0036050D02*
Y0028950D01*
X0029090Y0036050D02*
Y0028950D01*
X0029000Y0036050D02*
Y0028950D01*
X0028910Y0036050D02*
Y0028950D01*
X0028820Y0036050D02*
Y0028950D01*
X0028730Y0036050D02*
Y0028950D01*
X0028640Y0036050D02*
Y0028950D01*
X0028550Y0036050D02*
Y0028950D01*
X0028460Y0036050D02*
Y0028950D01*
X0028370Y0036050D02*
Y0028950D01*
X0028280Y0036050D02*
Y0028950D01*
X0028190Y0036050D02*
Y0028950D01*
X0028100Y0036050D02*
Y0028950D01*
X0028010Y0036050D02*
Y0028950D01*
X0027920Y0030650D02*
Y0028950D01*
X0027830Y0030650D02*
Y0028950D01*
X0027740Y0030650D02*
Y0028950D01*
X0031150Y0036010D02*
X0027700D01*
X0031150Y0035920D02*
X0027700D01*
X0031150Y0035830D02*
X0027700D01*
X0031150Y0035740D02*
X0027700D01*
X0031150Y0035650D02*
X0027700D01*
X0031150Y0035560D02*
X0027700D01*
X0031150Y0035470D02*
X0027700D01*
X0031150Y0035380D02*
X0027700D01*
X0031150Y0035290D02*
X0027700D01*
X0031150Y0035200D02*
X0027700D01*
X0031150Y0035110D02*
X0027700D01*
X0031150Y0035020D02*
X0027700D01*
X0031150Y0034930D02*
X0027700D01*
X0031150Y0034840D02*
X0027700D01*
X0031150Y0034750D02*
X0027700D01*
X0031150Y0034660D02*
X0027700D01*
X0031150Y0034570D02*
X0027700D01*
X0031150Y0034480D02*
X0027700D01*
X0031150Y0034390D02*
X0027700D01*
X0031150Y0034300D02*
X0027700D01*
X0031150Y0034210D02*
X0027700D01*
X0031150Y0034120D02*
X0027700D01*
X0031150Y0034030D02*
X0027700D01*
X0031150Y0033940D02*
X0027700D01*
X0031150Y0033850D02*
X0027700D01*
X0031150Y0033760D02*
X0027700D01*
X0031150Y0033670D02*
X0027700D01*
X0031150Y0033580D02*
X0027700D01*
X0031150Y0033490D02*
X0027700D01*
X0031150Y0033400D02*
X0027700D01*
X0031150Y0033310D02*
X0027700D01*
X0031150Y0033220D02*
X0027700D01*
X0031150Y0033130D02*
X0027700D01*
X0031150Y0033040D02*
X0027700D01*
X0031150Y0032950D02*
X0027700D01*
X0031150Y0032860D02*
X0027700D01*
X0031150Y0032770D02*
X0027700D01*
X0031150Y0032680D02*
X0027700D01*
X0031150Y0032590D02*
X0027700D01*
X0031150Y0032500D02*
X0027700D01*
X0031150Y0032410D02*
X0027700D01*
X0031150Y0032320D02*
X0027700D01*
X0031150Y0032230D02*
X0027700D01*
X0031150Y0032140D02*
X0027700D01*
X0031150Y0032050D02*
X0027700D01*
X0031150Y0031960D02*
X0027700D01*
X0031150Y0031870D02*
X0027700D01*
X0031150Y0031780D02*
X0027700D01*
X0031150Y0031690D02*
X0027700D01*
X0031150Y0031600D02*
X0027700D01*
X0031150Y0031510D02*
X0027700D01*
X0031150Y0031420D02*
X0028000D01*
X0031150Y0031330D02*
X0028000D01*
X0031150Y0031240D02*
X0028000D01*
X0031150Y0031150D02*
X0028000D01*
X0031150Y0031060D02*
X0028000D01*
X0031150Y0030970D02*
X0028000D01*
X0031150Y0030880D02*
X0028000D01*
X0031150Y0030790D02*
X0028000D01*
X0031150Y0030700D02*
X0028000D01*
X0031150Y0030610D02*
X0027700D01*
X0031150Y0030520D02*
X0027700D01*
X0031150Y0030430D02*
X0027700D01*
X0031150Y0030340D02*
X0027700D01*
X0031150Y0030250D02*
X0027700D01*
X0031150Y0030160D02*
X0027700D01*
X0031150Y0030070D02*
X0027700D01*
X0031150Y0029980D02*
X0027700D01*
X0031150Y0029890D02*
X0027700D01*
X0031150Y0029800D02*
X0027700D01*
X0031150Y0029710D02*
X0027700D01*
X0031150Y0029620D02*
X0027700D01*
X0031150Y0029530D02*
X0027700D01*
X0031150Y0029440D02*
X0027700D01*
X0031150Y0029350D02*
X0027700D01*
X0031150Y0029260D02*
X0027700D01*
X0031150Y0029170D02*
X0027700D01*
X0031150Y0029080D02*
X0027700D01*
X0028050Y0039250D02*
X0026950D01*
Y0037650D01*
X0027650D02*
X0026950D01*
X0027650D02*
Y0037000D01*
X0030150D02*
X0027650D01*
X0030550Y0037400D02*
X0030150Y0037000D01*
X0030550Y0037950D02*
Y0037400D01*
X0031200Y0037950D02*
X0030550D01*
X0031200Y0044850D02*
Y0037950D01*
X0030100Y0045950D02*
X0031200Y0044850D01*
X0030100Y0045950D02*
X0028550D01*
X0028050Y0045450D01*
Y0039250D01*
X0031200Y0041540D02*
X0028050D01*
X0031130Y0044920D02*
Y0037950D01*
X0031040Y0045010D02*
Y0037950D01*
X0030950Y0045100D02*
Y0037950D01*
X0030860Y0045190D02*
Y0037950D01*
X0030770Y0045280D02*
Y0037950D01*
X0030680Y0045370D02*
Y0037950D01*
X0030590Y0045460D02*
Y0037950D01*
X0030500Y0045550D02*
Y0037350D01*
X0030410Y0045640D02*
Y0037260D01*
X0030320Y0045730D02*
Y0037170D01*
X0030230Y0045820D02*
Y0037080D01*
X0030140Y0045910D02*
Y0037000D01*
X0030050Y0045950D02*
Y0037000D01*
X0029960Y0045950D02*
Y0037000D01*
X0029870Y0045950D02*
Y0037000D01*
X0029780Y0045950D02*
Y0037000D01*
X0029690Y0045950D02*
Y0037000D01*
X0029600Y0045950D02*
Y0037000D01*
X0029510Y0045950D02*
Y0037000D01*
X0029420Y0045950D02*
Y0037000D01*
X0029330Y0045950D02*
Y0037000D01*
X0029240Y0045950D02*
Y0037000D01*
X0029150Y0045950D02*
Y0037000D01*
X0029060Y0045950D02*
Y0037000D01*
X0028970Y0045950D02*
Y0037000D01*
X0028880Y0045950D02*
Y0037000D01*
X0028790Y0045950D02*
Y0037000D01*
X0028700Y0045950D02*
Y0037000D01*
X0028610Y0045950D02*
Y0037000D01*
X0028520Y0045920D02*
Y0037000D01*
X0028430Y0045830D02*
Y0037000D01*
X0028340Y0045740D02*
Y0037000D01*
X0028250Y0045650D02*
Y0037000D01*
X0028160Y0045560D02*
Y0037000D01*
X0028070Y0045470D02*
Y0037000D01*
X0027980Y0039250D02*
Y0037000D01*
X0027890Y0039250D02*
Y0037000D01*
X0027800Y0039250D02*
Y0037000D01*
X0027710Y0039250D02*
Y0037000D01*
X0027620Y0039250D02*
Y0037650D01*
X0027530Y0039250D02*
Y0037650D01*
X0027440Y0039250D02*
Y0037650D01*
X0027350Y0039250D02*
Y0037650D01*
X0027260Y0039250D02*
Y0037650D01*
X0027170Y0039250D02*
Y0037650D01*
X0027080Y0039250D02*
Y0037650D01*
X0030190Y0037040D02*
X0027650D01*
X0030190Y0045860D02*
X0028460D01*
X0030280Y0045770D02*
X0028370D01*
X0030370Y0045680D02*
X0028280D01*
X0030460Y0045590D02*
X0028190D01*
X0030550Y0045500D02*
X0028100D01*
X0030640Y0045410D02*
X0028050D01*
X0030730Y0045320D02*
X0028050D01*
X0030820Y0045230D02*
X0028050D01*
X0030910Y0045140D02*
X0028050D01*
X0031000Y0045050D02*
X0028050D01*
X0031090Y0044960D02*
X0028050D01*
X0031180Y0044870D02*
X0028050D01*
X0031200Y0044780D02*
X0028050D01*
X0031200Y0044690D02*
X0028050D01*
X0031200Y0044600D02*
X0028050D01*
X0031200Y0044510D02*
X0028050D01*
X0031200Y0044420D02*
X0028050D01*
X0031200Y0044330D02*
X0028050D01*
X0031200Y0044240D02*
X0028050D01*
X0031200Y0044150D02*
X0028050D01*
X0031200Y0044060D02*
X0028050D01*
X0031200Y0043970D02*
X0028050D01*
X0031200Y0043880D02*
X0028050D01*
X0031200Y0043790D02*
X0028050D01*
X0031200Y0043700D02*
X0028050D01*
X0031200Y0043610D02*
X0028050D01*
X0031200Y0043520D02*
X0028050D01*
X0031200Y0043430D02*
X0028050D01*
X0031200Y0043340D02*
X0028050D01*
X0031200Y0043250D02*
X0028050D01*
X0031200Y0043160D02*
X0028050D01*
X0031200Y0043070D02*
X0028050D01*
X0031200Y0042980D02*
X0028050D01*
X0031200Y0042890D02*
X0028050D01*
X0031200Y0042800D02*
X0028050D01*
X0031200Y0042710D02*
X0028050D01*
X0031200Y0042620D02*
X0028050D01*
X0031200Y0042530D02*
X0028050D01*
X0031200Y0042440D02*
X0028050D01*
X0031200Y0042350D02*
X0028050D01*
X0031200Y0042260D02*
X0028050D01*
X0031200Y0042170D02*
X0028050D01*
X0031200Y0042080D02*
X0028050D01*
X0031200Y0041990D02*
X0028050D01*
X0031200Y0041900D02*
X0028050D01*
X0031200Y0041810D02*
X0028050D01*
X0031200Y0041720D02*
X0028050D01*
X0031200Y0041630D02*
X0028050D01*
X0026990Y0039250D02*
Y0037650D01*
X0031200Y0041450D02*
X0028050D01*
X0031200Y0041360D02*
X0028050D01*
X0031200Y0041270D02*
X0028050D01*
X0031200Y0041180D02*
X0028050D01*
X0031200Y0041090D02*
X0028050D01*
X0031200Y0041000D02*
X0028050D01*
X0031200Y0040910D02*
X0028050D01*
X0031200Y0040820D02*
X0028050D01*
X0031200Y0040730D02*
X0028050D01*
X0031200Y0040640D02*
X0028050D01*
X0031200Y0040550D02*
X0028050D01*
X0031200Y0040460D02*
X0028050D01*
X0031200Y0040370D02*
X0028050D01*
X0031200Y0040280D02*
X0028050D01*
X0031200Y0040190D02*
X0028050D01*
X0031200Y0040100D02*
X0028050D01*
X0031200Y0040010D02*
X0028050D01*
X0031200Y0039920D02*
X0028050D01*
X0031200Y0039830D02*
X0028050D01*
X0031200Y0039740D02*
X0028050D01*
X0031200Y0039650D02*
X0028050D01*
X0031200Y0039560D02*
X0028050D01*
X0031200Y0039470D02*
X0028050D01*
X0031200Y0039380D02*
X0028050D01*
X0031200Y0039290D02*
X0028050D01*
X0031200Y0039200D02*
X0026950D01*
X0031200Y0039110D02*
X0026950D01*
X0031200Y0039020D02*
X0026950D01*
X0031200Y0038930D02*
X0026950D01*
X0031200Y0038840D02*
X0026950D01*
X0031200Y0038750D02*
X0026950D01*
X0031200Y0038660D02*
X0026950D01*
X0031200Y0038570D02*
X0026950D01*
X0031200Y0038480D02*
X0026950D01*
X0031200Y0038390D02*
X0026950D01*
X0031200Y0038300D02*
X0026950D01*
X0031200Y0038210D02*
X0026950D01*
X0031200Y0038120D02*
X0026950D01*
X0031200Y0038030D02*
X0026950D01*
X0030550Y0037940D02*
X0026950D01*
X0030550Y0037850D02*
X0026950D01*
X0030550Y0037760D02*
X0026950D01*
X0030550Y0037670D02*
X0026950D01*
X0030550Y0037580D02*
X0027650D01*
X0030550Y0037490D02*
X0027650D01*
X0030550Y0037400D02*
X0027650D01*
X0030460Y0037310D02*
X0027650D01*
X0030370Y0037220D02*
X0027650D01*
X0030280Y0037130D02*
X0027650D01*
X0031620Y0015150D02*
Y0012200D01*
X0031530Y0015150D02*
Y0012950D01*
X0031440Y0015150D02*
Y0012950D01*
X0031350Y0015150D02*
Y0012950D01*
X0031260Y0015150D02*
Y0012950D01*
X0031170Y0015150D02*
Y0012950D01*
X0031080Y0015150D02*
Y0012950D01*
X0030990Y0015150D02*
Y0012950D01*
X0033300Y0015120D02*
X0030950D01*
X0033300Y0015030D02*
X0030950D01*
X0033300Y0014940D02*
X0030950D01*
X0033300Y0014850D02*
X0030950D01*
X0033300Y0014760D02*
X0030950D01*
X0033300Y0014670D02*
X0030950D01*
X0033300Y0014580D02*
X0030950D01*
X0033300Y0014490D02*
X0030950D01*
X0033300Y0014400D02*
X0030950D01*
X0033300Y0014310D02*
X0030950D01*
X0033300Y0014220D02*
X0030950D01*
X0033300Y0014130D02*
X0030950D01*
X0033300Y0014040D02*
X0030950D01*
X0033300Y0013950D02*
X0030950D01*
X0033300Y0013860D02*
X0030950D01*
X0033300Y0013770D02*
X0030950D01*
X0033300Y0013680D02*
X0030950D01*
X0033300Y0013590D02*
X0030950D01*
X0033300Y0013500D02*
X0030950D01*
X0033300Y0013410D02*
X0030950D01*
X0033300Y0013320D02*
X0030950D01*
X0033300Y0013230D02*
X0030950D01*
X0033300Y0013140D02*
X0030950D01*
X0033300Y0013050D02*
X0030950D01*
X0033300Y0012960D02*
X0030950D01*
X0033300Y0012870D02*
X0031600D01*
X0033300Y0012780D02*
X0031600D01*
X0033300Y0012690D02*
X0031600D01*
X0033300Y0012600D02*
X0031600D01*
X0033300Y0012510D02*
X0031600D01*
X0033300Y0012420D02*
X0031600D01*
X0033300Y0012330D02*
X0031600D01*
X0033300Y0012240D02*
X0031600D01*
Y0012950D02*
X0030950D01*
X0031600D02*
Y0012200D01*
X0033300D02*
X0031600D01*
X0033300Y0015150D02*
Y0012200D01*
Y0015150D02*
X0030950D01*
Y0012950D01*
X0033240Y0015150D02*
Y0012200D01*
X0033150Y0015150D02*
Y0012200D01*
X0033060Y0015150D02*
Y0012200D01*
X0032970Y0015150D02*
Y0012200D01*
X0032880Y0015150D02*
Y0012200D01*
X0032790Y0015150D02*
Y0012200D01*
X0032700Y0015150D02*
Y0012200D01*
X0032610Y0015150D02*
Y0012200D01*
X0032520Y0015150D02*
Y0012200D01*
X0032430Y0015150D02*
Y0012200D01*
X0032340Y0015150D02*
Y0012200D01*
X0032250Y0015150D02*
Y0012200D01*
X0032160Y0015150D02*
Y0012200D01*
X0032070Y0015150D02*
Y0012200D01*
X0031980Y0015150D02*
Y0012200D01*
X0031890Y0015150D02*
Y0012200D01*
X0031800Y0015150D02*
Y0012200D01*
X0031710Y0015150D02*
Y0012200D01*
X0020390Y0006050D02*
Y0004950D01*
X0020300Y0006050D02*
Y0004950D01*
X0020210Y0006050D02*
Y0004950D01*
X0020120Y0006050D02*
Y0004950D01*
X0020030Y0006050D02*
Y0004950D01*
X0019940Y0006050D02*
Y0004950D01*
X0019850Y0006050D02*
Y0004950D01*
X0019760Y0007050D02*
Y0004950D01*
X0019670Y0007050D02*
Y0004950D01*
X0019580Y0007050D02*
Y0005050D01*
X0019490Y0007050D02*
Y0005050D01*
X0019400Y0007050D02*
Y0005050D01*
X0019310Y0007050D02*
Y0005050D01*
X0019220Y0007050D02*
Y0005050D01*
X0019130Y0007050D02*
Y0005050D01*
X0019040Y0007050D02*
Y0005050D01*
X0018950Y0007050D02*
Y0005050D01*
X0018860Y0007050D02*
Y0005050D01*
X0018770Y0007050D02*
Y0005050D01*
X0018680Y0006980D02*
Y0005050D01*
X0018590Y0006890D02*
Y0005050D01*
X0018500Y0006800D02*
Y0005050D01*
X0018410Y0006710D02*
Y0005050D01*
X0018320Y0006620D02*
Y0005050D01*
X0018230Y0006530D02*
Y0005050D01*
X0018140Y0006440D02*
Y0005050D01*
X0019800Y0006970D02*
X0018670D01*
X0019800Y0006880D02*
X0018580D01*
X0019800Y0006790D02*
X0018490D01*
X0019800Y0006700D02*
X0018400D01*
X0019800Y0006610D02*
X0018310D01*
X0019800Y0006520D02*
X0018220D01*
X0019800Y0006430D02*
X0018130D01*
X0019800Y0006340D02*
X0018100D01*
X0019800Y0006250D02*
X0018100D01*
X0019800Y0006160D02*
X0018100D01*
X0019800Y0006070D02*
X0018100D01*
X0022150Y0005980D02*
X0018100D01*
X0022150Y0005890D02*
X0018100D01*
X0022150Y0005800D02*
X0018100D01*
X0022150Y0005710D02*
X0018100D01*
X0022150Y0005620D02*
X0018100D01*
X0022150Y0005530D02*
X0018100D01*
X0022150Y0005440D02*
X0018100D01*
X0022150Y0005350D02*
X0018100D01*
X0022150Y0005260D02*
X0018100D01*
X0022150Y0005170D02*
X0018100D01*
X0022150Y0005080D02*
X0018100D01*
X0022150Y0004990D02*
X0019650D01*
Y0005050D02*
Y0004950D01*
Y0005050D02*
X0018100D01*
Y0006400D02*
Y0005050D01*
X0018750Y0007050D02*
X0018100Y0006400D01*
X0019800Y0007050D02*
X0018750D01*
X0019800D02*
Y0006050D01*
X0022150D02*
X0019800D01*
X0022150D02*
Y0004950D01*
X0019650D01*
X0022100Y0006050D02*
Y0004950D01*
X0022010Y0006050D02*
Y0004950D01*
X0021920Y0006050D02*
Y0004950D01*
X0021830Y0006050D02*
Y0004950D01*
X0021740Y0006050D02*
Y0004950D01*
X0021650Y0006050D02*
Y0004950D01*
X0021560Y0006050D02*
Y0004950D01*
X0021470Y0006050D02*
Y0004950D01*
X0021380Y0006050D02*
Y0004950D01*
X0021290Y0006050D02*
Y0004950D01*
X0021200Y0006050D02*
Y0004950D01*
X0021110Y0006050D02*
Y0004950D01*
X0021020Y0006050D02*
Y0004950D01*
X0020930Y0006050D02*
Y0004950D01*
X0020840Y0006050D02*
Y0004950D01*
X0020750Y0006050D02*
Y0004950D01*
X0020660Y0006050D02*
Y0004950D01*
X0020570Y0006050D02*
Y0004950D01*
X0020480Y0006050D02*
Y0004950D01*
X0016000Y0007890D02*
X0014450D01*
X0016000Y0007800D02*
X0014450D01*
X0016000Y0007710D02*
X0014450D01*
X0016000Y0007620D02*
X0014450D01*
X0016000Y0007530D02*
X0014450D01*
X0016000Y0007440D02*
X0014450D01*
X0016000Y0007350D02*
X0014450D01*
X0016000Y0007260D02*
X0014450D01*
X0016000Y0007170D02*
X0014450D01*
X0016000Y0007080D02*
X0014450D01*
X0016000Y0006990D02*
X0014450D01*
X0016000Y0006900D02*
X0014450D01*
X0016000Y0006810D02*
X0014450D01*
X0016000Y0006720D02*
X0014450D01*
X0016000Y0006630D02*
X0014450D01*
X0016000Y0006540D02*
X0014450D01*
X0016000Y0006450D02*
X0014450D01*
X0016000Y0006360D02*
X0014450D01*
X0016000Y0006270D02*
X0014450D01*
X0016000Y0006180D02*
X0014450D01*
X0015840Y0008250D02*
Y0006050D01*
X0015750Y0008250D02*
Y0006050D01*
X0015660Y0008250D02*
Y0006050D01*
X0015570Y0008250D02*
Y0006050D01*
X0015480Y0008250D02*
Y0006050D01*
X0015390Y0008250D02*
Y0006050D01*
X0015300Y0008250D02*
Y0006050D01*
X0015210Y0008250D02*
Y0006050D01*
X0015120Y0008250D02*
Y0006050D01*
X0015030Y0008250D02*
Y0006050D01*
X0014940Y0008250D02*
Y0006050D01*
X0014850Y0008250D02*
Y0006050D01*
X0014760Y0008250D02*
Y0006050D01*
X0014670Y0008250D02*
Y0006050D01*
X0014580Y0008250D02*
Y0006050D01*
X0016000Y0006090D02*
X0014450D01*
X0016000Y0008160D02*
X0014450D01*
X0016000Y0008070D02*
X0014450D01*
X0016000Y0007980D02*
X0014450D01*
X0014490Y0008250D02*
Y0006050D01*
X0016000D02*
X0014450D01*
X0016000Y0008250D02*
Y0006050D01*
Y0008250D02*
X0014450D01*
Y0006050D01*
X0015930Y0008250D02*
Y0006050D01*
X0007150Y0006490D02*
X0001450D01*
X0006550Y-0001650D02*
X0001750D01*
X0006550Y0006400D02*
Y-0001650D01*
X0007150Y0006400D02*
X0006550D01*
X0007150Y0008750D02*
Y0006400D01*
Y0008750D02*
X0001450D01*
Y0002250D01*
X0001900D02*
X0001450D01*
X0001900D02*
Y-0001650D01*
X0001750D01*
X0006550Y0003610D02*
X0001450D01*
X0007070Y0008750D02*
Y0006400D01*
X0006980Y0008750D02*
Y0006400D01*
X0006890Y0008750D02*
Y0006400D01*
X0006800Y0008750D02*
Y0006400D01*
X0006710Y0008750D02*
Y0006400D01*
X0006620Y0008750D02*
Y0006400D01*
X0006530Y0008750D02*
Y-0001650D01*
X0006440Y0008750D02*
Y-0001650D01*
X0006350Y0008750D02*
Y-0001650D01*
X0006260Y0008750D02*
Y-0001650D01*
X0006170Y0008750D02*
Y-0001650D01*
X0006080Y0008750D02*
Y-0001650D01*
X0005990Y0008750D02*
Y-0001650D01*
X0005900Y0008750D02*
Y-0001650D01*
X0005810Y0008750D02*
Y-0001650D01*
X0005720Y0008750D02*
Y-0001650D01*
X0005630Y0008750D02*
Y-0001650D01*
X0005540Y0008750D02*
Y-0001650D01*
X0005450Y0008750D02*
Y-0001650D01*
X0005360Y0008750D02*
Y-0001650D01*
X0005270Y0008750D02*
Y-0001650D01*
X0005180Y0008750D02*
Y-0001650D01*
X0005090Y0008750D02*
Y-0001650D01*
X0005000Y0008750D02*
Y-0001650D01*
X0004910Y0008750D02*
Y-0001650D01*
X0004820Y0008750D02*
Y-0001650D01*
X0004730Y0008750D02*
Y-0001650D01*
X0004640Y0008750D02*
Y-0001650D01*
X0004550Y0008750D02*
Y-0001650D01*
X0004460Y0008750D02*
Y-0001650D01*
X0004370Y0008750D02*
Y-0001650D01*
X0004280Y0008750D02*
Y-0001650D01*
X0004190Y0008750D02*
Y-0001650D01*
X0004100Y0008750D02*
Y-0001650D01*
X0004010Y0008750D02*
Y-0001650D01*
X0003920Y0008750D02*
Y-0001650D01*
X0003830Y0008750D02*
Y-0001650D01*
X0003740Y0008750D02*
Y-0001650D01*
X0003650Y0008750D02*
Y-0001650D01*
X0003560Y0008750D02*
Y-0001650D01*
X0003470Y0008750D02*
Y-0001650D01*
X0003380Y0008750D02*
Y-0001650D01*
X0003290Y0008750D02*
Y-0001650D01*
X0003200Y0008750D02*
Y-0001650D01*
X0003110Y0008750D02*
Y-0001650D01*
X0003020Y0008750D02*
Y-0001650D01*
X0002930Y0008750D02*
Y-0001650D01*
X0002840Y0008750D02*
Y-0001650D01*
X0002750Y0008750D02*
Y-0001650D01*
X0002660Y0008750D02*
Y-0001650D01*
X0002570Y0008750D02*
Y-0001650D01*
X0002480Y0008750D02*
Y-0001650D01*
X0002390Y0008750D02*
Y-0001650D01*
X0002300Y0008750D02*
Y-0001650D01*
X0002210Y0008750D02*
Y-0001650D01*
X0002120Y0008750D02*
Y-0001650D01*
X0002030Y0008750D02*
Y-0001650D01*
X0001940Y0008750D02*
Y-0001650D01*
X0001850Y0008750D02*
Y0002250D01*
X0001760Y0008750D02*
Y0002250D01*
X0001670Y0008750D02*
Y0002250D01*
X0001580Y0008750D02*
Y0002250D01*
X0007150Y0008740D02*
X0001450D01*
X0007150Y0008650D02*
X0001450D01*
X0007150Y0008560D02*
X0001450D01*
X0007150Y0008470D02*
X0001450D01*
X0007150Y0008380D02*
X0001450D01*
X0007150Y0008290D02*
X0001450D01*
X0007150Y0008200D02*
X0001450D01*
X0007150Y0008110D02*
X0001450D01*
X0007150Y0008020D02*
X0001450D01*
X0007150Y0007930D02*
X0001450D01*
X0007150Y0007840D02*
X0001450D01*
X0007150Y0007750D02*
X0001450D01*
X0007150Y0007660D02*
X0001450D01*
X0007150Y0007570D02*
X0001450D01*
X0007150Y0007480D02*
X0001450D01*
X0007150Y0007390D02*
X0001450D01*
X0007150Y0007300D02*
X0001450D01*
X0007150Y0007210D02*
X0001450D01*
X0007150Y0007120D02*
X0001450D01*
X0007150Y0007030D02*
X0001450D01*
X0007150Y0006940D02*
X0001450D01*
X0007150Y0006850D02*
X0001450D01*
X0007150Y0006760D02*
X0001450D01*
X0007150Y0006670D02*
X0001450D01*
X0007150Y0006580D02*
X0001450D01*
X0006550Y-0001610D02*
X0001900D01*
X0006550Y0006400D02*
X0001450D01*
X0006550Y0006310D02*
X0001450D01*
X0006550Y0006220D02*
X0001450D01*
X0006550Y0006130D02*
X0001450D01*
X0006550Y0006040D02*
X0001450D01*
X0006550Y0005950D02*
X0001450D01*
X0006550Y0005860D02*
X0001450D01*
X0006550Y0005770D02*
X0001450D01*
X0006550Y0005680D02*
X0001450D01*
X0006550Y0005590D02*
X0001450D01*
X0006550Y0005500D02*
X0001450D01*
X0006550Y0005410D02*
X0001450D01*
X0006550Y0005320D02*
X0001450D01*
X0006550Y0005230D02*
X0001450D01*
X0006550Y0005140D02*
X0001450D01*
X0006550Y0005050D02*
X0001450D01*
X0006550Y0004960D02*
X0001450D01*
X0006550Y0004870D02*
X0001450D01*
X0006550Y0004780D02*
X0001450D01*
X0006550Y0004690D02*
X0001450D01*
X0006550Y0004600D02*
X0001450D01*
X0006550Y0004510D02*
X0001450D01*
X0006550Y0004420D02*
X0001450D01*
X0006550Y0004330D02*
X0001450D01*
X0006550Y0004240D02*
X0001450D01*
X0006550Y0004150D02*
X0001450D01*
X0006550Y0004060D02*
X0001450D01*
X0006550Y0003970D02*
X0001450D01*
X0006550Y0003880D02*
X0001450D01*
X0006550Y0003790D02*
X0001450D01*
X0006550Y0003700D02*
X0001450D01*
X0001490Y0008750D02*
Y0002250D01*
X0006550Y0003520D02*
X0001450D01*
X0006550Y0003430D02*
X0001450D01*
X0006550Y0003340D02*
X0001450D01*
X0006550Y0003250D02*
X0001450D01*
X0006550Y0003160D02*
X0001450D01*
X0006550Y0003070D02*
X0001450D01*
X0006550Y0002980D02*
X0001450D01*
X0006550Y0002890D02*
X0001450D01*
X0006550Y0002800D02*
X0001450D01*
X0006550Y0002710D02*
X0001450D01*
X0006550Y0002620D02*
X0001450D01*
X0006550Y0002530D02*
X0001450D01*
X0006550Y0002440D02*
X0001450D01*
X0006550Y0002350D02*
X0001450D01*
X0006550Y0002260D02*
X0001450D01*
X0006550Y0002170D02*
X0001900D01*
X0006550Y0002080D02*
X0001900D01*
X0006550Y0001990D02*
X0001900D01*
X0006550Y0001900D02*
X0001900D01*
X0006550Y0001810D02*
X0001900D01*
X0006550Y0001720D02*
X0001900D01*
X0006550Y0001630D02*
X0001900D01*
X0006550Y0001540D02*
X0001900D01*
X0006550Y0001450D02*
X0001900D01*
X0006550Y0001360D02*
X0001900D01*
X0006550Y0001270D02*
X0001900D01*
X0006550Y0001180D02*
X0001900D01*
X0006550Y0001090D02*
X0001900D01*
X0006550Y0001000D02*
X0001900D01*
X0006550Y0000910D02*
X0001900D01*
X0006550Y0000820D02*
X0001900D01*
X0006550Y0000730D02*
X0001900D01*
X0006550Y0000640D02*
X0001900D01*
X0006550Y0000550D02*
X0001900D01*
X0006550Y0000460D02*
X0001900D01*
X0006550Y0000370D02*
X0001900D01*
X0006550Y0000280D02*
X0001900D01*
X0006550Y0000190D02*
X0001900D01*
X0006550Y0000100D02*
X0001900D01*
X0006550Y0000010D02*
X0001900D01*
X0006550Y-0000080D02*
X0001900D01*
X0006550Y-0000170D02*
X0001900D01*
X0006550Y-0000260D02*
X0001900D01*
X0006550Y-0000350D02*
X0001900D01*
X0006550Y-0000440D02*
X0001900D01*
X0006550Y-0000530D02*
X0001900D01*
X0006550Y-0000620D02*
X0001900D01*
X0006550Y-0000710D02*
X0001900D01*
X0006550Y-0000800D02*
X0001900D01*
X0006550Y-0000890D02*
X0001900D01*
X0006550Y-0000980D02*
X0001900D01*
X0006550Y-0001070D02*
X0001900D01*
X0006550Y-0001160D02*
X0001900D01*
X0006550Y-0001250D02*
X0001900D01*
X0006550Y-0001340D02*
X0001900D01*
X0006550Y-0001430D02*
X0001900D01*
X0006550Y-0001520D02*
X0001900D01*
X0019865Y0046583D02*
Y0045677D01*
X0020100Y0046527D02*
X0019825D01*
X0020100Y0046437D02*
X0019825D01*
X0020100Y0046347D02*
X0019825D01*
X0020100Y0046257D02*
X0019825D01*
X0020100Y0046167D02*
X0019825D01*
X0020100Y0046077D02*
X0019825D01*
X0020494Y0045987D02*
X0019825D01*
X0020494Y0045897D02*
X0019825D01*
X0020494Y0045807D02*
X0019825D01*
X0020100Y0046583D02*
Y0046071D01*
X0020494D02*
X0020100D01*
X0020494D02*
Y0045677D01*
X0020405Y0046071D02*
Y0045677D01*
X0020315Y0046071D02*
Y0045677D01*
X0020225Y0046071D02*
Y0045677D01*
X0020135Y0046071D02*
Y0045677D01*
X0020045Y0046583D02*
Y0045677D01*
X0019955Y0046583D02*
Y0045677D01*
X0020494Y0045717D02*
X0019825D01*
X0020494Y0045677D02*
X0019825D01*
Y0046583D02*
Y0045677D01*
X0020100Y0046583D02*
X0019825D01*
X0019865Y0045323D02*
Y0044417D01*
X0020494Y0045267D02*
X0019825D01*
X0020494Y0045177D02*
X0019825D01*
X0020494Y0045087D02*
X0019825D01*
X0020494Y0044997D02*
X0019825D01*
X0020100Y0044907D02*
X0019825D01*
X0020100Y0044817D02*
X0019825D01*
X0020100Y0044727D02*
X0019825D01*
X0020100Y0044637D02*
X0019825D01*
X0020100Y0044547D02*
X0019825D01*
Y0045323D02*
Y0044417D01*
X0020494Y0045323D02*
X0019825D01*
X0020494D02*
Y0044929D01*
X0020405Y0045323D02*
Y0044929D01*
X0020315Y0045323D02*
Y0044929D01*
X0020225Y0045323D02*
Y0044929D01*
X0020135Y0045323D02*
Y0044929D01*
X0020045Y0045323D02*
Y0044417D01*
X0019955Y0045323D02*
Y0044417D01*
X0020100Y0044457D02*
X0019825D01*
X0020494Y0044929D02*
X0020100D01*
Y0044417D01*
X0019825D01*
X0021046Y0045323D02*
Y0044929D01*
X0021675Y0045267D02*
X0021006D01*
X0021675Y0045177D02*
X0021006D01*
X0021675Y0045087D02*
X0021006D01*
X0021675Y0044997D02*
X0021006D01*
X0021675Y0044907D02*
X0021400D01*
X0021675Y0044817D02*
X0021400D01*
X0021675Y0044727D02*
X0021400D01*
X0021675Y0044637D02*
X0021400D01*
X0021675Y0044547D02*
X0021400D01*
X0021675Y0045323D02*
Y0044417D01*
Y0045323D02*
X0021006D01*
Y0044929D01*
X0021586Y0045323D02*
Y0044417D01*
X0021496Y0045323D02*
Y0044417D01*
X0021406Y0045323D02*
Y0044417D01*
X0021316Y0045323D02*
Y0044929D01*
X0021226Y0045323D02*
Y0044929D01*
X0021136Y0045323D02*
Y0044929D01*
X0021675Y0044457D02*
X0021400D01*
Y0044929D02*
X0021006D01*
X0021400D02*
Y0044417D01*
X0021675D02*
X0021400D01*
X0021046Y0046071D02*
Y0045677D01*
X0021675Y0046527D02*
X0021400D01*
X0021675Y0046437D02*
X0021400D01*
X0021675Y0046347D02*
X0021400D01*
X0021675Y0046257D02*
X0021400D01*
X0021675Y0046167D02*
X0021400D01*
X0021675Y0046077D02*
X0021400D01*
X0021675Y0045987D02*
X0021006D01*
X0021675Y0045897D02*
X0021006D01*
X0021675Y0045807D02*
X0021006D01*
X0021400Y0046583D02*
Y0046071D01*
X0021006D01*
Y0045677D01*
X0021586Y0046583D02*
Y0045677D01*
X0021496Y0046583D02*
Y0045677D01*
X0021406Y0046583D02*
Y0045677D01*
X0021316Y0046071D02*
Y0045677D01*
X0021226Y0046071D02*
Y0045677D01*
X0021136Y0046071D02*
Y0045677D01*
X0021675Y0045717D02*
X0021006D01*
X0021675Y0045677D02*
X0021006D01*
X0021675Y0046583D02*
Y0045677D01*
Y0046583D02*
X0021400D01*
X0021669Y0005979D02*
X0020331D01*
X0021669Y0005889D02*
X0020331D01*
X0021669Y0005799D02*
X0020331D01*
X0021669Y0005709D02*
X0020331D01*
X0021669Y0005619D02*
X0020331D01*
X0021669Y0005529D02*
X0020331D01*
X0021669Y0005439D02*
X0020331D01*
X0021669Y0005349D02*
X0020331D01*
X0021669Y0005259D02*
X0020331D01*
X0021669Y0005169D02*
X0020331D01*
X0021669Y0005079D02*
X0020331D01*
X0021181Y0006051D02*
Y0004949D01*
X0021091Y0006051D02*
Y0004949D01*
X0021001Y0006051D02*
Y0004949D01*
X0020911Y0006051D02*
Y0004949D01*
X0020821Y0006051D02*
Y0004949D01*
X0020731Y0006051D02*
Y0004949D01*
X0020641Y0006051D02*
Y0004949D01*
X0020551Y0006051D02*
Y0004949D01*
X0020461Y0006051D02*
Y0004949D01*
X0020371Y0006051D02*
Y0004949D01*
X0021669Y0004989D02*
X0020331D01*
X0021669Y0004949D02*
X0020331D01*
X0021669Y0006051D02*
Y0004949D01*
Y0006051D02*
X0020331D01*
Y0004949D01*
X0021631Y0006051D02*
Y0004949D01*
X0021541Y0006051D02*
Y0004949D01*
X0021451Y0006051D02*
Y0004949D01*
X0021361Y0006051D02*
Y0004949D01*
X0021271Y0006051D02*
Y0004949D01*
G54D73*
G01X0029134Y0033000D02*
Y0032500D01*
X0029080Y0033000D02*
Y0032500D01*
X0029026Y0033000D02*
Y0032500D01*
X0028972Y0033000D02*
Y0032500D01*
X0028918Y0033000D02*
Y0032500D01*
X0028864Y0033000D02*
Y0032500D01*
X0028810Y0033000D02*
Y0032500D01*
X0028756Y0033000D02*
Y0032500D01*
X0028702Y0033000D02*
Y0032500D01*
X0028648Y0033000D02*
Y0032500D01*
X0028594Y0033000D02*
Y0032500D01*
X0028540Y0033000D02*
Y0032500D01*
X0031000Y0032972D02*
X0028500D01*
X0031000Y0032918D02*
X0028500D01*
X0031000Y0032864D02*
X0028500D01*
X0031000Y0032810D02*
X0028500D01*
X0031000Y0032756D02*
X0028500D01*
X0031000Y0032702D02*
X0028500D01*
X0031000Y0032648D02*
X0028500D01*
X0031000Y0032594D02*
X0028500D01*
X0030268Y0033000D02*
Y0032500D01*
X0030214Y0033000D02*
Y0032500D01*
X0030160Y0033000D02*
Y0032500D01*
X0030106Y0033000D02*
Y0032500D01*
X0030052Y0033000D02*
Y0032500D01*
X0029998Y0033000D02*
Y0032500D01*
X0029944Y0033000D02*
Y0032500D01*
X0029890Y0033000D02*
Y0032500D01*
X0029836Y0033000D02*
Y0032500D01*
X0029782Y0033000D02*
Y0032500D01*
X0029728Y0033000D02*
Y0032500D01*
X0029674Y0033000D02*
Y0032500D01*
X0029620Y0033000D02*
Y0032500D01*
X0029566Y0033000D02*
Y0032500D01*
X0029512Y0033000D02*
Y0032500D01*
X0029458Y0033000D02*
Y0032500D01*
X0029404Y0033000D02*
Y0032500D01*
X0029350Y0033000D02*
Y0032500D01*
X0029296Y0033000D02*
Y0032500D01*
X0029242Y0033000D02*
Y0032500D01*
X0029188Y0033000D02*
Y0032500D01*
X0031000Y0032540D02*
X0028500D01*
X0031000Y0033000D02*
X0028500D01*
X0031000D02*
Y0032500D01*
X0028500D01*
Y0033000D02*
Y0032500D01*
X0030970Y0033000D02*
Y0032500D01*
X0030916Y0033000D02*
Y0032500D01*
X0030862Y0033000D02*
Y0032500D01*
X0030808Y0033000D02*
Y0032500D01*
X0030754Y0033000D02*
Y0032500D01*
X0030700Y0033000D02*
Y0032500D01*
X0030646Y0033000D02*
Y0032500D01*
X0030592Y0033000D02*
Y0032500D01*
X0030538Y0033000D02*
Y0032500D01*
X0030484Y0033000D02*
Y0032500D01*
X0030430Y0033000D02*
Y0032500D01*
X0030376Y0033000D02*
Y0032500D01*
X0030322Y0033000D02*
Y0032500D01*
X0029134Y0032000D02*
Y0031500D01*
X0029080Y0032000D02*
Y0031500D01*
X0029026Y0032000D02*
Y0031500D01*
X0028972Y0032000D02*
Y0031500D01*
X0028918Y0032000D02*
Y0031500D01*
X0028864Y0032000D02*
Y0031500D01*
X0028810Y0032000D02*
Y0031500D01*
X0028756Y0032000D02*
Y0031500D01*
X0028702Y0032000D02*
Y0031500D01*
X0028648Y0032000D02*
Y0031500D01*
X0028594Y0032000D02*
Y0031500D01*
X0028540Y0032000D02*
Y0031500D01*
X0031000Y0031972D02*
X0028500D01*
X0031000Y0031918D02*
X0028500D01*
X0031000Y0031864D02*
X0028500D01*
X0031000Y0031810D02*
X0028500D01*
X0031000Y0031756D02*
X0028500D01*
X0031000Y0031702D02*
X0028500D01*
X0031000Y0031648D02*
X0028500D01*
X0031000Y0031594D02*
X0028500D01*
X0030268Y0032000D02*
Y0031500D01*
X0030214Y0032000D02*
Y0031500D01*
X0030160Y0032000D02*
Y0031500D01*
X0030106Y0032000D02*
Y0031500D01*
X0030052Y0032000D02*
Y0031500D01*
X0029998Y0032000D02*
Y0031500D01*
X0029944Y0032000D02*
Y0031500D01*
X0029890Y0032000D02*
Y0031500D01*
X0029836Y0032000D02*
Y0031500D01*
X0029782Y0032000D02*
Y0031500D01*
X0029728Y0032000D02*
Y0031500D01*
X0029674Y0032000D02*
Y0031500D01*
X0029620Y0032000D02*
Y0031500D01*
X0029566Y0032000D02*
Y0031500D01*
X0029512Y0032000D02*
Y0031500D01*
X0029458Y0032000D02*
Y0031500D01*
X0029404Y0032000D02*
Y0031500D01*
X0029350Y0032000D02*
Y0031500D01*
X0029296Y0032000D02*
Y0031500D01*
X0029242Y0032000D02*
Y0031500D01*
X0029188Y0032000D02*
Y0031500D01*
X0031000Y0031540D02*
X0028500D01*
X0031000Y0032000D02*
X0028500D01*
X0031000D02*
Y0031500D01*
X0028500D01*
Y0032000D02*
Y0031500D01*
X0030970Y0032000D02*
Y0031500D01*
X0030916Y0032000D02*
Y0031500D01*
X0030862Y0032000D02*
Y0031500D01*
X0030808Y0032000D02*
Y0031500D01*
X0030754Y0032000D02*
Y0031500D01*
X0030700Y0032000D02*
Y0031500D01*
X0030646Y0032000D02*
Y0031500D01*
X0030592Y0032000D02*
Y0031500D01*
X0030538Y0032000D02*
Y0031500D01*
X0030484Y0032000D02*
Y0031500D01*
X0030430Y0032000D02*
Y0031500D01*
X0030376Y0032000D02*
Y0031500D01*
X0030322Y0032000D02*
Y0031500D01*
X0029134Y0031000D02*
Y0030500D01*
X0029080Y0031000D02*
Y0030500D01*
X0029026Y0031000D02*
Y0030500D01*
X0028972Y0031000D02*
Y0030500D01*
X0028918Y0031000D02*
Y0030500D01*
X0028864Y0031000D02*
Y0030500D01*
X0028810Y0031000D02*
Y0030500D01*
X0028756Y0031000D02*
Y0030500D01*
X0028702Y0031000D02*
Y0030500D01*
X0028648Y0031000D02*
Y0030500D01*
X0028594Y0031000D02*
Y0030500D01*
X0028540Y0031000D02*
Y0030500D01*
X0031000Y0030972D02*
X0028500D01*
X0031000Y0030918D02*
X0028500D01*
X0031000Y0030864D02*
X0028500D01*
X0031000Y0030810D02*
X0028500D01*
X0031000Y0030756D02*
X0028500D01*
X0031000Y0030702D02*
X0028500D01*
X0031000Y0030648D02*
X0028500D01*
X0031000Y0030594D02*
X0028500D01*
X0030268Y0031000D02*
Y0030500D01*
X0030214Y0031000D02*
Y0030500D01*
X0030160Y0031000D02*
Y0030500D01*
X0030106Y0031000D02*
Y0030500D01*
X0030052Y0031000D02*
Y0030500D01*
X0029998Y0031000D02*
Y0030500D01*
X0029944Y0031000D02*
Y0030500D01*
X0029890Y0031000D02*
Y0030500D01*
X0029836Y0031000D02*
Y0030500D01*
X0029782Y0031000D02*
Y0030500D01*
X0029728Y0031000D02*
Y0030500D01*
X0029674Y0031000D02*
Y0030500D01*
X0029620Y0031000D02*
Y0030500D01*
X0029566Y0031000D02*
Y0030500D01*
X0029512Y0031000D02*
Y0030500D01*
X0029458Y0031000D02*
Y0030500D01*
X0029404Y0031000D02*
Y0030500D01*
X0029350Y0031000D02*
Y0030500D01*
X0029296Y0031000D02*
Y0030500D01*
X0029242Y0031000D02*
Y0030500D01*
X0029188Y0031000D02*
Y0030500D01*
X0031000Y0030540D02*
X0028500D01*
X0031000Y0031000D02*
X0028500D01*
X0031000D02*
Y0030500D01*
X0028500D01*
Y0031000D02*
Y0030500D01*
X0030970Y0031000D02*
Y0030500D01*
X0030916Y0031000D02*
Y0030500D01*
X0030862Y0031000D02*
Y0030500D01*
X0030808Y0031000D02*
Y0030500D01*
X0030754Y0031000D02*
Y0030500D01*
X0030700Y0031000D02*
Y0030500D01*
X0030646Y0031000D02*
Y0030500D01*
X0030592Y0031000D02*
Y0030500D01*
X0030538Y0031000D02*
Y0030500D01*
X0030484Y0031000D02*
Y0030500D01*
X0030430Y0031000D02*
Y0030500D01*
X0030376Y0031000D02*
Y0030500D01*
X0030322Y0031000D02*
Y0030500D01*
X0029248Y0030000D02*
Y0029100D01*
X0029194Y0030000D02*
Y0029100D01*
X0029140Y0030000D02*
Y0029100D01*
X0030400Y0029950D02*
X0029100D01*
X0030400Y0029896D02*
X0029100D01*
X0030400Y0029842D02*
X0029100D01*
X0030400Y0029788D02*
X0029100D01*
X0030400Y0029734D02*
X0029100D01*
X0030400Y0029680D02*
X0029100D01*
X0030400Y0029626D02*
X0029100D01*
X0030400Y0029572D02*
X0029100D01*
X0030400Y0029518D02*
X0029100D01*
X0030400Y0029464D02*
X0029100D01*
X0030400Y0029410D02*
X0029100D01*
X0030400Y0029356D02*
X0029100D01*
X0030400Y0029302D02*
X0029100D01*
X0030400Y0029248D02*
X0029100D01*
X0030400Y0029194D02*
X0029100D01*
X0030274Y0030000D02*
Y0029100D01*
X0030220Y0030000D02*
Y0029100D01*
X0030166Y0030000D02*
Y0029100D01*
X0030112Y0030000D02*
Y0029100D01*
X0030058Y0030000D02*
Y0029100D01*
X0030004Y0030000D02*
Y0029100D01*
X0029950Y0030000D02*
Y0029100D01*
X0029896Y0030000D02*
Y0029100D01*
X0029842Y0030000D02*
Y0029100D01*
X0029788Y0030000D02*
Y0029100D01*
X0029734Y0030000D02*
Y0029100D01*
X0029680Y0030000D02*
Y0029100D01*
X0029626Y0030000D02*
Y0029100D01*
X0029572Y0030000D02*
Y0029100D01*
X0029518Y0030000D02*
Y0029100D01*
X0029464Y0030000D02*
Y0029100D01*
X0029410Y0030000D02*
Y0029100D01*
X0029356Y0030000D02*
Y0029100D01*
X0029302Y0030000D02*
Y0029100D01*
X0030400Y0029140D02*
X0029100D01*
Y0030000D02*
Y0029950D01*
X0030400Y0030000D02*
X0029100D01*
X0030400D02*
Y0029100D01*
X0029100D01*
Y0029950D02*
Y0029100D01*
X0030382Y0030000D02*
Y0029100D01*
X0030328Y0030000D02*
Y0029100D01*
X0029134Y0034000D02*
Y0033500D01*
X0029080Y0034000D02*
Y0033500D01*
X0029026Y0034000D02*
Y0033500D01*
X0028972Y0034000D02*
Y0033500D01*
X0028918Y0034000D02*
Y0033500D01*
X0028864Y0034000D02*
Y0033500D01*
X0028810Y0034000D02*
Y0033500D01*
X0028756Y0034000D02*
Y0033500D01*
X0028702Y0034000D02*
Y0033500D01*
X0028648Y0034000D02*
Y0033500D01*
X0028594Y0034000D02*
Y0033500D01*
X0028540Y0034000D02*
Y0033500D01*
X0031000Y0033972D02*
X0028500D01*
X0031000Y0033918D02*
X0028500D01*
X0031000Y0033864D02*
X0028500D01*
X0031000Y0033810D02*
X0028500D01*
X0031000Y0033756D02*
X0028500D01*
X0031000Y0033702D02*
X0028500D01*
X0031000Y0033648D02*
X0028500D01*
X0031000Y0033594D02*
X0028500D01*
X0030268Y0034000D02*
Y0033500D01*
X0030214Y0034000D02*
Y0033500D01*
X0030160Y0034000D02*
Y0033500D01*
X0030106Y0034000D02*
Y0033500D01*
X0030052Y0034000D02*
Y0033500D01*
X0029998Y0034000D02*
Y0033500D01*
X0029944Y0034000D02*
Y0033500D01*
X0029890Y0034000D02*
Y0033500D01*
X0029836Y0034000D02*
Y0033500D01*
X0029782Y0034000D02*
Y0033500D01*
X0029728Y0034000D02*
Y0033500D01*
X0029674Y0034000D02*
Y0033500D01*
X0029620Y0034000D02*
Y0033500D01*
X0029566Y0034000D02*
Y0033500D01*
X0029512Y0034000D02*
Y0033500D01*
X0029458Y0034000D02*
Y0033500D01*
X0029404Y0034000D02*
Y0033500D01*
X0029350Y0034000D02*
Y0033500D01*
X0029296Y0034000D02*
Y0033500D01*
X0029242Y0034000D02*
Y0033500D01*
X0029188Y0034000D02*
Y0033500D01*
X0031000Y0033540D02*
X0028500D01*
X0031000Y0034000D02*
X0028500D01*
X0031000D02*
Y0033500D01*
X0028500D01*
Y0034000D02*
Y0033500D01*
X0030970Y0034000D02*
Y0033500D01*
X0030916Y0034000D02*
Y0033500D01*
X0030862Y0034000D02*
Y0033500D01*
X0030808Y0034000D02*
Y0033500D01*
X0030754Y0034000D02*
Y0033500D01*
X0030700Y0034000D02*
Y0033500D01*
X0030646Y0034000D02*
Y0033500D01*
X0030592Y0034000D02*
Y0033500D01*
X0030538Y0034000D02*
Y0033500D01*
X0030484Y0034000D02*
Y0033500D01*
X0030430Y0034000D02*
Y0033500D01*
X0030376Y0034000D02*
Y0033500D01*
X0030322Y0034000D02*
Y0033500D01*
X0029248Y0035400D02*
Y0034500D01*
X0029194Y0035400D02*
Y0034500D01*
X0029140Y0035400D02*
Y0034500D01*
X0030400Y0035350D02*
X0029100D01*
X0030400Y0035296D02*
X0029100D01*
X0030400Y0035242D02*
X0029100D01*
X0030400Y0035188D02*
X0029100D01*
X0030400Y0035134D02*
X0029100D01*
X0030400Y0035080D02*
X0029100D01*
X0030400Y0035026D02*
X0029100D01*
X0030400Y0034972D02*
X0029100D01*
X0030400Y0034918D02*
X0029100D01*
X0030400Y0034864D02*
X0029100D01*
X0030400Y0034810D02*
X0029100D01*
X0030400Y0034756D02*
X0029100D01*
X0030400Y0034702D02*
X0029100D01*
X0030400Y0034648D02*
X0029100D01*
X0030400Y0034594D02*
X0029100D01*
X0030274Y0035400D02*
Y0034500D01*
X0030220Y0035400D02*
Y0034500D01*
X0030166Y0035400D02*
Y0034500D01*
X0030112Y0035400D02*
Y0034500D01*
X0030058Y0035400D02*
Y0034500D01*
X0030004Y0035400D02*
Y0034500D01*
X0029950Y0035400D02*
Y0034500D01*
X0029896Y0035400D02*
Y0034500D01*
X0029842Y0035400D02*
Y0034500D01*
X0029788Y0035400D02*
Y0034500D01*
X0029734Y0035400D02*
Y0034500D01*
X0029680Y0035400D02*
Y0034500D01*
X0029626Y0035400D02*
Y0034500D01*
X0029572Y0035400D02*
Y0034500D01*
X0029518Y0035400D02*
Y0034500D01*
X0029464Y0035400D02*
Y0034500D01*
X0029410Y0035400D02*
Y0034500D01*
X0029356Y0035400D02*
Y0034500D01*
X0029302Y0035400D02*
Y0034500D01*
X0030400Y0034540D02*
X0029100D01*
Y0035400D02*
Y0035350D01*
X0030400Y0035400D02*
X0029100D01*
X0030400D02*
Y0034500D01*
X0029100D01*
Y0035350D02*
Y0034500D01*
X0030382Y0035400D02*
Y0034500D01*
X0030328Y0035400D02*
Y0034500D01*
X0029134Y0043000D02*
Y0042500D01*
X0029080Y0043000D02*
Y0042500D01*
X0029026Y0043000D02*
Y0042500D01*
X0028972Y0043000D02*
Y0042500D01*
X0028918Y0043000D02*
Y0042500D01*
X0028864Y0043000D02*
Y0042500D01*
X0028810Y0043000D02*
Y0042500D01*
X0028756Y0043000D02*
Y0042500D01*
X0028702Y0043000D02*
Y0042500D01*
X0028648Y0043000D02*
Y0042500D01*
X0028594Y0043000D02*
Y0042500D01*
X0028540Y0043000D02*
Y0042500D01*
X0031000Y0042972D02*
X0028500D01*
X0031000Y0042918D02*
X0028500D01*
X0031000Y0042864D02*
X0028500D01*
X0031000Y0042810D02*
X0028500D01*
X0031000Y0042756D02*
X0028500D01*
X0031000Y0042702D02*
X0028500D01*
X0031000Y0042648D02*
X0028500D01*
X0031000Y0042594D02*
X0028500D01*
X0030268Y0043000D02*
Y0042500D01*
X0030214Y0043000D02*
Y0042500D01*
X0030160Y0043000D02*
Y0042500D01*
X0030106Y0043000D02*
Y0042500D01*
X0030052Y0043000D02*
Y0042500D01*
X0029998Y0043000D02*
Y0042500D01*
X0029944Y0043000D02*
Y0042500D01*
X0029890Y0043000D02*
Y0042500D01*
X0029836Y0043000D02*
Y0042500D01*
X0029782Y0043000D02*
Y0042500D01*
X0029728Y0043000D02*
Y0042500D01*
X0029674Y0043000D02*
Y0042500D01*
X0029620Y0043000D02*
Y0042500D01*
X0029566Y0043000D02*
Y0042500D01*
X0029512Y0043000D02*
Y0042500D01*
X0029458Y0043000D02*
Y0042500D01*
X0029404Y0043000D02*
Y0042500D01*
X0029350Y0043000D02*
Y0042500D01*
X0029296Y0043000D02*
Y0042500D01*
X0029242Y0043000D02*
Y0042500D01*
X0029188Y0043000D02*
Y0042500D01*
X0031000Y0042540D02*
X0028500D01*
X0031000Y0043000D02*
X0028500D01*
X0031000D02*
Y0042500D01*
X0028500D01*
Y0043000D02*
Y0042500D01*
X0030970Y0043000D02*
Y0042500D01*
X0030916Y0043000D02*
Y0042500D01*
X0030862Y0043000D02*
Y0042500D01*
X0030808Y0043000D02*
Y0042500D01*
X0030754Y0043000D02*
Y0042500D01*
X0030700Y0043000D02*
Y0042500D01*
X0030646Y0043000D02*
Y0042500D01*
X0030592Y0043000D02*
Y0042500D01*
X0030538Y0043000D02*
Y0042500D01*
X0030484Y0043000D02*
Y0042500D01*
X0030430Y0043000D02*
Y0042500D01*
X0030376Y0043000D02*
Y0042500D01*
X0030322Y0043000D02*
Y0042500D01*
X0029134Y0042000D02*
Y0041500D01*
X0029080Y0042000D02*
Y0041500D01*
X0029026Y0042000D02*
Y0041500D01*
X0028972Y0042000D02*
Y0041500D01*
X0028918Y0042000D02*
Y0041500D01*
X0028864Y0042000D02*
Y0041500D01*
X0028810Y0042000D02*
Y0041500D01*
X0028756Y0042000D02*
Y0041500D01*
X0028702Y0042000D02*
Y0041500D01*
X0028648Y0042000D02*
Y0041500D01*
X0028594Y0042000D02*
Y0041500D01*
X0028540Y0042000D02*
Y0041500D01*
X0031000Y0041972D02*
X0028500D01*
X0031000Y0041918D02*
X0028500D01*
X0031000Y0041864D02*
X0028500D01*
X0031000Y0041810D02*
X0028500D01*
X0031000Y0041756D02*
X0028500D01*
X0031000Y0041702D02*
X0028500D01*
X0031000Y0041648D02*
X0028500D01*
X0031000Y0041594D02*
X0028500D01*
X0030268Y0042000D02*
Y0041500D01*
X0030214Y0042000D02*
Y0041500D01*
X0030160Y0042000D02*
Y0041500D01*
X0030106Y0042000D02*
Y0041500D01*
X0030052Y0042000D02*
Y0041500D01*
X0029998Y0042000D02*
Y0041500D01*
X0029944Y0042000D02*
Y0041500D01*
X0029890Y0042000D02*
Y0041500D01*
X0029836Y0042000D02*
Y0041500D01*
X0029782Y0042000D02*
Y0041500D01*
X0029728Y0042000D02*
Y0041500D01*
X0029674Y0042000D02*
Y0041500D01*
X0029620Y0042000D02*
Y0041500D01*
X0029566Y0042000D02*
Y0041500D01*
X0029512Y0042000D02*
Y0041500D01*
X0029458Y0042000D02*
Y0041500D01*
X0029404Y0042000D02*
Y0041500D01*
X0029350Y0042000D02*
Y0041500D01*
X0029296Y0042000D02*
Y0041500D01*
X0029242Y0042000D02*
Y0041500D01*
X0029188Y0042000D02*
Y0041500D01*
X0031000Y0041540D02*
X0028500D01*
X0031000Y0042000D02*
X0028500D01*
X0031000D02*
Y0041500D01*
X0028500D01*
Y0042000D02*
Y0041500D01*
X0030970Y0042000D02*
Y0041500D01*
X0030916Y0042000D02*
Y0041500D01*
X0030862Y0042000D02*
Y0041500D01*
X0030808Y0042000D02*
Y0041500D01*
X0030754Y0042000D02*
Y0041500D01*
X0030700Y0042000D02*
Y0041500D01*
X0030646Y0042000D02*
Y0041500D01*
X0030592Y0042000D02*
Y0041500D01*
X0030538Y0042000D02*
Y0041500D01*
X0030484Y0042000D02*
Y0041500D01*
X0030430Y0042000D02*
Y0041500D01*
X0030376Y0042000D02*
Y0041500D01*
X0030322Y0042000D02*
Y0041500D01*
X0029134Y0041000D02*
Y0040500D01*
X0029080Y0041000D02*
Y0040500D01*
X0029026Y0041000D02*
Y0040500D01*
X0028972Y0041000D02*
Y0040500D01*
X0028918Y0041000D02*
Y0040500D01*
X0028864Y0041000D02*
Y0040500D01*
X0028810Y0041000D02*
Y0040500D01*
X0028756Y0041000D02*
Y0040500D01*
X0028702Y0041000D02*
Y0040500D01*
X0028648Y0041000D02*
Y0040500D01*
X0028594Y0041000D02*
Y0040500D01*
X0028540Y0041000D02*
Y0040500D01*
X0031000Y0040972D02*
X0028500D01*
X0031000Y0040918D02*
X0028500D01*
X0031000Y0040864D02*
X0028500D01*
X0031000Y0040810D02*
X0028500D01*
X0031000Y0040756D02*
X0028500D01*
X0031000Y0040702D02*
X0028500D01*
X0031000Y0040648D02*
X0028500D01*
X0031000Y0040594D02*
X0028500D01*
X0030268Y0041000D02*
Y0040500D01*
X0030214Y0041000D02*
Y0040500D01*
X0030160Y0041000D02*
Y0040500D01*
X0030106Y0041000D02*
Y0040500D01*
X0030052Y0041000D02*
Y0040500D01*
X0029998Y0041000D02*
Y0040500D01*
X0029944Y0041000D02*
Y0040500D01*
X0029890Y0041000D02*
Y0040500D01*
X0029836Y0041000D02*
Y0040500D01*
X0029782Y0041000D02*
Y0040500D01*
X0029728Y0041000D02*
Y0040500D01*
X0029674Y0041000D02*
Y0040500D01*
X0029620Y0041000D02*
Y0040500D01*
X0029566Y0041000D02*
Y0040500D01*
X0029512Y0041000D02*
Y0040500D01*
X0029458Y0041000D02*
Y0040500D01*
X0029404Y0041000D02*
Y0040500D01*
X0029350Y0041000D02*
Y0040500D01*
X0029296Y0041000D02*
Y0040500D01*
X0029242Y0041000D02*
Y0040500D01*
X0029188Y0041000D02*
Y0040500D01*
X0031000Y0040540D02*
X0028500D01*
X0031000Y0041000D02*
X0028500D01*
X0031000D02*
Y0040500D01*
X0028500D01*
Y0041000D02*
Y0040500D01*
X0030970Y0041000D02*
Y0040500D01*
X0030916Y0041000D02*
Y0040500D01*
X0030862Y0041000D02*
Y0040500D01*
X0030808Y0041000D02*
Y0040500D01*
X0030754Y0041000D02*
Y0040500D01*
X0030700Y0041000D02*
Y0040500D01*
X0030646Y0041000D02*
Y0040500D01*
X0030592Y0041000D02*
Y0040500D01*
X0030538Y0041000D02*
Y0040500D01*
X0030484Y0041000D02*
Y0040500D01*
X0030430Y0041000D02*
Y0040500D01*
X0030376Y0041000D02*
Y0040500D01*
X0030322Y0041000D02*
Y0040500D01*
X0029248Y0040000D02*
Y0039100D01*
X0029194Y0040000D02*
Y0039100D01*
X0029140Y0040000D02*
Y0039100D01*
X0030400Y0039950D02*
X0029100D01*
X0030400Y0039896D02*
X0029100D01*
X0030400Y0039842D02*
X0029100D01*
X0030400Y0039788D02*
X0029100D01*
X0030400Y0039734D02*
X0029100D01*
X0030400Y0039680D02*
X0029100D01*
X0030400Y0039626D02*
X0029100D01*
X0030400Y0039572D02*
X0029100D01*
X0030400Y0039518D02*
X0029100D01*
X0030400Y0039464D02*
X0029100D01*
X0030400Y0039410D02*
X0029100D01*
X0030400Y0039356D02*
X0029100D01*
X0030400Y0039302D02*
X0029100D01*
X0030400Y0039248D02*
X0029100D01*
X0030400Y0039194D02*
X0029100D01*
X0030274Y0040000D02*
Y0039100D01*
X0030220Y0040000D02*
Y0039100D01*
X0030166Y0040000D02*
Y0039100D01*
X0030112Y0040000D02*
Y0039100D01*
X0030058Y0040000D02*
Y0039100D01*
X0030004Y0040000D02*
Y0039100D01*
X0029950Y0040000D02*
Y0039100D01*
X0029896Y0040000D02*
Y0039100D01*
X0029842Y0040000D02*
Y0039100D01*
X0029788Y0040000D02*
Y0039100D01*
X0029734Y0040000D02*
Y0039100D01*
X0029680Y0040000D02*
Y0039100D01*
X0029626Y0040000D02*
Y0039100D01*
X0029572Y0040000D02*
Y0039100D01*
X0029518Y0040000D02*
Y0039100D01*
X0029464Y0040000D02*
Y0039100D01*
X0029410Y0040000D02*
Y0039100D01*
X0029356Y0040000D02*
Y0039100D01*
X0029302Y0040000D02*
Y0039100D01*
X0030400Y0039140D02*
X0029100D01*
Y0040000D02*
Y0039950D01*
X0030400Y0040000D02*
X0029100D01*
X0030400D02*
Y0039100D01*
X0029100D01*
Y0039950D02*
Y0039100D01*
X0030382Y0040000D02*
Y0039100D01*
X0030328Y0040000D02*
Y0039100D01*
X0029134Y0044000D02*
Y0043500D01*
X0029080Y0044000D02*
Y0043500D01*
X0029026Y0044000D02*
Y0043500D01*
X0028972Y0044000D02*
Y0043500D01*
X0028918Y0044000D02*
Y0043500D01*
X0028864Y0044000D02*
Y0043500D01*
X0028810Y0044000D02*
Y0043500D01*
X0028756Y0044000D02*
Y0043500D01*
X0028702Y0044000D02*
Y0043500D01*
X0028648Y0044000D02*
Y0043500D01*
X0028594Y0044000D02*
Y0043500D01*
X0028540Y0044000D02*
Y0043500D01*
X0031000Y0043972D02*
X0028500D01*
X0031000Y0043918D02*
X0028500D01*
X0031000Y0043864D02*
X0028500D01*
X0031000Y0043810D02*
X0028500D01*
X0031000Y0043756D02*
X0028500D01*
X0031000Y0043702D02*
X0028500D01*
X0031000Y0043648D02*
X0028500D01*
X0031000Y0043594D02*
X0028500D01*
X0030268Y0044000D02*
Y0043500D01*
X0030214Y0044000D02*
Y0043500D01*
X0030160Y0044000D02*
Y0043500D01*
X0030106Y0044000D02*
Y0043500D01*
X0030052Y0044000D02*
Y0043500D01*
X0029998Y0044000D02*
Y0043500D01*
X0029944Y0044000D02*
Y0043500D01*
X0029890Y0044000D02*
Y0043500D01*
X0029836Y0044000D02*
Y0043500D01*
X0029782Y0044000D02*
Y0043500D01*
X0029728Y0044000D02*
Y0043500D01*
X0029674Y0044000D02*
Y0043500D01*
X0029620Y0044000D02*
Y0043500D01*
X0029566Y0044000D02*
Y0043500D01*
X0029512Y0044000D02*
Y0043500D01*
X0029458Y0044000D02*
Y0043500D01*
X0029404Y0044000D02*
Y0043500D01*
X0029350Y0044000D02*
Y0043500D01*
X0029296Y0044000D02*
Y0043500D01*
X0029242Y0044000D02*
Y0043500D01*
X0029188Y0044000D02*
Y0043500D01*
X0031000Y0043540D02*
X0028500D01*
X0031000Y0044000D02*
X0028500D01*
X0031000D02*
Y0043500D01*
X0028500D01*
Y0044000D02*
Y0043500D01*
X0030970Y0044000D02*
Y0043500D01*
X0030916Y0044000D02*
Y0043500D01*
X0030862Y0044000D02*
Y0043500D01*
X0030808Y0044000D02*
Y0043500D01*
X0030754Y0044000D02*
Y0043500D01*
X0030700Y0044000D02*
Y0043500D01*
X0030646Y0044000D02*
Y0043500D01*
X0030592Y0044000D02*
Y0043500D01*
X0030538Y0044000D02*
Y0043500D01*
X0030484Y0044000D02*
Y0043500D01*
X0030430Y0044000D02*
Y0043500D01*
X0030376Y0044000D02*
Y0043500D01*
X0030322Y0044000D02*
Y0043500D01*
X0029248Y0045400D02*
Y0044500D01*
X0029194Y0045400D02*
Y0044500D01*
X0029140Y0045400D02*
Y0044500D01*
X0030400Y0045350D02*
X0029100D01*
X0030400Y0045296D02*
X0029100D01*
X0030400Y0045242D02*
X0029100D01*
X0030400Y0045188D02*
X0029100D01*
X0030400Y0045134D02*
X0029100D01*
X0030400Y0045080D02*
X0029100D01*
X0030400Y0045026D02*
X0029100D01*
X0030400Y0044972D02*
X0029100D01*
X0030400Y0044918D02*
X0029100D01*
X0030400Y0044864D02*
X0029100D01*
X0030400Y0044810D02*
X0029100D01*
X0030400Y0044756D02*
X0029100D01*
X0030400Y0044702D02*
X0029100D01*
X0030400Y0044648D02*
X0029100D01*
X0030400Y0044594D02*
X0029100D01*
X0030274Y0045400D02*
Y0044500D01*
X0030220Y0045400D02*
Y0044500D01*
X0030166Y0045400D02*
Y0044500D01*
X0030112Y0045400D02*
Y0044500D01*
X0030058Y0045400D02*
Y0044500D01*
X0030004Y0045400D02*
Y0044500D01*
X0029950Y0045400D02*
Y0044500D01*
X0029896Y0045400D02*
Y0044500D01*
X0029842Y0045400D02*
Y0044500D01*
X0029788Y0045400D02*
Y0044500D01*
X0029734Y0045400D02*
Y0044500D01*
X0029680Y0045400D02*
Y0044500D01*
X0029626Y0045400D02*
Y0044500D01*
X0029572Y0045400D02*
Y0044500D01*
X0029518Y0045400D02*
Y0044500D01*
X0029464Y0045400D02*
Y0044500D01*
X0029410Y0045400D02*
Y0044500D01*
X0029356Y0045400D02*
Y0044500D01*
X0029302Y0045400D02*
Y0044500D01*
X0030400Y0044540D02*
X0029100D01*
Y0045400D02*
Y0045350D01*
X0030400Y0045400D02*
X0029100D01*
X0030400D02*
Y0044500D01*
X0029100D01*
Y0045350D02*
Y0044500D01*
X0030382Y0045400D02*
Y0044500D01*
X0030328Y0045400D02*
Y0044500D01*
G54D74*
G01X0015723Y0004820D02*
X0015471D01*
X0015723Y0004775D02*
X0015489D01*
X0015723Y0004730D02*
X0015505D01*
X0015723Y0004685D02*
X0015518D01*
X0015723Y0004640D02*
X0015528D01*
X0015723Y0004595D02*
X0015535D01*
X0015723Y0004550D02*
X0015540D01*
X0015723Y0004505D02*
X0015543D01*
X0015723Y0004460D02*
X0015542D01*
X0015723Y0004415D02*
X0015539D01*
X0015723Y0004370D02*
X0015533D01*
X0015723Y0004325D02*
X0015524D01*
X0015723Y0004280D02*
X0015513D01*
X0015723Y0004235D02*
X0015498D01*
X0015723Y0004190D02*
X0015481D01*
X0015723Y0004145D02*
X0015460D01*
X0015723Y0004100D02*
X0015435D01*
X0015723Y0004055D02*
X0015406D01*
X0015723Y0004010D02*
X0015373D01*
X0015723Y0003965D02*
X0015334D01*
X0015723Y0003920D02*
X0015289D01*
X0015723Y0003875D02*
X0015234D01*
X0015723Y0003830D02*
X0015168D01*
X0015723Y0003785D02*
X0015103D01*
X0015723Y0003740D02*
X0015103D01*
X0015723Y0003695D02*
X0015103D01*
X0015723Y0003650D02*
X0015103D01*
X0015723Y0003605D02*
X0015103D01*
X0015683Y0005470D02*
Y0003530D01*
X0015638Y0005480D02*
Y0003520D01*
X0015593Y0005480D02*
Y0003520D01*
X0015548Y0005480D02*
Y0003520D01*
X0015503Y0004248D02*
Y0003520D01*
X0015458Y0004141D02*
Y0003520D01*
X0015413Y0004064D02*
Y0003520D01*
X0015368Y0004003D02*
Y0003520D01*
X0015323Y0003953D02*
Y0003520D01*
X0015278Y0003910D02*
Y0003520D01*
X0015233Y0003874D02*
Y0003520D01*
X0015188Y0003842D02*
Y0003520D01*
X0015143Y0003815D02*
Y0003520D01*
Y0005480D02*
Y0005187D01*
X0015706Y0005450D02*
X0015103D01*
X0015723Y0005405D02*
X0015103D01*
X0015723Y0005360D02*
X0015103D01*
X0015723Y0005315D02*
X0015103D01*
X0015723Y0005270D02*
X0015103D01*
X0015723Y0005225D02*
X0015103D01*
X0015723Y0005180D02*
X0015155D01*
X0015723Y0005135D02*
X0015221D01*
X0015723Y0005090D02*
X0015275D01*
X0015723Y0005045D02*
X0015320D01*
X0015723Y0005000D02*
X0015360D01*
X0015723Y0004955D02*
X0015394D01*
X0015723Y0004910D02*
X0015423D01*
X0015723Y0004865D02*
X0015449D01*
X0015503Y0005480D02*
Y0004736D01*
X0015458Y0005480D02*
Y0004847D01*
X0015413Y0005480D02*
Y0004926D01*
X0015368Y0005480D02*
Y0004990D01*
X0015323Y0005480D02*
Y0005042D01*
X0015278Y0005480D02*
Y0005087D01*
X0015233Y0005480D02*
Y0005125D01*
X0015188Y0005480D02*
Y0005159D01*
X0015713Y0003560D02*
X0015103D01*
X0015113Y0003800D02*
X0015103Y0003790D01*
Y0003520D01*
X0015643D02*
X0015103D01*
X0015645D02*
X0015643D01*
X0015723Y0005400D02*
Y0003600D01*
Y0005402D02*
Y0005400D01*
X0015643Y0005480D02*
X0015103D01*
Y0005210D01*
X0015543Y0004500D02*
Y0004494D01*
X0014018Y0004816D02*
X0013771D01*
X0013999Y0004771D02*
X0013771D01*
X0013984Y0004726D02*
X0013771D01*
X0013972Y0004681D02*
X0013771D01*
X0013963Y0004636D02*
X0013771D01*
X0013956Y0004591D02*
X0013771D01*
X0013952Y0004546D02*
X0013771D01*
X0013951Y0004501D02*
X0013771D01*
X0013953Y0004456D02*
X0013771D01*
X0013957Y0004411D02*
X0013771D01*
X0013964Y0004366D02*
X0013771D01*
X0013974Y0004321D02*
X0013771D01*
X0013986Y0004276D02*
X0013771D01*
X0014001Y0004231D02*
X0013771D01*
X0014019Y0004186D02*
X0013771D01*
X0014040Y0004141D02*
X0013771D01*
X0014065Y0004096D02*
X0013771D01*
X0014094Y0004051D02*
X0013771D01*
X0014127Y0004006D02*
X0013771D01*
X0014165Y0003961D02*
X0013771D01*
X0014209Y0003916D02*
X0013771D01*
X0014261Y0003871D02*
X0013771D01*
X0014323Y0003826D02*
X0013771D01*
X0014391Y0003781D02*
X0013771D01*
X0014391Y0003736D02*
X0013771D01*
X0014391Y0003691D02*
X0013771D01*
X0014391Y0003646D02*
X0013771D01*
X0014391Y0003601D02*
X0013771D01*
X0014351Y0003809D02*
Y0003517D01*
X0014306Y0003838D02*
Y0003517D01*
X0014261Y0003871D02*
Y0003517D01*
X0014216Y0003909D02*
Y0003517D01*
X0014171Y0003954D02*
Y0003517D01*
X0014126Y0004007D02*
Y0003517D01*
X0014081Y0004070D02*
Y0003517D01*
X0014036Y0004149D02*
Y0003517D01*
X0013991Y0004260D02*
Y0003517D01*
X0013946Y0005477D02*
Y0003517D01*
X0013901Y0005477D02*
Y0003517D01*
X0013856Y0005477D02*
Y0003517D01*
X0013811Y0005467D02*
Y0003526D01*
X0013991Y0005477D02*
Y0004748D01*
X0014391Y0005446D02*
X0013788D01*
X0014391Y0005401D02*
X0013771D01*
X0014391Y0005356D02*
X0013771D01*
X0014391Y0005311D02*
X0013771D01*
X0014391Y0005266D02*
X0013771D01*
X0014391Y0005221D02*
X0013771D01*
X0014343Y0005176D02*
X0013771D01*
X0014273Y0005131D02*
X0013771D01*
X0014216Y0005086D02*
X0013771D01*
X0014169Y0005041D02*
X0013771D01*
X0014129Y0004996D02*
X0013771D01*
X0014094Y0004951D02*
X0013771D01*
X0014065Y0004906D02*
X0013771D01*
X0014039Y0004861D02*
X0013771D01*
X0014351Y0005477D02*
Y0005181D01*
X0014306Y0005477D02*
Y0005154D01*
X0014261Y0005477D02*
Y0005123D01*
X0014216Y0005477D02*
Y0005086D01*
X0014171Y0005477D02*
Y0005043D01*
X0014126Y0005477D02*
Y0004993D01*
X0014081Y0005477D02*
Y0004932D01*
X0014036Y0005477D02*
Y0004855D01*
X0014391Y0003556D02*
X0013781D01*
X0013951Y0004502D02*
Y0004497D01*
X0014391Y0003787D02*
Y0003517D01*
X0013851D01*
X0013850Y0003516D01*
X0013771Y0005397D02*
Y0003597D01*
Y0005398D02*
Y0005397D01*
X0014391Y0005477D02*
X0013851D01*
X0014391D02*
Y0005207D01*
X0014381Y0005197D01*
G01X0015645Y0003520D02*
G03X0015723Y0003598I0000000J0000078D01*
G03X0015723Y0003600I0000078J0000000D01*
Y0005402D02*
G03X0015645Y0005480I0000078J0000000D01*
G03X0015643Y0005480I0000000J0000078D01*
G01X0015543Y0004500D02*
G03X0015103Y0005210I0000820J0000017D01*
G01X0015113Y0003800D02*
G03X0015542Y0004494I0000346J0000694D01*
G01X0014381Y0005197D02*
G03X0013951Y0004502I0000346J0000695D01*
Y0004497D02*
G03X0014391Y0003787I0000821J0000017D01*
G01X0013771Y0003595D02*
G03X0013850Y0003516I0000079J0000000D01*
G01X0013771Y0003597D02*
G03X0013771Y0003595I0000079J0000002D01*
G01X0013850Y0005477D02*
G03X0013771Y0005398I0000000J0000079D01*
G01X0013851Y0005477D02*
G03X0013850Y0005477I0000001J0000079D01*
G54D75*
G01X0032006Y0014858D02*
X0030785D01*
Y0013142D01*
X0032010D02*
X0030785D01*
X0032010D02*
Y0013043D01*
X0032659D02*
X0032010D01*
X0032659Y0014957D02*
Y0013043D01*
Y0014957D02*
X0032006D01*
Y0014858D01*
X0032643Y0014957D02*
Y0013043D01*
X0032634Y0014957D02*
Y0013043D01*
X0032625Y0014957D02*
Y0013043D01*
X0032616Y0014957D02*
Y0013043D01*
X0032607Y0014957D02*
Y0013043D01*
X0032598Y0014957D02*
Y0013043D01*
X0032589Y0014957D02*
Y0013043D01*
X0032580Y0014957D02*
Y0013043D01*
X0032571Y0014957D02*
Y0013043D01*
X0032562Y0014957D02*
Y0013043D01*
X0032553Y0014957D02*
Y0013043D01*
X0032544Y0014957D02*
Y0013043D01*
X0032535Y0014957D02*
Y0013043D01*
X0032526Y0014957D02*
Y0013043D01*
X0032517Y0014957D02*
Y0013043D01*
X0032508Y0014957D02*
Y0013043D01*
X0032499Y0014957D02*
Y0013043D01*
X0032490Y0014957D02*
Y0013043D01*
X0032481Y0014957D02*
Y0013043D01*
X0032472Y0014957D02*
Y0013043D01*
X0032463Y0014957D02*
Y0013043D01*
X0032454Y0014957D02*
Y0013043D01*
X0032445Y0014957D02*
Y0013043D01*
X0032436Y0014957D02*
Y0013043D01*
X0032427Y0014957D02*
Y0013043D01*
X0032418Y0014957D02*
Y0013043D01*
X0032409Y0014957D02*
Y0013043D01*
X0032400Y0014957D02*
Y0013043D01*
X0032391Y0014957D02*
Y0013043D01*
X0032382Y0014957D02*
Y0013043D01*
X0032373Y0014957D02*
Y0013043D01*
X0032364Y0014957D02*
Y0013043D01*
X0032355Y0014957D02*
Y0013043D01*
X0032346Y0014957D02*
Y0013043D01*
X0032337Y0014957D02*
Y0013043D01*
X0032328Y0014957D02*
Y0013043D01*
X0032319Y0014957D02*
Y0013043D01*
X0032310Y0014957D02*
Y0013043D01*
X0032301Y0014957D02*
Y0013043D01*
X0032292Y0014957D02*
Y0013043D01*
X0032283Y0014957D02*
Y0013043D01*
X0032274Y0014957D02*
Y0013043D01*
X0032265Y0014957D02*
Y0013043D01*
X0032256Y0014957D02*
Y0013043D01*
X0032247Y0014957D02*
Y0013043D01*
X0032238Y0014957D02*
Y0013043D01*
X0032229Y0014957D02*
Y0013043D01*
X0032220Y0014957D02*
Y0013043D01*
X0032211Y0014957D02*
Y0013043D01*
X0032202Y0014957D02*
Y0013043D01*
X0032193Y0014957D02*
Y0013043D01*
X0032184Y0014957D02*
Y0013043D01*
X0032175Y0014957D02*
Y0013043D01*
X0032166Y0014957D02*
Y0013043D01*
X0032157Y0014957D02*
Y0013043D01*
X0032148Y0014957D02*
Y0013043D01*
X0032139Y0014957D02*
Y0013043D01*
X0032130Y0014957D02*
Y0013043D01*
X0032121Y0014957D02*
Y0013043D01*
X0032112Y0014957D02*
Y0013043D01*
X0032103Y0014957D02*
Y0013043D01*
X0032094Y0014957D02*
Y0013043D01*
X0032085Y0014957D02*
Y0013043D01*
X0032076Y0014957D02*
Y0013043D01*
X0032067Y0014957D02*
Y0013043D01*
X0032058Y0014957D02*
Y0013043D01*
X0032049Y0014957D02*
Y0013043D01*
X0032040Y0014957D02*
Y0013043D01*
X0032031Y0014957D02*
Y0013043D01*
X0032022Y0014957D02*
Y0013043D01*
X0032013Y0014957D02*
Y0013043D01*
X0032004Y0014858D02*
Y0013142D01*
X0031995Y0014858D02*
Y0013142D01*
X0031986Y0014858D02*
Y0013142D01*
X0031977Y0014858D02*
Y0013142D01*
X0031968Y0014858D02*
Y0013142D01*
X0031959Y0014858D02*
Y0013142D01*
X0031950Y0014858D02*
Y0013142D01*
X0031941Y0014858D02*
Y0013142D01*
X0031932Y0014858D02*
Y0013142D01*
X0031923Y0014858D02*
Y0013142D01*
X0031914Y0014858D02*
Y0013142D01*
X0031905Y0014858D02*
Y0013142D01*
X0031896Y0014858D02*
Y0013142D01*
X0031887Y0014858D02*
Y0013142D01*
X0031878Y0014858D02*
Y0013142D01*
X0031869Y0014858D02*
Y0013142D01*
X0031860Y0014858D02*
Y0013142D01*
X0031851Y0014858D02*
Y0013142D01*
X0031842Y0014858D02*
Y0013142D01*
X0031833Y0014858D02*
Y0013142D01*
X0031824Y0014858D02*
Y0013142D01*
X0031815Y0014858D02*
Y0013142D01*
X0031806Y0014858D02*
Y0013142D01*
X0031797Y0014858D02*
Y0013142D01*
X0031788Y0014858D02*
Y0013142D01*
X0031779Y0014858D02*
Y0013142D01*
X0031770Y0014858D02*
Y0013142D01*
X0031761Y0014858D02*
Y0013142D01*
X0031752Y0014858D02*
Y0013142D01*
X0031743Y0014858D02*
Y0013142D01*
X0031734Y0014858D02*
Y0013142D01*
X0031725Y0014858D02*
Y0013142D01*
X0031716Y0014858D02*
Y0013142D01*
X0031707Y0014858D02*
Y0013142D01*
X0031698Y0014858D02*
Y0013142D01*
X0031689Y0014858D02*
Y0013142D01*
X0031680Y0014858D02*
Y0013142D01*
X0031671Y0014858D02*
Y0013142D01*
X0031662Y0014858D02*
Y0013142D01*
X0031653Y0014858D02*
Y0013142D01*
X0031644Y0014858D02*
Y0013142D01*
X0031635Y0014858D02*
Y0013142D01*
X0031626Y0014858D02*
Y0013142D01*
X0031617Y0014858D02*
Y0013142D01*
X0031608Y0014858D02*
Y0013142D01*
X0031599Y0014858D02*
Y0013142D01*
X0031590Y0014858D02*
Y0013142D01*
X0031581Y0014858D02*
Y0013142D01*
X0031572Y0014858D02*
Y0013142D01*
X0031563Y0014858D02*
Y0013142D01*
X0031554Y0014858D02*
Y0013142D01*
X0031545Y0014858D02*
Y0013142D01*
X0031536Y0014858D02*
Y0013142D01*
X0031527Y0014858D02*
Y0013142D01*
X0031518Y0014858D02*
Y0013142D01*
X0031509Y0014858D02*
Y0013142D01*
X0031500Y0014858D02*
Y0013142D01*
X0031491Y0014858D02*
Y0013142D01*
X0031482Y0014858D02*
Y0013142D01*
X0031473Y0014858D02*
Y0013142D01*
X0031464Y0014858D02*
Y0013142D01*
X0031455Y0014858D02*
Y0013142D01*
X0031446Y0014858D02*
Y0013142D01*
X0031437Y0014858D02*
Y0013142D01*
X0031428Y0014858D02*
Y0013142D01*
X0031419Y0014858D02*
Y0013142D01*
X0031410Y0014858D02*
Y0013142D01*
X0031401Y0014858D02*
Y0013142D01*
X0031392Y0014858D02*
Y0013142D01*
X0031383Y0014858D02*
Y0013142D01*
X0031374Y0014858D02*
Y0013142D01*
X0031365Y0014858D02*
Y0013142D01*
X0031356Y0014858D02*
Y0013142D01*
X0031347Y0014858D02*
Y0013142D01*
X0031338Y0014858D02*
Y0013142D01*
X0031329Y0014858D02*
Y0013142D01*
X0031320Y0014858D02*
Y0013142D01*
X0031311Y0014858D02*
Y0013142D01*
X0031302Y0014858D02*
Y0013142D01*
X0031293Y0014858D02*
Y0013142D01*
X0031284Y0014858D02*
Y0013142D01*
X0031275Y0014858D02*
Y0013142D01*
X0031266Y0014858D02*
Y0013142D01*
X0031257Y0014858D02*
Y0013142D01*
X0031248Y0014858D02*
Y0013142D01*
X0031239Y0014858D02*
Y0013142D01*
X0031230Y0014858D02*
Y0013142D01*
X0031221Y0014858D02*
Y0013142D01*
X0031212Y0014858D02*
Y0013142D01*
X0031203Y0014858D02*
Y0013142D01*
X0031194Y0014858D02*
Y0013142D01*
X0031185Y0014858D02*
Y0013142D01*
X0031176Y0014858D02*
Y0013142D01*
X0031167Y0014858D02*
Y0013142D01*
X0031158Y0014858D02*
Y0013142D01*
X0031149Y0014858D02*
Y0013142D01*
X0031140Y0014858D02*
Y0013142D01*
X0031131Y0014858D02*
Y0013142D01*
X0031122Y0014858D02*
Y0013142D01*
X0031113Y0014858D02*
Y0013142D01*
X0031104Y0014858D02*
Y0013142D01*
X0031095Y0014858D02*
Y0013142D01*
X0031086Y0014858D02*
Y0013142D01*
X0031077Y0014858D02*
Y0013142D01*
X0031068Y0014858D02*
Y0013142D01*
X0031059Y0014858D02*
Y0013142D01*
X0031050Y0014858D02*
Y0013142D01*
X0031041Y0014858D02*
Y0013142D01*
X0031032Y0014858D02*
Y0013142D01*
X0031023Y0014858D02*
Y0013142D01*
X0031014Y0014858D02*
Y0013142D01*
X0031005Y0014858D02*
Y0013142D01*
X0030996Y0014858D02*
Y0013142D01*
X0030987Y0014858D02*
Y0013142D01*
X0030978Y0014858D02*
Y0013142D01*
X0030969Y0014858D02*
Y0013142D01*
X0030960Y0014858D02*
Y0013142D01*
X0030951Y0014858D02*
Y0013142D01*
X0030942Y0014858D02*
Y0013142D01*
X0030933Y0014858D02*
Y0013142D01*
X0030924Y0014858D02*
Y0013142D01*
X0030915Y0014858D02*
Y0013142D01*
X0030906Y0014858D02*
Y0013142D01*
X0030897Y0014858D02*
Y0013142D01*
X0030888Y0014858D02*
Y0013142D01*
X0030879Y0014858D02*
Y0013142D01*
X0030870Y0014858D02*
Y0013142D01*
X0030861Y0014858D02*
Y0013142D01*
X0030852Y0014858D02*
Y0013142D01*
X0030843Y0014858D02*
Y0013142D01*
X0030834Y0014858D02*
Y0013142D01*
X0030825Y0014858D02*
Y0013142D01*
X0030816Y0014858D02*
Y0013142D01*
X0030807Y0014858D02*
Y0013142D01*
X0030798Y0014858D02*
Y0013142D01*
X0032659Y0014946D02*
X0032006D01*
X0032659Y0014937D02*
X0032006D01*
X0032659Y0014928D02*
X0032006D01*
X0032659Y0014919D02*
X0032006D01*
X0032659Y0014910D02*
X0032006D01*
X0032659Y0014901D02*
X0032006D01*
X0032659Y0014892D02*
X0032006D01*
X0032659Y0014883D02*
X0032006D01*
X0032659Y0014874D02*
X0032006D01*
X0032659Y0014865D02*
X0032006D01*
X0032659Y0014856D02*
X0030785D01*
X0032659Y0014847D02*
X0030785D01*
X0032659Y0014838D02*
X0030785D01*
X0032659Y0014829D02*
X0030785D01*
X0032659Y0014820D02*
X0030785D01*
X0032659Y0014811D02*
X0030785D01*
X0032659Y0014802D02*
X0030785D01*
X0032659Y0014793D02*
X0030785D01*
X0032659Y0014784D02*
X0030785D01*
X0032659Y0014775D02*
X0030785D01*
X0032659Y0014766D02*
X0030785D01*
X0032659Y0014757D02*
X0030785D01*
X0032659Y0014748D02*
X0030785D01*
X0032659Y0014739D02*
X0030785D01*
X0032659Y0014730D02*
X0030785D01*
X0032659Y0014721D02*
X0030785D01*
X0032659Y0014712D02*
X0030785D01*
X0032659Y0014703D02*
X0030785D01*
X0032659Y0014694D02*
X0030785D01*
X0032659Y0014685D02*
X0030785D01*
X0032659Y0014676D02*
X0030785D01*
X0032659Y0014667D02*
X0030785D01*
X0032659Y0014658D02*
X0030785D01*
X0032659Y0014649D02*
X0030785D01*
X0032659Y0014640D02*
X0030785D01*
X0032659Y0014631D02*
X0030785D01*
X0032659Y0014622D02*
X0030785D01*
X0032659Y0014613D02*
X0030785D01*
X0032659Y0014604D02*
X0030785D01*
X0032659Y0014595D02*
X0030785D01*
X0032659Y0014586D02*
X0030785D01*
X0032659Y0014577D02*
X0030785D01*
X0032659Y0014568D02*
X0030785D01*
X0032659Y0014559D02*
X0030785D01*
X0032659Y0014550D02*
X0030785D01*
X0032659Y0014541D02*
X0030785D01*
X0032659Y0014532D02*
X0030785D01*
X0032659Y0014523D02*
X0030785D01*
X0032659Y0014514D02*
X0030785D01*
X0032659Y0014505D02*
X0030785D01*
X0032659Y0014496D02*
X0030785D01*
X0032659Y0014487D02*
X0030785D01*
X0032659Y0014478D02*
X0030785D01*
X0032659Y0014469D02*
X0030785D01*
X0032659Y0014460D02*
X0030785D01*
X0032659Y0014451D02*
X0030785D01*
X0032659Y0014442D02*
X0030785D01*
X0032659Y0014433D02*
X0030785D01*
X0032659Y0014424D02*
X0030785D01*
X0032659Y0014415D02*
X0030785D01*
X0032659Y0014406D02*
X0030785D01*
X0032659Y0014397D02*
X0030785D01*
X0032659Y0014388D02*
X0030785D01*
X0032659Y0014379D02*
X0030785D01*
X0032659Y0014370D02*
X0030785D01*
X0032659Y0014361D02*
X0030785D01*
X0032659Y0014352D02*
X0030785D01*
X0032659Y0014343D02*
X0030785D01*
X0032659Y0014334D02*
X0030785D01*
X0032659Y0014325D02*
X0030785D01*
X0032659Y0014316D02*
X0030785D01*
X0032659Y0014307D02*
X0030785D01*
X0032659Y0014298D02*
X0030785D01*
X0032659Y0014289D02*
X0030785D01*
X0032659Y0014280D02*
X0030785D01*
X0032659Y0014271D02*
X0030785D01*
X0032659Y0014262D02*
X0030785D01*
X0032659Y0014253D02*
X0030785D01*
X0032659Y0014244D02*
X0030785D01*
X0032659Y0014235D02*
X0030785D01*
X0032659Y0014226D02*
X0030785D01*
X0032659Y0014217D02*
X0030785D01*
X0032659Y0014208D02*
X0030785D01*
X0032659Y0014199D02*
X0030785D01*
X0032659Y0014190D02*
X0030785D01*
X0032659Y0014181D02*
X0030785D01*
X0032659Y0014172D02*
X0030785D01*
X0032659Y0014163D02*
X0030785D01*
X0032659Y0014154D02*
X0030785D01*
X0032659Y0014145D02*
X0030785D01*
X0032659Y0014136D02*
X0030785D01*
X0032659Y0014127D02*
X0030785D01*
X0032659Y0014118D02*
X0030785D01*
X0032659Y0014109D02*
X0030785D01*
X0032659Y0014100D02*
X0030785D01*
X0032659Y0014091D02*
X0030785D01*
X0032659Y0014082D02*
X0030785D01*
X0032659Y0014073D02*
X0030785D01*
X0032659Y0014064D02*
X0030785D01*
X0032659Y0014055D02*
X0030785D01*
X0032659Y0014046D02*
X0030785D01*
X0032659Y0014037D02*
X0030785D01*
X0032659Y0014028D02*
X0030785D01*
X0032659Y0014019D02*
X0030785D01*
X0032659Y0014010D02*
X0030785D01*
X0032659Y0014001D02*
X0030785D01*
X0032659Y0013992D02*
X0030785D01*
X0032659Y0013983D02*
X0030785D01*
X0032659Y0013974D02*
X0030785D01*
X0032659Y0013965D02*
X0030785D01*
X0032659Y0013956D02*
X0030785D01*
X0032659Y0013947D02*
X0030785D01*
X0032659Y0013938D02*
X0030785D01*
X0032659Y0013929D02*
X0030785D01*
X0032659Y0013920D02*
X0030785D01*
X0032659Y0013911D02*
X0030785D01*
X0032659Y0013902D02*
X0030785D01*
X0032659Y0013893D02*
X0030785D01*
X0032659Y0013884D02*
X0030785D01*
X0032659Y0013875D02*
X0030785D01*
X0032659Y0013866D02*
X0030785D01*
X0032659Y0013857D02*
X0030785D01*
X0032659Y0013848D02*
X0030785D01*
X0032659Y0013839D02*
X0030785D01*
X0032659Y0013830D02*
X0030785D01*
X0032659Y0013821D02*
X0030785D01*
X0032659Y0013812D02*
X0030785D01*
X0032659Y0013803D02*
X0030785D01*
X0032659Y0013794D02*
X0030785D01*
X0032659Y0013785D02*
X0030785D01*
X0032659Y0013776D02*
X0030785D01*
X0032659Y0013767D02*
X0030785D01*
X0032659Y0013758D02*
X0030785D01*
X0032659Y0013749D02*
X0030785D01*
X0032659Y0013740D02*
X0030785D01*
X0032659Y0013731D02*
X0030785D01*
X0032659Y0013722D02*
X0030785D01*
X0032659Y0013713D02*
X0030785D01*
X0032659Y0013704D02*
X0030785D01*
X0032659Y0013695D02*
X0030785D01*
X0032659Y0013686D02*
X0030785D01*
X0032659Y0013677D02*
X0030785D01*
X0032659Y0013668D02*
X0030785D01*
X0032659Y0013659D02*
X0030785D01*
X0032659Y0013650D02*
X0030785D01*
X0032659Y0013641D02*
X0030785D01*
X0032659Y0013632D02*
X0030785D01*
X0032659Y0013623D02*
X0030785D01*
X0032659Y0013614D02*
X0030785D01*
X0032659Y0013605D02*
X0030785D01*
X0032659Y0013596D02*
X0030785D01*
X0032659Y0013587D02*
X0030785D01*
X0032659Y0013578D02*
X0030785D01*
X0032659Y0013569D02*
X0030785D01*
X0032659Y0013560D02*
X0030785D01*
X0032659Y0013551D02*
X0030785D01*
X0032659Y0013542D02*
X0030785D01*
X0032659Y0013533D02*
X0030785D01*
X0032659Y0013524D02*
X0030785D01*
X0032659Y0013515D02*
X0030785D01*
X0032659Y0013506D02*
X0030785D01*
X0032659Y0013497D02*
X0030785D01*
X0032659Y0013488D02*
X0030785D01*
X0032659Y0013479D02*
X0030785D01*
X0032659Y0013470D02*
X0030785D01*
X0032659Y0013461D02*
X0030785D01*
X0032659Y0013452D02*
X0030785D01*
X0032659Y0013443D02*
X0030785D01*
X0032659Y0013434D02*
X0030785D01*
X0032659Y0013425D02*
X0030785D01*
X0032659Y0013416D02*
X0030785D01*
X0032659Y0013407D02*
X0030785D01*
X0032659Y0013398D02*
X0030785D01*
X0032659Y0013389D02*
X0030785D01*
X0032659Y0013380D02*
X0030785D01*
X0032659Y0013371D02*
X0030785D01*
X0032659Y0013362D02*
X0030785D01*
X0032659Y0013353D02*
X0030785D01*
X0032659Y0013344D02*
X0030785D01*
X0032659Y0013335D02*
X0030785D01*
X0032659Y0013326D02*
X0030785D01*
X0032659Y0013317D02*
X0030785D01*
X0032659Y0013308D02*
X0030785D01*
X0032659Y0013299D02*
X0030785D01*
X0032659Y0013290D02*
X0030785D01*
X0032659Y0013281D02*
X0030785D01*
X0032659Y0013272D02*
X0030785D01*
X0032659Y0013263D02*
X0030785D01*
X0032659Y0013254D02*
X0030785D01*
X0032659Y0013245D02*
X0030785D01*
X0032659Y0013236D02*
X0030785D01*
X0032659Y0013227D02*
X0030785D01*
X0032659Y0013218D02*
X0030785D01*
X0032659Y0013209D02*
X0030785D01*
X0032659Y0013200D02*
X0030785D01*
X0032659Y0013191D02*
X0030785D01*
X0032659Y0013182D02*
X0030785D01*
X0032659Y0013173D02*
X0030785D01*
X0032659Y0013164D02*
X0030785D01*
X0032659Y0013155D02*
X0030785D01*
X0032659Y0013146D02*
X0030785D01*
X0032659Y0013137D02*
X0032010D01*
X0032659Y0013128D02*
X0032010D01*
X0032659Y0013119D02*
X0032010D01*
X0032659Y0013110D02*
X0032010D01*
X0032659Y0013101D02*
X0032010D01*
X0032659Y0013092D02*
X0032010D01*
X0032659Y0013083D02*
X0032010D01*
X0032659Y0013074D02*
X0032010D01*
X0032659Y0013065D02*
X0032010D01*
X0032659Y0013056D02*
X0032010D01*
G54D12*
X0011175Y0010750D03*
X0014325D03*
G54D13*
X0009500Y0006030D03*
Y0005470D03*
X0010250Y0007530D03*
Y0006970D03*
X0019250Y0010530D03*
Y0009970D03*
X0021250Y0010530D03*
Y0009970D03*
X0023250Y0010530D03*
Y0009970D03*
X0021500Y0013780D03*
Y0013220D03*
X0022250Y0013780D03*
Y0013220D03*
X0023000Y0013780D03*
Y0013220D03*
X0021500Y0016280D03*
Y0015720D03*
X0020750Y0016280D03*
Y0015720D03*
X0026000Y0013780D03*
Y0013220D03*
X0026750Y0013780D03*
Y0013220D03*
X0025250Y0013780D03*
Y0013220D03*
X0023750Y0013780D03*
Y0013220D03*
X0024500Y0013780D03*
Y0013220D03*
X0026500Y0017720D03*
Y0018280D03*
X0010500Y0001720D03*
Y0002280D03*
X0009750Y0001720D03*
Y0002280D03*
X0027250Y0015220D03*
Y0015780D03*
Y0018280D03*
Y0017720D03*
Y0017030D03*
Y0016470D03*
X0026500Y0018970D03*
Y0019530D03*
X0019500Y0018970D03*
Y0019530D03*
X0027250D03*
Y0018970D03*
X0020250Y0019530D03*
Y0018970D03*
X0021250D03*
Y0019530D03*
X0024750Y0018970D03*
Y0019530D03*
X0023000Y0018970D03*
Y0019530D03*
X0022000D03*
Y0018970D03*
X0025500Y0019530D03*
Y0018970D03*
X0023750Y0019530D03*
Y0018970D03*
X0011500Y0028030D03*
Y0027470D03*
X0007250D03*
Y0028030D03*
X0008000Y0027470D03*
Y0028030D03*
X0008750D03*
Y0027470D03*
X0027250Y0005220D03*
Y0005780D03*
Y0006470D03*
Y0007030D03*
X0024750Y0008220D03*
Y0008780D03*
X0027250Y0008280D03*
Y0007720D03*
Y0004530D03*
Y0003970D03*
X0025250Y0010530D03*
Y0009970D03*
X0029250Y0013220D03*
Y0013780D03*
X0027500Y0010530D03*
Y0009970D03*
X0016000Y0012470D03*
Y0013030D03*
X0026500Y0007720D03*
Y0008280D03*
X0015250Y0013030D03*
Y0012470D03*
X0017750Y0018720D03*
Y0019280D03*
X0013250Y0018720D03*
Y0019280D03*
X0010250Y0005470D03*
Y0006030D03*
X0011250Y0002280D03*
Y0001720D03*
X0033500Y0034220D03*
Y0034780D03*
Y0044030D03*
Y0043470D03*
X0023000Y0024280D03*
Y0023720D03*
X0025750Y0008780D03*
Y0008220D03*
X0020750Y0007720D03*
Y0008280D03*
X0027000Y0001280D03*
Y0000720D03*
X0024500Y0001280D03*
Y0000720D03*
X0027750Y0013220D03*
Y0013780D03*
X0028500Y0013220D03*
Y0013780D03*
G54D14*
X0027500Y0011350D03*
Y0012150D03*
X0026750D03*
Y0011350D03*
X0026000Y0012150D03*
Y0011350D03*
X0006500Y0026850D03*
Y0027650D03*
X0026750Y0010650D03*
Y0009850D03*
X0026000Y0010650D03*
Y0009850D03*
X0009500Y0007650D03*
Y0006850D03*
X0009750Y-0000650D03*
Y0000150D03*
X0016500Y0004650D03*
Y0003850D03*
X0012500Y0002400D03*
Y0001600D03*
X0028250Y0015150D03*
Y0014350D03*
X0020250Y-0001400D03*
Y-0000600D03*
X0030250Y0011350D03*
Y0012150D03*
G54D15*
X0011500Y0006750D03*
Y0008250D03*
X0008250Y0003000D03*
Y0004500D03*
X0017000Y0045750D03*
Y0047250D03*
G54D16*
X0009780Y0014500D03*
X0009220D03*
X0008970Y0012750D03*
X0009530D03*
X0011220Y0019750D03*
X0011780D03*
Y0019000D03*
X0011220D03*
X0011030Y0015250D03*
X0010470D03*
X0027970Y0024500D03*
X0028530D03*
X0027970Y0026250D03*
X0028530D03*
X0027970Y0027000D03*
X0028530D03*
X0027970Y0027750D03*
X0028530D03*
X0027970Y0028500D03*
X0028530D03*
X0020030Y0034750D03*
X0019470D03*
X0018280Y0028000D03*
X0017720D03*
X0018280Y0030250D03*
X0017720D03*
X0018280Y0034500D03*
X0017720D03*
X0018280Y0039000D03*
X0017720D03*
X0018280Y0032250D03*
X0017720D03*
X0018280Y0036750D03*
X0017720D03*
X0018280Y0041250D03*
X0017720D03*
X0006220Y0019250D03*
X0006780D03*
Y0018500D03*
X0006220D03*
X0004720Y0019250D03*
X0005280D03*
X0002970D03*
X0003530D03*
X0002970Y0020250D03*
X0003530D03*
X0006220Y0020000D03*
X0006780D03*
X0004720Y0018500D03*
X0005280D03*
X0006220Y0020750D03*
X0006780D03*
X-0000030Y0017000D03*
X0000530D03*
Y0016250D03*
X-0000030D03*
X0000530Y0015500D03*
X-0000030D03*
X0006220Y0016000D03*
X0006780D03*
X0001470Y0019250D03*
X0002030D03*
X-0000030D03*
X0000530D03*
X0001470Y0018500D03*
X0002030D03*
X0006220Y0015250D03*
X0006780D03*
X0003220D03*
X0003780D03*
X-0000030Y0018500D03*
X0000530D03*
X0005030Y0037750D03*
X0004470D03*
X0006780Y0011500D03*
X0006220D03*
X0006780Y0012250D03*
X0006220D03*
X0004720Y0013750D03*
X0005280D03*
X0003220D03*
X0003780D03*
X0006220D03*
X0006780D03*
Y0013000D03*
X0006220D03*
X0003220Y0014500D03*
X0003780D03*
X0001780Y0010750D03*
X0001220D03*
X0006220D03*
X0006780D03*
X-0000030Y0011000D03*
X0000530D03*
X-0000030Y0009500D03*
X0000530D03*
X0001720Y0013750D03*
X0002280D03*
X0006220Y0010000D03*
X0006780D03*
X0001780D03*
X0001220D03*
X-0000030Y0013250D03*
X0000530D03*
X0001720Y0013000D03*
X0002280D03*
X-0000030Y0014000D03*
X0000530D03*
X0005030Y0040250D03*
X0004470D03*
X0004720Y0025250D03*
X0005280D03*
X0003220D03*
X0003780D03*
X0006220D03*
X0006780D03*
X0004720Y0024250D03*
X0005280D03*
X0003220Y0026250D03*
X0003780D03*
X0000530Y0021250D03*
X-0000030D03*
X0002030D03*
X0001470D03*
X-0000030Y0022000D03*
X0000530D03*
X0006220D03*
X0006780D03*
X0001970Y0026250D03*
X0002530D03*
X0006220Y0022750D03*
X0006780D03*
X0001970Y0025250D03*
X0002530D03*
X-0000030Y0024250D03*
X0000530D03*
X0001970D03*
X0002530D03*
X0004970Y0021250D03*
X0005530D03*
X0003220D03*
X0003780D03*
X-0000030Y0023500D03*
X0000530D03*
X0003530Y0042750D03*
X0002970D03*
X0012970Y0042500D03*
X0013530D03*
X0017720Y0043250D03*
X0018280D03*
X0011720Y0014500D03*
X0012280D03*
X0011780Y0018250D03*
X0011220D03*
X0011780Y0017500D03*
X0011220D03*
X0012280Y0015250D03*
X0011720D03*
X0018970Y0015750D03*
X0019530D03*
X0011030Y0014500D03*
X0010470D03*
X0025720Y0033000D03*
X0026280D03*
X0025720Y0042750D03*
X0026280D03*
X0005280Y0020000D03*
X0004720D03*
X0003530Y0018500D03*
X0002970D03*
X0006780Y0017000D03*
X0006220D03*
X0006780Y0017750D03*
X0006220D03*
X0000530Y0020250D03*
X-0000030D03*
X0000530Y0017750D03*
X-0000030D03*
X0005280Y0014500D03*
X0004720D03*
X0003780Y0013000D03*
X0003220D03*
X0000530Y0011750D03*
X-0000030D03*
X0000530Y0010250D03*
X-0000030D03*
X0000530Y0014750D03*
X-0000030D03*
X0000530Y0012500D03*
X-0000030D03*
X0005280Y0026250D03*
X0004720D03*
X0003780Y0024250D03*
X0003220D03*
X0000530Y0026250D03*
X-0000030D03*
X0006780Y0023500D03*
X0006220D03*
X0000530Y0025250D03*
X-0000030D03*
X0000530Y0022750D03*
X-0000030D03*
X0020780Y0003500D03*
X0020220D03*
X0022220Y0045000D03*
X0022780D03*
X0019280D03*
X0018720D03*
X0019280Y0046000D03*
X0018720D03*
X0022220D03*
X0022780D03*
G54D17*
X0019746Y0008000D03*
X0016754D03*
G54D18*
X0031484Y0037250D03*
X0029516D03*
X0029984Y0047500D03*
X0028016D03*
G54D19*
X0021090Y0036500D03*
X0022410D03*
Y0035250D03*
X0021090D03*
X0024840Y0034000D03*
X0026160D03*
X0024840Y0030000D03*
X0026160D03*
X0024840Y0031250D03*
X0026160D03*
X0025590Y0046500D03*
X0026910D03*
X0024840Y0039000D03*
X0026160D03*
X0024840Y0043750D03*
X0026160D03*
X0024840Y0040250D03*
X0026160D03*
X0024840Y0041500D03*
X0026160D03*
X0019090Y0029750D03*
X0020410D03*
X0022410Y0034000D03*
X0021090D03*
X0020410Y0031000D03*
X0019090D03*
X0012340Y0028000D03*
X0013660D03*
X0012340Y0030250D03*
X0013660D03*
X0012340Y0034500D03*
X0013660D03*
X0012340Y0039000D03*
X0013660D03*
X0012340Y0032250D03*
X0013660D03*
X0012340Y0036750D03*
X0013660D03*
X0012340Y0041000D03*
X0013660D03*
X0011660Y0016500D03*
X0010340D03*
X0026160Y0035250D03*
X0024840D03*
X0026160Y0045000D03*
X0024840D03*
G54D20*
X0032398Y0022000D03*
X0029602D03*
G54D21*
X0011750Y-0001096D03*
Y0000596D03*
G54D22*
X0012500Y0003561D03*
Y0004939D03*
G54D23*
X0025350Y0036250D03*
X0026150D03*
X0024900Y0042750D03*
X0024100D03*
X0008900Y0013500D03*
X0008100D03*
X0031400Y0024500D03*
X0030600D03*
X0031400Y0025500D03*
X0030600D03*
X0031400Y0026500D03*
X0030600D03*
X0031400Y0027250D03*
X0030600D03*
X0031400Y0028000D03*
X0030600D03*
X0020150Y0034000D03*
X0019350D03*
X0012400Y0013750D03*
X0011600D03*
G54D24*
X0009250Y0011050D03*
X0009650Y0011950D03*
X0008850D03*
X0027250Y0021450D03*
X0026850Y0020550D03*
X0027650D03*
X0020250Y0021450D03*
X0019850Y0020550D03*
X0020650D03*
X0022000Y0021450D03*
X0021600Y0020550D03*
X0022400D03*
X0025500Y0021450D03*
X0025100Y0020550D03*
X0025900D03*
X0023750Y0021450D03*
X0023350Y0020550D03*
X0024150D03*
X0033250Y0037800D03*
X0033650Y0038700D03*
X0032850D03*
X0025750Y0001700D03*
X0025350Y0000800D03*
X0026150D03*
G54D25*
X0011500Y0020880D03*
Y0022620D03*
X0005500Y0045370D03*
Y0043630D03*
X0007500Y0045370D03*
Y0043630D03*
X0009750Y0045370D03*
Y0043630D03*
X0018750Y0004380D03*
Y0006120D03*
G54D26*
X0025106Y0037000D03*
X0025894D03*
X0026356D03*
X0027144D03*
X0024144Y0045000D03*
X0023356D03*
Y0046000D03*
X0024144D03*
X0013856Y0029000D03*
X0014644D03*
X0013856Y0031250D03*
X0014644D03*
X0013856Y0033250D03*
X0014644D03*
X0013856Y0035500D03*
X0014644D03*
X0013856Y0037750D03*
X0014644D03*
X0013856Y0040000D03*
X0014644D03*
X0013606Y0027000D03*
X0014394D03*
X0012356Y0029000D03*
X0013144D03*
X0012356Y0033250D03*
X0013144D03*
X0012356Y0037750D03*
X0013144D03*
X0012356Y0031250D03*
X0013144D03*
X0012356Y0035500D03*
X0013144D03*
X0012356Y0040000D03*
X0013144D03*
G54D27*
X0028750Y0001245D03*
Y0003755D03*
G54D28*
X0031484Y0007984D03*
X0029516D03*
X0028531Y0007000D03*
X0029516Y0006016D03*
X0031484D03*
X0030500Y0007000D03*
G54D29*
X0023250Y-0001000D03*
X0022463D03*
X0021675D03*
X0020750Y0048250D03*
X0021537D03*
X0022325D03*
X0026325Y0048000D03*
X0025537D03*
X0028500Y-0001000D03*
X0027713D03*
X0026925D03*
X0026138D03*
X0025350D03*
X0000500Y0002500D03*
X0031000Y0048500D03*
X0005250Y0047750D03*
G54D30*
X0014116Y0047600D03*
X0008584D03*
G54D31*
X0009480Y0046852D03*
X0009677D03*
X0009874D03*
X0010070D03*
X0010267D03*
X0010464D03*
X0010661D03*
X0010858D03*
X0011055D03*
X0011251D03*
X0011448D03*
X0011645D03*
X0011842D03*
X0012039D03*
X0012236D03*
X0012433D03*
X0012629D03*
X0012826D03*
X0013023D03*
X0013220D03*
G54D32*
X0024750Y0048000D03*
G54D33*
X0009500Y0022750D03*
Y0023750D03*
Y0024750D03*
X0008500Y0025250D03*
Y0024250D03*
Y0023250D03*
Y0022250D03*
G54D34*
X0009500Y0021750D03*
G54D35*
X0008750Y0018537D03*
Y0019325D03*
G54D36*
Y0017750D03*
G54D37*
X0010750Y0030000D03*
X0009750D03*
X0008750D03*
X0010750Y0036750D03*
X0009750D03*
X0008750D03*
X0010750Y0032250D03*
X0009750D03*
X0008750D03*
X0010750Y0039000D03*
X0009750D03*
X0008750D03*
X0010750Y0034500D03*
X0009750D03*
X0008750D03*
X0010750Y0041250D03*
X0009750D03*
X0008750D03*
X0023500Y0035000D03*
Y0039000D03*
Y0041000D03*
X0015000Y0023250D03*
Y0024250D03*
X0014000D03*
Y0023250D03*
Y0022250D03*
G54D38*
Y0001750D03*
X0023500Y0034000D03*
X0015000Y0022250D03*
G54D39*
X0025303Y0003600D03*
Y0002400D03*
X0025697D03*
Y0003600D03*
G54D40*
X0021537Y0045126D03*
Y0045874D03*
X0019963D03*
Y0045126D03*
G54D41*
X0018500Y0003271D03*
Y-0000271D03*
G54D45*
X0018300Y0011750D03*
X0019200Y0011350D03*
Y0012150D03*
X0020300Y0011750D03*
X0021200Y0011350D03*
Y0012150D03*
X0022300Y0011750D03*
X0023200Y0011350D03*
Y0012150D03*
X0024950Y0026250D03*
X0024050Y0026650D03*
Y0025850D03*
X0026950Y0026250D03*
X0026050Y0026650D03*
Y0025850D03*
X0022950Y0026250D03*
X0022050Y0026650D03*
Y0025850D03*
X0019300Y0039250D03*
X0020200Y0038850D03*
Y0039650D03*
X0022800Y0028000D03*
X0023700Y0027600D03*
Y0028400D03*
X0021950Y0024000D03*
X0021050Y0024400D03*
Y0023600D03*
X0020800Y0028000D03*
X0021700Y0027600D03*
Y0028400D03*
X0020050Y0032500D03*
X0020950Y0032100D03*
Y0032900D03*
X0022050Y0032500D03*
X0022950Y0032100D03*
Y0032900D03*
X0009550Y0027750D03*
X0010450Y0027350D03*
Y0028150D03*
X0017950Y0010000D03*
X0017050Y0010400D03*
Y0009600D03*
X0021550Y0008000D03*
X0022450Y0007600D03*
Y0008400D03*
X0024300Y0011750D03*
X0025200Y0011350D03*
Y0012150D03*
G54D46*
X0032000Y0010207D03*
Y0012293D03*
G54D47*
X0033500Y0032910D03*
Y0031590D03*
X0019750Y0023590D03*
Y0024910D03*
X0025000Y0028910D03*
Y0027590D03*
X0021000Y0026660D03*
Y0025340D03*
X0015500Y0048410D03*
Y0047090D03*
X0018500Y0024910D03*
Y0023590D03*
X0017250Y0024910D03*
Y0023590D03*
X0017000Y0011340D03*
Y0012660D03*
X0021750Y0003410D03*
Y0002090D03*
X0023500Y0007590D03*
Y0008910D03*
X0023250Y0006410D03*
Y0005090D03*
Y0004160D03*
Y0002840D03*
G54D48*
X0005813Y0029500D03*
X0003687D03*
X0005813Y0034000D03*
X0003687D03*
X0005813Y0039000D03*
X0003687D03*
X0005813Y0031750D03*
X0003687D03*
X0005813Y0036500D03*
X0003687D03*
X0005813Y0041500D03*
X0003687D03*
G54D51*
X0001870Y0029500D03*
X0000130D03*
X0001870Y0034000D03*
X0000130D03*
X0001870Y0039000D03*
X0000130D03*
X0001870Y0031750D03*
X0000130D03*
X0001870Y0036500D03*
X0000130D03*
X0001870Y0041500D03*
X0000130D03*
G54D52*
X0028500Y0010250D03*
X0028697D03*
X0028894D03*
X0029090D03*
X0029287D03*
Y0011943D03*
X0029090D03*
X0028894D03*
X0028697D03*
X0028500D03*
G54D53*
X0014510Y0028000D03*
Y0027500D03*
X0016990D03*
Y0028000D03*
X0014510Y0030250D03*
Y0029750D03*
X0016990D03*
Y0030250D03*
X0014510Y0034500D03*
Y0034000D03*
X0016990D03*
Y0034500D03*
X0014510Y0039000D03*
Y0038500D03*
X0016990D03*
Y0039000D03*
X0014510Y0032250D03*
Y0031750D03*
X0016990D03*
Y0032250D03*
X0014510Y0036750D03*
Y0036250D03*
X0016990D03*
Y0036750D03*
X0014510Y0041250D03*
Y0040750D03*
X0016990D03*
Y0041250D03*
X0014510Y0043250D03*
Y0042750D03*
X0016990D03*
Y0043250D03*
G54D55*
X0020250Y0004437D03*
X0020750D03*
X0021250D03*
X0021750D03*
Y0006563D03*
X0021250D03*
X0020750D03*
X0020250D03*
G54D56*
X0026000Y0017250D03*
X0025500D03*
X0025000D03*
X0024500D03*
X0024000D03*
X0023500D03*
X0023000D03*
X0022500D03*
Y0014850D03*
X0023000D03*
X0023500D03*
X0024000D03*
X0024500D03*
X0025000D03*
X0025500D03*
X0026000D03*
X0023750Y0022500D03*
X0024250D03*
X0024750D03*
X0025250D03*
X0025750D03*
X0026250D03*
X0026750D03*
X0027250D03*
Y0024900D03*
X0026750D03*
X0026250D03*
X0025750D03*
X0025250D03*
X0024750D03*
X0024250D03*
X0023750D03*
X0026250Y0006750D03*
X0025750D03*
X0025250D03*
X0024750D03*
Y0004350D03*
X0025250D03*
X0025750D03*
X0026250D03*
G54D57*
X0002500Y0017750D03*
Y0017494D03*
Y0017238D03*
Y0016982D03*
Y0016726D03*
Y0016470D03*
Y0016215D03*
X0005098D03*
Y0016470D03*
Y0016726D03*
Y0016982D03*
Y0017238D03*
Y0017494D03*
Y0017750D03*
X0002500Y0012000D03*
Y0011744D03*
Y0011488D03*
Y0011232D03*
Y0010976D03*
Y0010720D03*
Y0010465D03*
X0005098D03*
Y0010720D03*
Y0010976D03*
Y0011232D03*
Y0011488D03*
Y0011744D03*
Y0012000D03*
X0002500Y0023500D03*
Y0023244D03*
Y0022988D03*
Y0022732D03*
Y0022476D03*
Y0022220D03*
Y0021965D03*
X0005098D03*
Y0022220D03*
Y0022476D03*
Y0022732D03*
Y0022988D03*
Y0023244D03*
Y0023500D03*
G54D58*
X0017148Y0026750D03*
Y0025750D03*
X0019352D03*
Y0026750D03*
X0021398Y0031000D03*
Y0030000D03*
X0023602D03*
Y0031000D03*
G54D60*
X0027053Y0034500D03*
Y0034000D03*
Y0033500D03*
Y0033000D03*
Y0032500D03*
Y0032000D03*
Y0031500D03*
Y0031000D03*
Y0030500D03*
Y0030000D03*
X0032447D03*
Y0030500D03*
Y0031000D03*
Y0031500D03*
Y0032000D03*
Y0032500D03*
Y0033000D03*
Y0033500D03*
Y0034000D03*
Y0034500D03*
X0027053Y0044500D03*
Y0044000D03*
Y0043500D03*
Y0043000D03*
Y0042500D03*
Y0042000D03*
Y0041500D03*
Y0041000D03*
Y0040500D03*
Y0040000D03*
X0032447D03*
Y0040500D03*
Y0041000D03*
Y0041500D03*
Y0042000D03*
Y0042500D03*
Y0043000D03*
Y0043500D03*
Y0044000D03*
Y0044500D03*
G54D61*
X0028250Y0018750D03*
Y0016750D03*
Y0017750D03*
G54D62*
X0031525D03*
G54D63*
X0014000Y0000750D03*
Y-0000250D03*
G54D64*
X0008250Y0005750D03*
Y0007750D03*
Y0006750D03*
Y-0000250D03*
Y0001750D03*
Y0000750D03*
G54D65*
X0003750Y0006750D03*
Y0000750D03*
G54D66*
X0015550Y0007250D03*
G54D67*
X0012950Y0008150D03*
Y0007250D03*
Y0006350D03*
G54D68*
X0017735Y0015030D03*
Y0015227D03*
Y0015424D03*
Y0015818D03*
Y0016015D03*
Y0016212D03*
Y0016409D03*
Y0016606D03*
Y0016803D03*
Y0017000D03*
Y0017197D03*
Y0017394D03*
Y0017788D03*
Y0017985D03*
X0013220D03*
Y0017591D03*
Y0017394D03*
Y0017197D03*
Y0017000D03*
Y0016803D03*
Y0016606D03*
Y0016409D03*
Y0016212D03*
Y0016015D03*
Y0015621D03*
Y0015424D03*
Y0015227D03*
Y0015030D03*
G54D69*
X0017735Y0015621D03*
Y0017591D03*
X0013220Y0017788D03*
Y0015818D03*
G54D70*
X0014197Y0014250D03*
X0014394D03*
X0014591D03*
X0014788D03*
X0014985D03*
X0015182D03*
X0015379D03*
X0015576D03*
X0015970D03*
X0016167D03*
X0016364D03*
X0016561D03*
X0016758D03*
X0016955D03*
Y0018765D03*
X0016758D03*
X0016561D03*
X0016364D03*
X0016167D03*
X0015970D03*
X0015773D03*
X0015379D03*
X0015182D03*
X0014985D03*
X0014788D03*
X0014591D03*
X0014394D03*
X0014197D03*
X0014000D03*
G54D71*
Y0014250D03*
X0015773D03*
X0015576Y0018765D03*
G54D89*
X0030177Y0014750D03*
Y0014250D03*
Y0013750D03*
Y0013250D03*
G54D90*
X0010750Y0045157D03*
Y0044842D03*
X0016000Y0045157D03*
Y0044842D03*
X0011500Y0045157D03*
Y0044842D03*
X0012250Y0045157D03*
Y0044842D03*
X0013000Y0045157D03*
Y0044842D03*
X0013750Y0045157D03*
Y0044842D03*
X0014500Y0045157D03*
Y0044842D03*
X0015250Y0045157D03*
Y0044842D03*
G54D91*
X0007657Y0046500D03*
X0007342D03*
X0013657Y0043250D03*
X0013342D03*
M02*
