*
G04 Mass Parameters ***
*
G04 Image ***
*
%IND:\UTENTI\00.LAVORI IN CORSO\METALTRONICA\23-325-0\23-325-0.SMB*%
%ICAS*%
%MOIN*%
%IPPOS*%
%ASAXBY*%
G74*%FSLAN2X34Y34*%
*
G04 Aperture Definitions ***
*
%ADD10C,0.1260*%
%ADD11C,0.0394*%
%ADD12R,0.1378X0.0787*%
%ADD13R,0.0380X0.0320*%
%ADD14R,0.0501X0.0404*%
%ADD15R,0.1100X0.0850*%
%ADD16R,0.0320X0.0380*%
%ADD17R,0.1060X0.1180*%
%ADD18R,0.1260X0.0630*%
%ADD19R,0.0400X0.0710*%
%ADD20R,0.1575X0.0787*%
%ADD21R,0.0630X0.1102*%
%ADD22R,0.0630X0.0984*%
%ADD23R,0.0404X0.0501*%
%ADD24R,0.0400X0.0500*%
%ADD25R,0.1080X0.0850*%
%ADD26R,0.0315X0.0197*%
%ADD27R,0.1500X0.1670*%
%ADD28C,0.1000*%
%ADD29C,0.0590*%
%ADD30R,0.0649X0.0512*%
%ADD31R,0.0118X0.0394*%
%ADD32R,0.0590X0.0590*%
%ADD33C,0.0630*%
%ADD34R,0.0630X0.0630*%
%ADD35C,0.0512*%
%ADD36R,0.0512X0.0512*%
%ADD37C,0.0787*%
%ADD38R,0.0787X0.0787*%
%ADD39R,0.0236X0.0413*%
%ADD40R,0.0197X0.0197*%
%ADD41R,0.1417X0.0708*%
%ADD42C,0.0187*%
%ADD43R,0.0354X0.0236*%
%ADD44R,0.0453X0.0275*%
%ADD45R,0.0500X0.0400*%
%ADD46R,0.1181X0.0590*%
%ADD47R,0.0710X0.0400*%
%ADD48R,0.0866X0.0630*%
%ADD49R,0.0276X0.0197*%
%ADD50R,0.0197X0.0276*%
%ADD51R,0.0850X0.1080*%
%ADD52R,0.0118X0.0571*%
%ADD53R,0.0512X0.0354*%
%ADD54C,0.0236*%
%ADD55R,0.0236X0.0610*%
%ADD56O,0.0256X0.0650*%
%ADD57O,0.0590X0.0118*%
%ADD58R,0.0512X0.0236*%
%ADD59C,0.0400*%
%ADD60R,0.0669X0.0276*%
%ADD61R,0.0850X0.0420*%
%ADD62R,0.4100X0.4250*%
%ADD63C,0.0800*%
%ADD64R,0.1500X0.0820*%
%ADD65R,0.3500X0.4500*%
%ADD66R,0.0680X0.1580*%
%ADD67R,0.0680X0.0550*%
%ADD68O,0.0700X0.0110*%
%ADD69R,0.0700X0.0110*%
%ADD70O,0.0110X0.0700*%
%ADD71R,0.0110X0.0700*%
%ADD72C,0.0100*%
%ADD73C,0.0060*%
%ADD74C,0.0050*%
%ADD75C,0.0010*%
%ADD76C,0.0500*%
%ADD77C,0.0236*%
%ADD78C,0.0250*%
%ADD79C,0.0110*%
%ADD80C,0.0300*%
%ADD81C,0.0120*%
%ADD82C,0.0150*%
%ADD83C,0.0600*%
%ADD84C,0.0400*%
%ADD85C,0.0800*%
%ADD86C,0.0080*%
%ADD87C,0.0236*%
%ADD88C,0.0236*%
%ADD89R,0.0512X0.0334*%
%ADD90R,0.0315X0.0236*%
%ADD91R,0.0236X0.0315*%
*
G04 Plot Data ***
*
G54D72*
G01X0032520Y0044030D02*
Y0040200D01*
X0032430Y0044120D02*
Y0040200D01*
X0032340Y0044210D02*
Y0040200D01*
X0032250Y0044300D02*
Y0040200D01*
X0032160Y0044390D02*
Y0040200D01*
X0032070Y0044480D02*
Y0040200D01*
X0031980Y0044570D02*
Y0040200D01*
X0027390Y0038450D02*
Y0035400D01*
X0027300Y0038450D02*
Y0035400D01*
X0027210Y0038450D02*
Y0035400D01*
X0027120Y0038450D02*
Y0035400D01*
X0027030Y0038450D02*
Y0035400D01*
X0026940Y0038450D02*
Y0035400D01*
X0026850Y0038450D02*
Y0035400D01*
X0026760Y0038450D02*
Y0035400D01*
X0026670Y0038450D02*
Y0035400D01*
X0026580Y0038450D02*
Y0035400D01*
X0026490Y0038450D02*
Y0035400D01*
X0032540Y0044010D02*
X0028000D01*
X0031950Y0039150D02*
X0027400D01*
X0031950Y0034290D02*
X0027450D01*
X0028000Y0031650D02*
Y0029300D01*
Y0031650D02*
X0026450D01*
Y0034200D02*
Y0031650D01*
X0027450Y0034200D02*
X0026450D01*
X0027450Y0035400D02*
Y0034200D01*
Y0035400D02*
X0026450D01*
Y0038450D02*
Y0035400D01*
X0027400Y0038450D02*
X0026450D01*
X0027400Y0040500D02*
Y0038450D01*
X0028000Y0040500D02*
X0027400D01*
X0028000Y0048750D02*
Y0040500D01*
X0030850Y0048750D02*
X0028000D01*
X0030850D02*
Y0045700D01*
X0032600Y0043950D01*
Y0040200D01*
X0031950D01*
Y0038150D01*
X0032600D02*
X0031950D01*
X0032600D02*
Y0035550D01*
X0031950D01*
Y0029300D01*
X0028000D01*
X0032520Y0038150D02*
Y0035550D01*
X0032430Y0038150D02*
Y0035550D01*
X0032340Y0038150D02*
Y0035550D01*
X0032250Y0038150D02*
Y0035550D01*
X0032160Y0038150D02*
Y0035550D01*
X0032070Y0038150D02*
Y0035550D01*
X0031980Y0038150D02*
Y0035550D01*
X0031890Y0044660D02*
Y0029300D01*
X0031800Y0044750D02*
Y0029300D01*
X0031710Y0044840D02*
Y0029300D01*
X0031620Y0044930D02*
Y0029300D01*
X0031530Y0045020D02*
Y0029300D01*
X0031440Y0045110D02*
Y0029300D01*
X0031350Y0045200D02*
Y0029300D01*
X0031260Y0045290D02*
Y0029300D01*
X0031170Y0045380D02*
Y0029300D01*
X0031080Y0045470D02*
Y0029300D01*
X0030990Y0045560D02*
Y0029300D01*
X0030900Y0045650D02*
Y0029300D01*
X0030810Y0048750D02*
Y0029300D01*
X0030720Y0048750D02*
Y0029300D01*
X0030630Y0048750D02*
Y0029300D01*
X0030540Y0048750D02*
Y0029300D01*
X0030450Y0048750D02*
Y0029300D01*
X0030360Y0048750D02*
Y0029300D01*
X0030270Y0048750D02*
Y0029300D01*
X0030180Y0048750D02*
Y0029300D01*
X0030090Y0048750D02*
Y0029300D01*
X0030000Y0048750D02*
Y0029300D01*
X0029910Y0048750D02*
Y0029300D01*
X0029820Y0048750D02*
Y0029300D01*
X0029730Y0048750D02*
Y0029300D01*
X0031950Y0034200D02*
X0027450D01*
X0029550Y0048750D02*
Y0029300D01*
X0029460Y0048750D02*
Y0029300D01*
X0029370Y0048750D02*
Y0029300D01*
X0029280Y0048750D02*
Y0029300D01*
X0029190Y0048750D02*
Y0029300D01*
X0029100Y0048750D02*
Y0029300D01*
X0029010Y0048750D02*
Y0029300D01*
X0028920Y0048750D02*
Y0029300D01*
X0028830Y0048750D02*
Y0029300D01*
X0028740Y0048750D02*
Y0029300D01*
X0028650Y0048750D02*
Y0029300D01*
X0028560Y0048750D02*
Y0029300D01*
X0028470Y0048750D02*
Y0029300D01*
X0028380Y0048750D02*
Y0029300D01*
X0028290Y0048750D02*
Y0029300D01*
X0028200Y0048750D02*
Y0029300D01*
X0028110Y0048750D02*
Y0029300D01*
X0028020Y0048750D02*
Y0029300D01*
X0027930Y0040500D02*
Y0031650D01*
X0027840Y0040500D02*
Y0031650D01*
X0027750Y0040500D02*
Y0031650D01*
X0027660Y0040500D02*
Y0031650D01*
X0027570Y0040500D02*
Y0031650D01*
X0027480Y0040500D02*
Y0031650D01*
X0027390Y0034200D02*
Y0031650D01*
X0027300Y0034200D02*
Y0031650D01*
X0027210Y0034200D02*
Y0031650D01*
X0027120Y0034200D02*
Y0031650D01*
X0027030Y0034200D02*
Y0031650D01*
X0026940Y0034200D02*
Y0031650D01*
X0026850Y0034200D02*
Y0031650D01*
X0026760Y0034200D02*
Y0031650D01*
X0026670Y0034200D02*
Y0031650D01*
X0026580Y0034200D02*
Y0031650D01*
X0030850Y0048690D02*
X0028000D01*
X0030850Y0048600D02*
X0028000D01*
X0030850Y0048510D02*
X0028000D01*
X0030850Y0048420D02*
X0028000D01*
X0030850Y0048330D02*
X0028000D01*
X0030850Y0048240D02*
X0028000D01*
X0030850Y0048150D02*
X0028000D01*
X0030850Y0048060D02*
X0028000D01*
X0030850Y0047970D02*
X0028000D01*
X0030850Y0047880D02*
X0028000D01*
X0030850Y0047790D02*
X0028000D01*
X0030850Y0047700D02*
X0028000D01*
X0030850Y0047610D02*
X0028000D01*
X0030850Y0047520D02*
X0028000D01*
X0030850Y0047430D02*
X0028000D01*
X0030850Y0047340D02*
X0028000D01*
X0030850Y0047250D02*
X0028000D01*
X0030850Y0047160D02*
X0028000D01*
X0030850Y0047070D02*
X0028000D01*
X0030850Y0046980D02*
X0028000D01*
X0030850Y0046890D02*
X0028000D01*
X0030850Y0046800D02*
X0028000D01*
X0030850Y0046710D02*
X0028000D01*
X0030850Y0046620D02*
X0028000D01*
X0030850Y0046530D02*
X0028000D01*
X0030850Y0046440D02*
X0028000D01*
X0030850Y0046350D02*
X0028000D01*
X0030850Y0046260D02*
X0028000D01*
X0030850Y0046170D02*
X0028000D01*
X0030850Y0046080D02*
X0028000D01*
X0030850Y0045990D02*
X0028000D01*
X0030850Y0045900D02*
X0028000D01*
X0030850Y0045810D02*
X0028000D01*
X0030850Y0045720D02*
X0028000D01*
X0030920Y0045630D02*
X0028000D01*
X0031010Y0045540D02*
X0028000D01*
X0031100Y0045450D02*
X0028000D01*
X0031190Y0045360D02*
X0028000D01*
X0031280Y0045270D02*
X0028000D01*
X0031370Y0045180D02*
X0028000D01*
X0031460Y0045090D02*
X0028000D01*
X0031550Y0045000D02*
X0028000D01*
X0031640Y0044910D02*
X0028000D01*
X0031730Y0044820D02*
X0028000D01*
X0031820Y0044730D02*
X0028000D01*
X0031910Y0044640D02*
X0028000D01*
X0032000Y0044550D02*
X0028000D01*
X0032090Y0044460D02*
X0028000D01*
X0032180Y0044370D02*
X0028000D01*
X0032270Y0044280D02*
X0028000D01*
X0032360Y0044190D02*
X0028000D01*
X0032450Y0044100D02*
X0028000D01*
X0032600Y0040500D02*
X0028000D01*
X0032600Y0043920D02*
X0028000D01*
X0032600Y0043830D02*
X0028000D01*
X0032600Y0043740D02*
X0028000D01*
X0032600Y0043650D02*
X0028000D01*
X0032600Y0043560D02*
X0028000D01*
X0032600Y0043470D02*
X0028000D01*
X0032600Y0043380D02*
X0028000D01*
X0032600Y0043290D02*
X0028000D01*
X0032600Y0043200D02*
X0028000D01*
X0032600Y0043110D02*
X0028000D01*
X0032600Y0043020D02*
X0028000D01*
X0032600Y0042930D02*
X0028000D01*
X0032600Y0042840D02*
X0028000D01*
X0032600Y0042750D02*
X0028000D01*
X0032600Y0042660D02*
X0028000D01*
X0032600Y0042570D02*
X0028000D01*
X0032600Y0042480D02*
X0028000D01*
X0032600Y0042390D02*
X0028000D01*
X0032600Y0042300D02*
X0028000D01*
X0032600Y0042210D02*
X0028000D01*
X0032600Y0042120D02*
X0028000D01*
X0032600Y0042030D02*
X0028000D01*
X0032600Y0041940D02*
X0028000D01*
X0032600Y0041850D02*
X0028000D01*
X0032600Y0041760D02*
X0028000D01*
X0032600Y0041670D02*
X0028000D01*
X0032600Y0041580D02*
X0028000D01*
X0032600Y0041490D02*
X0028000D01*
X0032600Y0041400D02*
X0028000D01*
X0032600Y0041310D02*
X0028000D01*
X0032600Y0041220D02*
X0028000D01*
X0032600Y0041130D02*
X0028000D01*
X0032600Y0041040D02*
X0028000D01*
X0032600Y0040950D02*
X0028000D01*
X0032600Y0040860D02*
X0028000D01*
X0032600Y0040770D02*
X0028000D01*
X0032600Y0040680D02*
X0028000D01*
X0031950Y0029340D02*
X0028000D01*
X0032600Y0040410D02*
X0027400D01*
X0032600Y0040320D02*
X0027400D01*
X0032600Y0040230D02*
X0027400D01*
X0031950Y0040140D02*
X0027400D01*
X0031950Y0040050D02*
X0027400D01*
X0031950Y0039960D02*
X0027400D01*
X0031950Y0039870D02*
X0027400D01*
X0031950Y0039780D02*
X0027400D01*
X0031950Y0039690D02*
X0027400D01*
X0031950Y0039600D02*
X0027400D01*
X0031950Y0039510D02*
X0027400D01*
X0031950Y0039420D02*
X0027400D01*
X0031950Y0039330D02*
X0027400D01*
X0031950Y0039240D02*
X0027400D01*
X0029640Y0048750D02*
Y0029300D01*
X0031950Y0039060D02*
X0027400D01*
X0031950Y0038970D02*
X0027400D01*
X0031950Y0038880D02*
X0027400D01*
X0031950Y0038790D02*
X0027400D01*
X0031950Y0038700D02*
X0027400D01*
X0031950Y0038610D02*
X0027400D01*
X0031950Y0038520D02*
X0027400D01*
X0031950Y0038430D02*
X0026450D01*
X0031950Y0038340D02*
X0026450D01*
X0031950Y0038250D02*
X0026450D01*
X0031950Y0038160D02*
X0026450D01*
X0032600Y0038070D02*
X0026450D01*
X0032600Y0037980D02*
X0026450D01*
X0032600Y0037890D02*
X0026450D01*
X0032600Y0037800D02*
X0026450D01*
X0032600Y0037710D02*
X0026450D01*
X0032600Y0037620D02*
X0026450D01*
X0032600Y0037530D02*
X0026450D01*
X0032600Y0037440D02*
X0026450D01*
X0032600Y0037350D02*
X0026450D01*
X0032600Y0037260D02*
X0026450D01*
X0032600Y0037170D02*
X0026450D01*
X0032600Y0037080D02*
X0026450D01*
X0032600Y0036990D02*
X0026450D01*
X0032600Y0036900D02*
X0026450D01*
X0032600Y0036810D02*
X0026450D01*
X0032600Y0036720D02*
X0026450D01*
X0032600Y0036630D02*
X0026450D01*
X0032600Y0036540D02*
X0026450D01*
X0032600Y0036450D02*
X0026450D01*
X0032600Y0036360D02*
X0026450D01*
X0032600Y0036270D02*
X0026450D01*
X0032600Y0036180D02*
X0026450D01*
X0032600Y0036090D02*
X0026450D01*
X0032600Y0036000D02*
X0026450D01*
X0032600Y0035910D02*
X0026450D01*
X0032600Y0035820D02*
X0026450D01*
X0032600Y0035730D02*
X0026450D01*
X0032600Y0040590D02*
X0028000D01*
X0031950Y0035550D02*
X0026450D01*
X0031950Y0035460D02*
X0026450D01*
X0031950Y0035370D02*
X0027450D01*
X0031950Y0035280D02*
X0027450D01*
X0031950Y0035190D02*
X0027450D01*
X0031950Y0035100D02*
X0027450D01*
X0031950Y0035010D02*
X0027450D01*
X0031950Y0034920D02*
X0027450D01*
X0031950Y0034830D02*
X0027450D01*
X0031950Y0034740D02*
X0027450D01*
X0031950Y0034650D02*
X0027450D01*
X0031950Y0034560D02*
X0027450D01*
X0031950Y0034470D02*
X0027450D01*
X0031950Y0034380D02*
X0027450D01*
X0032600Y0035640D02*
X0026450D01*
X0026490Y0034200D02*
Y0031650D01*
X0031950Y0034110D02*
X0026450D01*
X0031950Y0034020D02*
X0026450D01*
X0031950Y0033930D02*
X0026450D01*
X0031950Y0033840D02*
X0026450D01*
X0031950Y0033750D02*
X0026450D01*
X0031950Y0033660D02*
X0026450D01*
X0031950Y0033570D02*
X0026450D01*
X0031950Y0033480D02*
X0026450D01*
X0031950Y0033390D02*
X0026450D01*
X0031950Y0033300D02*
X0026450D01*
X0031950Y0033210D02*
X0026450D01*
X0031950Y0033120D02*
X0026450D01*
X0031950Y0033030D02*
X0026450D01*
X0031950Y0032940D02*
X0026450D01*
X0031950Y0032850D02*
X0026450D01*
X0031950Y0032760D02*
X0026450D01*
X0031950Y0032670D02*
X0026450D01*
X0031950Y0032580D02*
X0026450D01*
X0031950Y0032490D02*
X0026450D01*
X0031950Y0032400D02*
X0026450D01*
X0031950Y0032310D02*
X0026450D01*
X0031950Y0032220D02*
X0026450D01*
X0031950Y0032130D02*
X0026450D01*
X0031950Y0032040D02*
X0026450D01*
X0031950Y0031950D02*
X0026450D01*
X0031950Y0031860D02*
X0026450D01*
X0031950Y0031770D02*
X0026450D01*
X0031950Y0031680D02*
X0026450D01*
X0031950Y0031590D02*
X0028000D01*
X0031950Y0031500D02*
X0028000D01*
X0031950Y0031410D02*
X0028000D01*
X0031950Y0031320D02*
X0028000D01*
X0031950Y0031230D02*
X0028000D01*
X0031950Y0031140D02*
X0028000D01*
X0031950Y0031050D02*
X0028000D01*
X0031950Y0030960D02*
X0028000D01*
X0031950Y0030870D02*
X0028000D01*
X0031950Y0030780D02*
X0028000D01*
X0031950Y0030690D02*
X0028000D01*
X0031950Y0030600D02*
X0028000D01*
X0031950Y0030510D02*
X0028000D01*
X0031950Y0030420D02*
X0028000D01*
X0031950Y0030330D02*
X0028000D01*
X0031950Y0030240D02*
X0028000D01*
X0031950Y0030150D02*
X0028000D01*
X0031950Y0030060D02*
X0028000D01*
X0031950Y0029970D02*
X0028000D01*
X0031950Y0029880D02*
X0028000D01*
X0031950Y0029790D02*
X0028000D01*
X0031950Y0029700D02*
X0028000D01*
X0031950Y0029610D02*
X0028000D01*
X0031950Y0029520D02*
X0028000D01*
X0031950Y0029430D02*
X0028000D01*
X0029750Y0019700D02*
Y0016050D01*
X0033300D02*
X0029750D01*
X0033300Y0022800D02*
Y0016050D01*
Y0022800D02*
X0030500D01*
Y0019700D01*
X0029750D01*
X0033300Y0016090D02*
X0029750D01*
X0033210Y0022800D02*
Y0016050D01*
X0033120Y0022800D02*
Y0016050D01*
X0033030Y0022800D02*
Y0016050D01*
X0032940Y0022800D02*
Y0016050D01*
X0032850Y0022800D02*
Y0016050D01*
X0032760Y0022800D02*
Y0016050D01*
X0032670Y0022800D02*
Y0016050D01*
X0032580Y0022800D02*
Y0016050D01*
X0032490Y0022800D02*
Y0016050D01*
X0032400Y0022800D02*
Y0016050D01*
X0032310Y0022800D02*
Y0016050D01*
X0032220Y0022800D02*
Y0016050D01*
X0032130Y0022800D02*
Y0016050D01*
X0032040Y0022800D02*
Y0016050D01*
X0031950Y0022800D02*
Y0016050D01*
X0031860Y0022800D02*
Y0016050D01*
X0031770Y0022800D02*
Y0016050D01*
X0031680Y0022800D02*
Y0016050D01*
X0031590Y0022800D02*
Y0016050D01*
X0031500Y0022800D02*
Y0016050D01*
X0031410Y0022800D02*
Y0016050D01*
X0031320Y0022800D02*
Y0016050D01*
X0031230Y0022800D02*
Y0016050D01*
X0031140Y0022800D02*
Y0016050D01*
X0031050Y0022800D02*
Y0016050D01*
X0030960Y0022800D02*
Y0016050D01*
X0030870Y0022800D02*
Y0016050D01*
X0030780Y0022800D02*
Y0016050D01*
X0030690Y0022800D02*
Y0016050D01*
X0030600Y0022800D02*
Y0016050D01*
X0030510Y0022800D02*
Y0016050D01*
X0030420Y0019700D02*
Y0016050D01*
X0030330Y0019700D02*
Y0016050D01*
X0030240Y0019700D02*
Y0016050D01*
X0030150Y0019700D02*
Y0016050D01*
X0030060Y0019700D02*
Y0016050D01*
X0029970Y0019700D02*
Y0016050D01*
X0029880Y0019700D02*
Y0016050D01*
X0029790Y0019700D02*
Y0016050D01*
X0033300Y0022750D02*
X0030500D01*
X0033300Y0022660D02*
X0030500D01*
X0033300Y0022570D02*
X0030500D01*
X0033300Y0022480D02*
X0030500D01*
X0033300Y0022390D02*
X0030500D01*
X0033300Y0022300D02*
X0030500D01*
X0033300Y0022210D02*
X0030500D01*
X0033300Y0022120D02*
X0030500D01*
X0033300Y0022030D02*
X0030500D01*
X0033300Y0021940D02*
X0030500D01*
X0033300Y0021850D02*
X0030500D01*
X0033300Y0021760D02*
X0030500D01*
X0033300Y0021670D02*
X0030500D01*
X0033300Y0021580D02*
X0030500D01*
X0033300Y0021490D02*
X0030500D01*
X0033300Y0021400D02*
X0030500D01*
X0033300Y0021310D02*
X0030500D01*
X0033300Y0021220D02*
X0030500D01*
X0033300Y0021130D02*
X0030500D01*
X0033300Y0021040D02*
X0030500D01*
X0033300Y0020950D02*
X0030500D01*
X0033300Y0020860D02*
X0030500D01*
X0033300Y0020770D02*
X0030500D01*
X0033300Y0020680D02*
X0030500D01*
X0033300Y0020590D02*
X0030500D01*
X0033300Y0020500D02*
X0030500D01*
X0033300Y0020410D02*
X0030500D01*
X0033300Y0020320D02*
X0030500D01*
X0033300Y0020230D02*
X0030500D01*
X0033300Y0020140D02*
X0030500D01*
X0033300Y0020050D02*
X0030500D01*
X0033300Y0019960D02*
X0030500D01*
X0033300Y0019870D02*
X0030500D01*
X0033300Y0019780D02*
X0030500D01*
X0033300Y0019690D02*
X0029750D01*
X0033300Y0019600D02*
X0029750D01*
X0033300Y0019510D02*
X0029750D01*
X0033300Y0019420D02*
X0029750D01*
X0033300Y0019330D02*
X0029750D01*
X0033300Y0019240D02*
X0029750D01*
X0033300Y0019150D02*
X0029750D01*
X0033300Y0019060D02*
X0029750D01*
X0033300Y0018970D02*
X0029750D01*
X0033300Y0018880D02*
X0029750D01*
X0033300Y0018790D02*
X0029750D01*
X0033300Y0018700D02*
X0029750D01*
X0033300Y0018610D02*
X0029750D01*
X0033300Y0018520D02*
X0029750D01*
X0033300Y0018430D02*
X0029750D01*
X0033300Y0018340D02*
X0029750D01*
X0033300Y0018250D02*
X0029750D01*
X0033300Y0018160D02*
X0029750D01*
X0033300Y0018070D02*
X0029750D01*
X0033300Y0017980D02*
X0029750D01*
X0033300Y0017890D02*
X0029750D01*
X0033300Y0017800D02*
X0029750D01*
X0033300Y0017710D02*
X0029750D01*
X0033300Y0017620D02*
X0029750D01*
X0033300Y0017530D02*
X0029750D01*
X0033300Y0017440D02*
X0029750D01*
X0033300Y0017350D02*
X0029750D01*
X0033300Y0017260D02*
X0029750D01*
X0033300Y0017170D02*
X0029750D01*
X0033300Y0017080D02*
X0029750D01*
X0033300Y0016990D02*
X0029750D01*
X0033300Y0016900D02*
X0029750D01*
X0033300Y0016810D02*
X0029750D01*
X0033300Y0016720D02*
X0029750D01*
X0033300Y0016630D02*
X0029750D01*
X0033300Y0016540D02*
X0029750D01*
X0033300Y0016450D02*
X0029750D01*
X0033300Y0016360D02*
X0029750D01*
X0033300Y0016270D02*
X0029750D01*
X0033300Y0016180D02*
X0029750D01*
X0031580Y0015050D02*
Y0013000D01*
X0031490Y0015050D02*
Y0013000D01*
X0031400Y0015050D02*
Y0013000D01*
X0031310Y0015050D02*
Y0013000D01*
X0031220Y0015050D02*
Y0013000D01*
X0031130Y0015050D02*
Y0013000D01*
X0031040Y0015050D02*
Y0013000D01*
X0033300Y0014990D02*
X0031000D01*
X0033300Y0014900D02*
X0031000D01*
X0033300Y0014810D02*
X0031000D01*
X0033300Y0014720D02*
X0031000D01*
X0033300Y0014630D02*
X0031000D01*
X0033300Y0014540D02*
X0031000D01*
X0033300Y0014450D02*
X0031000D01*
X0033300Y0014360D02*
X0031000D01*
X0033300Y0014270D02*
X0031000D01*
X0033300Y0014180D02*
X0031000D01*
X0033300Y0014090D02*
X0031000D01*
X0033300Y0014000D02*
X0031000D01*
X0033300Y0013910D02*
X0031000D01*
X0033300Y0013820D02*
X0031000D01*
X0033300Y0013730D02*
X0031000D01*
X0033300Y0013640D02*
X0031000D01*
X0033300Y0013550D02*
X0031000D01*
X0033300Y0013460D02*
X0031000D01*
X0033300Y0013370D02*
X0031000D01*
X0033300Y0013280D02*
X0031000D01*
X0033300Y0013190D02*
X0031000D01*
X0033300Y0013100D02*
X0031000D01*
X0033300Y0013010D02*
X0031000D01*
X0033300Y0012920D02*
X0031650D01*
X0033300Y0012830D02*
X0031650D01*
X0033300Y0012740D02*
X0031650D01*
X0033300Y0012650D02*
X0031650D01*
X0033300Y0012560D02*
X0031650D01*
X0033300Y0012470D02*
X0031650D01*
X0033300Y0012380D02*
X0031650D01*
X0033300Y0012290D02*
X0031650D01*
Y0013000D02*
X0031000D01*
X0031650D02*
Y0012250D01*
X0033300D02*
X0031650D01*
X0033300Y0015050D02*
Y0012250D01*
Y0015050D02*
X0031000D01*
Y0013000D01*
X0033290Y0015050D02*
Y0012250D01*
X0033200Y0015050D02*
Y0012250D01*
X0033110Y0015050D02*
Y0012250D01*
X0033020Y0015050D02*
Y0012250D01*
X0032930Y0015050D02*
Y0012250D01*
X0032840Y0015050D02*
Y0012250D01*
X0032750Y0015050D02*
Y0012250D01*
X0032660Y0015050D02*
Y0012250D01*
X0032570Y0015050D02*
Y0012250D01*
X0032480Y0015050D02*
Y0012250D01*
X0032390Y0015050D02*
Y0012250D01*
X0032300Y0015050D02*
Y0012250D01*
X0032210Y0015050D02*
Y0012250D01*
X0032120Y0015050D02*
Y0012250D01*
X0032030Y0015050D02*
Y0012250D01*
X0031940Y0015050D02*
Y0012250D01*
X0031850Y0015050D02*
Y0012250D01*
X0031760Y0015050D02*
Y0012250D01*
X0031670Y0015050D02*
Y0012250D01*
X0008800Y0002490D02*
X0000300D01*
X0008800Y-0001600D02*
X0002350D01*
X0008800Y0004650D02*
Y-0001600D01*
Y0004650D02*
X0006350D01*
Y0010500D02*
Y0004650D01*
Y0010500D02*
X0000300D01*
Y0002400D01*
X0002050D02*
X0000300D01*
X0002050D02*
Y-0001600D01*
X0002350D02*
X0002050D01*
X0006350Y0004740D02*
X0000300D01*
X0008800Y0004560D02*
X0000300D01*
X0008710Y0004650D02*
Y-0001600D01*
X0008620Y0004650D02*
Y-0001600D01*
X0008530Y0004650D02*
Y-0001600D01*
X0008440Y0004650D02*
Y-0001600D01*
X0008350Y0004650D02*
Y-0001600D01*
X0008260Y0004650D02*
Y-0001600D01*
X0008170Y0004650D02*
Y-0001600D01*
X0008080Y0004650D02*
Y-0001600D01*
X0007990Y0004650D02*
Y-0001600D01*
X0007900Y0004650D02*
Y-0001600D01*
X0007810Y0004650D02*
Y-0001600D01*
X0007720Y0004650D02*
Y-0001600D01*
X0007630Y0004650D02*
Y-0001600D01*
X0007540Y0004650D02*
Y-0001600D01*
X0007450Y0004650D02*
Y-0001600D01*
X0007360Y0004650D02*
Y-0001600D01*
X0007270Y0004650D02*
Y-0001600D01*
X0007180Y0004650D02*
Y-0001600D01*
X0007090Y0004650D02*
Y-0001600D01*
X0007000Y0004650D02*
Y-0001600D01*
X0006910Y0004650D02*
Y-0001600D01*
X0006820Y0004650D02*
Y-0001600D01*
X0006730Y0004650D02*
Y-0001600D01*
X0006640Y0004650D02*
Y-0001600D01*
X0006550Y0004650D02*
Y-0001600D01*
X0006460Y0004650D02*
Y-0001600D01*
X0006370Y0004650D02*
Y-0001600D01*
X0006280Y0010500D02*
Y-0001600D01*
X0006190Y0010500D02*
Y-0001600D01*
X0006100Y0010500D02*
Y-0001600D01*
X0006010Y0010500D02*
Y-0001600D01*
X0005920Y0010500D02*
Y-0001600D01*
X0005830Y0010500D02*
Y-0001600D01*
X0005740Y0010500D02*
Y-0001600D01*
X0005650Y0010500D02*
Y-0001600D01*
X0005560Y0010500D02*
Y-0001600D01*
X0005470Y0010500D02*
Y-0001600D01*
X0005380Y0010500D02*
Y-0001600D01*
X0005290Y0010500D02*
Y-0001600D01*
X0005200Y0010500D02*
Y-0001600D01*
X0005110Y0010500D02*
Y-0001600D01*
X0005020Y0010500D02*
Y-0001600D01*
X0004930Y0010500D02*
Y-0001600D01*
X0004840Y0010500D02*
Y-0001600D01*
X0004750Y0010500D02*
Y-0001600D01*
X0004660Y0010500D02*
Y-0001600D01*
X0004570Y0010500D02*
Y-0001600D01*
X0004480Y0010500D02*
Y-0001600D01*
X0004390Y0010500D02*
Y-0001600D01*
X0004300Y0010500D02*
Y-0001600D01*
X0004210Y0010500D02*
Y-0001600D01*
X0004120Y0010500D02*
Y-0001600D01*
X0004030Y0010500D02*
Y-0001600D01*
X0003940Y0010500D02*
Y-0001600D01*
X0003850Y0010500D02*
Y-0001600D01*
X0003760Y0010500D02*
Y-0001600D01*
X0003670Y0010500D02*
Y-0001600D01*
X0003580Y0010500D02*
Y-0001600D01*
X0003490Y0010500D02*
Y-0001600D01*
X0003400Y0010500D02*
Y-0001600D01*
X0003310Y0010500D02*
Y-0001600D01*
X0003220Y0010500D02*
Y-0001600D01*
X0003130Y0010500D02*
Y-0001600D01*
X0003040Y0010500D02*
Y-0001600D01*
X0002950Y0010500D02*
Y-0001600D01*
X0002860Y0010500D02*
Y-0001600D01*
X0002770Y0010500D02*
Y-0001600D01*
X0002680Y0010500D02*
Y-0001600D01*
X0002590Y0010500D02*
Y-0001600D01*
X0002500Y0010500D02*
Y-0001600D01*
X0002410Y0010500D02*
Y-0001600D01*
X0002320Y0010500D02*
Y-0001600D01*
X0002230Y0010500D02*
Y-0001600D01*
X0002050Y0010500D02*
Y0002400D01*
X0001960Y0010500D02*
Y0002400D01*
X0001870Y0010500D02*
Y0002400D01*
X0001780Y0010500D02*
Y0002400D01*
X0001690Y0010500D02*
Y0002400D01*
X0001600Y0010500D02*
Y0002400D01*
X0001510Y0010500D02*
Y0002400D01*
X0001420Y0010500D02*
Y0002400D01*
X0001330Y0010500D02*
Y0002400D01*
X0001240Y0010500D02*
Y0002400D01*
X0001150Y0010500D02*
Y0002400D01*
X0001060Y0010500D02*
Y0002400D01*
X0000970Y0010500D02*
Y0002400D01*
X0000880Y0010500D02*
Y0002400D01*
X0000790Y0010500D02*
Y0002400D01*
X0000700Y0010500D02*
Y0002400D01*
X0000610Y0010500D02*
Y0002400D01*
X0000520Y0010500D02*
Y0002400D01*
X0000430Y0010500D02*
Y0002400D01*
X0008800Y-0001560D02*
X0002050D01*
X0006350Y0010410D02*
X0000300D01*
X0006350Y0010320D02*
X0000300D01*
X0006350Y0010230D02*
X0000300D01*
X0006350Y0010140D02*
X0000300D01*
X0006350Y0010050D02*
X0000300D01*
X0006350Y0009960D02*
X0000300D01*
X0006350Y0009870D02*
X0000300D01*
X0006350Y0009780D02*
X0000300D01*
X0006350Y0009690D02*
X0000300D01*
X0006350Y0009600D02*
X0000300D01*
X0006350Y0009510D02*
X0000300D01*
X0006350Y0009420D02*
X0000300D01*
X0006350Y0009330D02*
X0000300D01*
X0006350Y0009240D02*
X0000300D01*
X0006350Y0009150D02*
X0000300D01*
X0006350Y0009060D02*
X0000300D01*
X0006350Y0008970D02*
X0000300D01*
X0006350Y0008880D02*
X0000300D01*
X0006350Y0008790D02*
X0000300D01*
X0006350Y0008700D02*
X0000300D01*
X0006350Y0008610D02*
X0000300D01*
X0006350Y0008520D02*
X0000300D01*
X0006350Y0008430D02*
X0000300D01*
X0006350Y0008340D02*
X0000300D01*
X0006350Y0008250D02*
X0000300D01*
X0006350Y0008160D02*
X0000300D01*
X0006350Y0008070D02*
X0000300D01*
X0006350Y0007980D02*
X0000300D01*
X0006350Y0007890D02*
X0000300D01*
X0006350Y0007800D02*
X0000300D01*
X0006350Y0007710D02*
X0000300D01*
X0006350Y0007620D02*
X0000300D01*
X0006350Y0007530D02*
X0000300D01*
X0006350Y0007440D02*
X0000300D01*
X0006350Y0007350D02*
X0000300D01*
X0006350Y0007260D02*
X0000300D01*
X0006350Y0007170D02*
X0000300D01*
X0006350Y0007080D02*
X0000300D01*
X0006350Y0006990D02*
X0000300D01*
X0006350Y0006900D02*
X0000300D01*
X0006350Y0006810D02*
X0000300D01*
X0006350Y0006720D02*
X0000300D01*
X0006350Y0006630D02*
X0000300D01*
X0006350Y0006540D02*
X0000300D01*
X0006350Y0006450D02*
X0000300D01*
X0006350Y0006360D02*
X0000300D01*
X0006350Y0006270D02*
X0000300D01*
X0006350Y0006180D02*
X0000300D01*
X0006350Y0006090D02*
X0000300D01*
X0006350Y0006000D02*
X0000300D01*
X0006350Y0005910D02*
X0000300D01*
X0006350Y0005820D02*
X0000300D01*
X0006350Y0005730D02*
X0000300D01*
X0006350Y0005640D02*
X0000300D01*
X0006350Y0005550D02*
X0000300D01*
X0006350Y0005460D02*
X0000300D01*
X0006350Y0005370D02*
X0000300D01*
X0006350Y0005280D02*
X0000300D01*
X0006350Y0005190D02*
X0000300D01*
X0006350Y0005100D02*
X0000300D01*
X0006350Y0005010D02*
X0000300D01*
X0006350Y0004920D02*
X0000300D01*
X0006350Y0004830D02*
X0000300D01*
X0006350Y0004650D02*
X0000300D01*
X0000340Y0010500D02*
Y0002400D01*
X0008800Y0004470D02*
X0000300D01*
X0008800Y0004380D02*
X0000300D01*
X0008800Y0004290D02*
X0000300D01*
X0008800Y0004200D02*
X0000300D01*
X0008800Y0004110D02*
X0000300D01*
X0008800Y0004020D02*
X0000300D01*
X0008800Y0003930D02*
X0000300D01*
X0008800Y0003840D02*
X0000300D01*
X0008800Y0003750D02*
X0000300D01*
X0008800Y0003660D02*
X0000300D01*
X0008800Y0003570D02*
X0000300D01*
X0008800Y0003480D02*
X0000300D01*
X0008800Y0003390D02*
X0000300D01*
X0008800Y0003300D02*
X0000300D01*
X0008800Y0003210D02*
X0000300D01*
X0008800Y0003120D02*
X0000300D01*
X0008800Y0003030D02*
X0000300D01*
X0008800Y0002940D02*
X0000300D01*
X0008800Y0002850D02*
X0000300D01*
X0008800Y0002760D02*
X0000300D01*
X0008800Y0002670D02*
X0000300D01*
X0008800Y0002580D02*
X0000300D01*
X0002140Y0010500D02*
Y-0001600D01*
X0008800Y0002400D02*
X0002050D01*
X0008800Y0002310D02*
X0002050D01*
X0008800Y0002220D02*
X0002050D01*
X0008800Y0002130D02*
X0002050D01*
X0008800Y0002040D02*
X0002050D01*
X0008800Y0001950D02*
X0002050D01*
X0008800Y0001860D02*
X0002050D01*
X0008800Y0001770D02*
X0002050D01*
X0008800Y0001680D02*
X0002050D01*
X0008800Y0001590D02*
X0002050D01*
X0008800Y0001500D02*
X0002050D01*
X0008800Y0001410D02*
X0002050D01*
X0008800Y0001320D02*
X0002050D01*
X0008800Y0001230D02*
X0002050D01*
X0008800Y0001140D02*
X0002050D01*
X0008800Y0001050D02*
X0002050D01*
X0008800Y0000960D02*
X0002050D01*
X0008800Y0000870D02*
X0002050D01*
X0008800Y0000780D02*
X0002050D01*
X0008800Y0000690D02*
X0002050D01*
X0008800Y0000600D02*
X0002050D01*
X0008800Y0000510D02*
X0002050D01*
X0008800Y0000420D02*
X0002050D01*
X0008800Y0000330D02*
X0002050D01*
X0008800Y0000240D02*
X0002050D01*
X0008800Y0000150D02*
X0002050D01*
X0008800Y0000060D02*
X0002050D01*
X0008800Y-0000030D02*
X0002050D01*
X0008800Y-0000120D02*
X0002050D01*
X0008800Y-0000210D02*
X0002050D01*
X0008800Y-0000300D02*
X0002050D01*
X0008800Y-0000390D02*
X0002050D01*
X0008800Y-0000480D02*
X0002050D01*
X0008800Y-0000570D02*
X0002050D01*
X0008800Y-0000660D02*
X0002050D01*
X0008800Y-0000750D02*
X0002050D01*
X0008800Y-0000840D02*
X0002050D01*
X0008800Y-0000930D02*
X0002050D01*
X0008800Y-0001020D02*
X0002050D01*
X0008800Y-0001110D02*
X0002050D01*
X0008800Y-0001200D02*
X0002050D01*
X0008800Y-0001290D02*
X0002050D01*
X0008800Y-0001380D02*
X0002050D01*
X0008800Y-0001470D02*
X0002050D01*
X0016000Y0007930D02*
X0014450D01*
X0016000Y0007840D02*
X0014450D01*
X0016000Y0007750D02*
X0014450D01*
X0016000Y0007660D02*
X0014450D01*
X0016000Y0007570D02*
X0014450D01*
X0016000Y0007480D02*
X0014450D01*
X0016000Y0007390D02*
X0014450D01*
X0016000Y0007300D02*
X0014450D01*
X0016000Y0007210D02*
X0014450D01*
X0016000Y0007120D02*
X0014450D01*
X0016000Y0007030D02*
X0014450D01*
X0016000Y0006940D02*
X0014450D01*
X0016000Y0006850D02*
X0014450D01*
X0016000Y0006760D02*
X0014450D01*
X0016000Y0006670D02*
X0014450D01*
X0016000Y0006580D02*
X0014450D01*
X0016000Y0006490D02*
X0014450D01*
X0016000Y0006400D02*
X0014450D01*
X0016000Y0006310D02*
X0014450D01*
X0016000Y0006220D02*
X0014450D01*
X0016000Y0006130D02*
X0014450D01*
X0015930Y0008300D02*
Y0006050D01*
X0015840Y0008300D02*
Y0006050D01*
X0015750Y0008300D02*
Y0006050D01*
X0015660Y0008300D02*
Y0006050D01*
X0015570Y0008300D02*
Y0006050D01*
X0015480Y0008300D02*
Y0006050D01*
X0015390Y0008300D02*
Y0006050D01*
X0015300Y0008300D02*
Y0006050D01*
X0015210Y0008300D02*
Y0006050D01*
X0015120Y0008300D02*
Y0006050D01*
X0015030Y0008300D02*
Y0006050D01*
X0014940Y0008300D02*
Y0006050D01*
X0014850Y0008300D02*
Y0006050D01*
X0014760Y0008300D02*
Y0006050D01*
X0014670Y0008300D02*
Y0006050D01*
X0014580Y0008300D02*
Y0006050D01*
X0014490Y0008300D02*
Y0006050D01*
X0016000Y0008290D02*
X0014450D01*
X0016000Y0008200D02*
X0014450D01*
X0016000Y0008110D02*
X0014450D01*
X0016000Y0008020D02*
X0014450D01*
Y0006050D02*
Y0006000D01*
X0016000Y0006050D02*
X0014450D01*
X0016000Y0008300D02*
Y0006050D01*
Y0008300D02*
X0014450D01*
Y0006000D01*
X0018840Y0006950D02*
Y-0000200D01*
X0025150Y0002250D02*
X0023900D01*
X0025150Y0006950D02*
Y0002250D01*
Y0006950D02*
X0018800D01*
Y-0000200D01*
X0023900D02*
X0018800D01*
X0023900Y0002250D02*
Y-0000200D01*
X0025140Y0006950D02*
Y0002250D01*
X0025050Y0006950D02*
Y0002250D01*
X0024960Y0006950D02*
Y0002250D01*
X0024870Y0006950D02*
Y0002250D01*
X0024780Y0006950D02*
Y0002250D01*
X0024690Y0006950D02*
Y0002250D01*
X0024600Y0006950D02*
Y0002250D01*
X0024510Y0006950D02*
Y0002250D01*
X0024420Y0006950D02*
Y0002250D01*
X0024330Y0006950D02*
Y0002250D01*
X0024240Y0006950D02*
Y0002250D01*
X0024150Y0006950D02*
Y0002250D01*
X0024060Y0006950D02*
Y0002250D01*
X0023970Y0006950D02*
Y0002250D01*
X0023880Y0006950D02*
Y-0000200D01*
X0023790Y0006950D02*
Y-0000200D01*
X0023700Y0006950D02*
Y-0000200D01*
X0023610Y0006950D02*
Y-0000200D01*
X0023520Y0006950D02*
Y-0000200D01*
X0023430Y0006950D02*
Y-0000200D01*
X0023340Y0006950D02*
Y-0000200D01*
X0023250Y0006950D02*
Y-0000200D01*
X0023160Y0006950D02*
Y-0000200D01*
X0023070Y0006950D02*
Y-0000200D01*
X0022980Y0006950D02*
Y-0000200D01*
X0022890Y0006950D02*
Y-0000200D01*
X0022800Y0006950D02*
Y-0000200D01*
X0022710Y0006950D02*
Y-0000200D01*
X0022620Y0006950D02*
Y-0000200D01*
X0022530Y0006950D02*
Y-0000200D01*
X0022440Y0006950D02*
Y-0000200D01*
X0022350Y0006950D02*
Y-0000200D01*
X0022260Y0006950D02*
Y-0000200D01*
X0022170Y0006950D02*
Y-0000200D01*
X0022080Y0006950D02*
Y-0000200D01*
X0021990Y0006950D02*
Y-0000200D01*
X0021900Y0006950D02*
Y-0000200D01*
X0021810Y0006950D02*
Y-0000200D01*
X0021720Y0006950D02*
Y-0000200D01*
X0021630Y0006950D02*
Y-0000200D01*
X0021540Y0006950D02*
Y-0000200D01*
X0021450Y0006950D02*
Y-0000200D01*
X0021360Y0006950D02*
Y-0000200D01*
X0021270Y0006950D02*
Y-0000200D01*
X0021180Y0006950D02*
Y-0000200D01*
X0021090Y0006950D02*
Y-0000200D01*
X0021000Y0006950D02*
Y-0000200D01*
X0020910Y0006950D02*
Y-0000200D01*
X0020820Y0006950D02*
Y-0000200D01*
X0020730Y0006950D02*
Y-0000200D01*
X0020640Y0006950D02*
Y-0000200D01*
X0020550Y0006950D02*
Y-0000200D01*
X0020460Y0006950D02*
Y-0000200D01*
X0020370Y0006950D02*
Y-0000200D01*
X0020280Y0006950D02*
Y-0000200D01*
X0020190Y0006950D02*
Y-0000200D01*
X0020100Y0006950D02*
Y-0000200D01*
X0020010Y0006950D02*
Y-0000200D01*
X0019920Y0006950D02*
Y-0000200D01*
X0019830Y0006950D02*
Y-0000200D01*
X0019740Y0006950D02*
Y-0000200D01*
X0019650Y0006950D02*
Y-0000200D01*
X0019560Y0006950D02*
Y-0000200D01*
X0019470Y0006950D02*
Y-0000200D01*
X0019380Y0006950D02*
Y-0000200D01*
X0019290Y0006950D02*
Y-0000200D01*
X0019200Y0006950D02*
Y-0000200D01*
X0019110Y0006950D02*
Y-0000200D01*
X0019020Y0006950D02*
Y-0000200D01*
X0018930Y0006950D02*
Y-0000200D01*
X0023900Y-0000160D02*
X0018800D01*
X0025150Y0006860D02*
X0018800D01*
X0025150Y0006770D02*
X0018800D01*
X0025150Y0006680D02*
X0018800D01*
X0025150Y0006590D02*
X0018800D01*
X0025150Y0006500D02*
X0018800D01*
X0025150Y0006410D02*
X0018800D01*
X0025150Y0006320D02*
X0018800D01*
X0025150Y0006230D02*
X0018800D01*
X0025150Y0006140D02*
X0018800D01*
X0025150Y0006050D02*
X0018800D01*
X0025150Y0005960D02*
X0018800D01*
X0025150Y0005870D02*
X0018800D01*
X0025150Y0005780D02*
X0018800D01*
X0025150Y0005690D02*
X0018800D01*
X0025150Y0005600D02*
X0018800D01*
X0025150Y0005510D02*
X0018800D01*
X0025150Y0005420D02*
X0018800D01*
X0025150Y0005330D02*
X0018800D01*
X0025150Y0005240D02*
X0018800D01*
X0025150Y0005150D02*
X0018800D01*
X0025150Y0005060D02*
X0018800D01*
X0025150Y0004970D02*
X0018800D01*
X0025150Y0004880D02*
X0018800D01*
X0025150Y0004790D02*
X0018800D01*
X0025150Y0004700D02*
X0018800D01*
X0025150Y0004610D02*
X0018800D01*
X0025150Y0004520D02*
X0018800D01*
X0025150Y0004430D02*
X0018800D01*
X0025150Y0004340D02*
X0018800D01*
X0025150Y0004250D02*
X0018800D01*
X0025150Y0004160D02*
X0018800D01*
X0025150Y0004070D02*
X0018800D01*
X0025150Y0003980D02*
X0018800D01*
X0025150Y0003890D02*
X0018800D01*
X0025150Y0003800D02*
X0018800D01*
X0025150Y0003710D02*
X0018800D01*
X0025150Y0003620D02*
X0018800D01*
X0025150Y0003530D02*
X0018800D01*
X0025150Y0003440D02*
X0018800D01*
X0025150Y0003350D02*
X0018800D01*
X0025150Y0003260D02*
X0018800D01*
X0025150Y0003170D02*
X0018800D01*
X0025150Y0003080D02*
X0018800D01*
X0025150Y0002990D02*
X0018800D01*
X0025150Y0002900D02*
X0018800D01*
X0025150Y0002810D02*
X0018800D01*
X0025150Y0002720D02*
X0018800D01*
X0025150Y0002630D02*
X0018800D01*
X0025150Y0002540D02*
X0018800D01*
X0025150Y0002450D02*
X0018800D01*
X0025150Y0002360D02*
X0018800D01*
X0025150Y0002270D02*
X0018800D01*
X0023900Y0002180D02*
X0018800D01*
X0023900Y0002090D02*
X0018800D01*
X0023900Y0002000D02*
X0018800D01*
X0023900Y0001910D02*
X0018800D01*
X0023900Y0001820D02*
X0018800D01*
X0023900Y0001730D02*
X0018800D01*
X0023900Y0001640D02*
X0018800D01*
X0023900Y0001550D02*
X0018800D01*
X0023900Y0001460D02*
X0018800D01*
X0023900Y0001370D02*
X0018800D01*
X0023900Y0001280D02*
X0018800D01*
X0023900Y0001190D02*
X0018800D01*
X0023900Y0001100D02*
X0018800D01*
X0023900Y0001010D02*
X0018800D01*
X0023900Y0000920D02*
X0018800D01*
X0023900Y0000830D02*
X0018800D01*
X0023900Y0000740D02*
X0018800D01*
X0023900Y0000650D02*
X0018800D01*
X0023900Y0000560D02*
X0018800D01*
X0023900Y0000470D02*
X0018800D01*
X0023900Y0000380D02*
X0018800D01*
X0023900Y0000290D02*
X0018800D01*
X0023900Y0000200D02*
X0018800D01*
X0023900Y0000110D02*
X0018800D01*
X0023900Y0000020D02*
X0018800D01*
X0023900Y-0000070D02*
X0018800D01*
G54D28*
X0031484Y0007984D03*
X0029516D03*
X0028531Y0007000D03*
X0029516Y0006016D03*
X0031484D03*
X0030500Y0007000D03*
G54D29*
X0023250Y-0001000D03*
X0022463D03*
X0021675D03*
X0020750Y0048250D03*
X0021537D03*
X0022325D03*
X0026325Y0048000D03*
X0025537D03*
X0028500Y-0001000D03*
X0027713D03*
X0026925D03*
X0026138D03*
X0025350D03*
G54D32*
X0024750Y0048000D03*
G54D33*
X0009500Y0022750D03*
Y0023750D03*
Y0024750D03*
X0008500Y0025250D03*
Y0024250D03*
Y0023250D03*
Y0022250D03*
G54D34*
X0009500Y0021750D03*
G54D35*
X0008750Y0018537D03*
Y0019325D03*
G54D36*
Y0017750D03*
G54D37*
X0010750Y0030000D03*
X0009750D03*
X0008750D03*
X0010750Y0036750D03*
X0009750D03*
X0008750D03*
X0010750Y0032250D03*
X0009750D03*
X0008750D03*
X0010750Y0039000D03*
X0009750D03*
X0008750D03*
X0010750Y0034500D03*
X0009750D03*
X0008750D03*
X0010750Y0041250D03*
X0009750D03*
X0008750D03*
X0023500Y0035000D03*
Y0039000D03*
Y0041000D03*
X0015000Y0023250D03*
Y0024250D03*
X0014000D03*
Y0023250D03*
Y0022250D03*
G54D38*
Y0001750D03*
X0023500Y0034000D03*
X0015000Y0022250D03*
G54D63*
X0014000Y0000750D03*
Y-0000250D03*
M02*
