*
G04 Mass Parameters ***
*
G04 Image ***
*
%IND:\UTENTI\00.LAVORI IN CORSO\METALTRONICA\23-325-0\23-325-0.DRD*%
%ICAS*%
%MOIN*%
%IPPOS*%
%ASAXBY*%
G74*%FSLAN2X34Y34*%
*
G04 Aperture Definitions ***
*
%ADD10C,0.1260*%
%ADD11C,0.0394*%
%ADD12R,0.1378X0.0787*%
%ADD13R,0.0380X0.0320*%
%ADD14R,0.0501X0.0404*%
%ADD15R,0.1100X0.0850*%
%ADD16R,0.0320X0.0380*%
%ADD17R,0.1060X0.1180*%
%ADD18R,0.1260X0.0630*%
%ADD19R,0.0400X0.0710*%
%ADD20R,0.1575X0.0787*%
%ADD21R,0.0630X0.1102*%
%ADD22R,0.0630X0.0984*%
%ADD23R,0.0404X0.0501*%
%ADD24R,0.0400X0.0500*%
%ADD25R,0.1080X0.0850*%
%ADD26R,0.0315X0.0197*%
%ADD27R,0.1500X0.1670*%
%ADD28C,0.1000*%
%ADD29C,0.0590*%
%ADD30R,0.0649X0.0512*%
%ADD31R,0.0118X0.0394*%
%ADD32R,0.0590X0.0590*%
%ADD33C,0.0630*%
%ADD34R,0.0630X0.0630*%
%ADD35C,0.0512*%
%ADD36R,0.0512X0.0512*%
%ADD37C,0.0787*%
%ADD38R,0.0787X0.0787*%
%ADD39R,0.0236X0.0413*%
%ADD40R,0.0197X0.0197*%
%ADD41R,0.1417X0.0708*%
%ADD42C,0.0187*%
%ADD43R,0.0354X0.0236*%
%ADD44R,0.0453X0.0275*%
%ADD45R,0.0500X0.0400*%
%ADD46R,0.1181X0.0590*%
%ADD47R,0.0710X0.0400*%
%ADD48R,0.0866X0.0630*%
%ADD49R,0.0276X0.0197*%
%ADD50R,0.0197X0.0276*%
%ADD51R,0.0850X0.1080*%
%ADD52R,0.0118X0.0571*%
%ADD53R,0.0512X0.0354*%
%ADD54C,0.0236*%
%ADD55R,0.0236X0.0610*%
%ADD56O,0.0256X0.0650*%
%ADD57O,0.0590X0.0118*%
%ADD58R,0.0512X0.0236*%
%ADD59C,0.0400*%
%ADD60R,0.0669X0.0276*%
%ADD61R,0.0850X0.0420*%
%ADD62R,0.4100X0.4250*%
%ADD63C,0.0800*%
%ADD64R,0.1500X0.0820*%
%ADD65R,0.3500X0.4500*%
%ADD66R,0.0680X0.1580*%
%ADD67R,0.0680X0.0550*%
%ADD68O,0.0700X0.0110*%
%ADD69R,0.0700X0.0110*%
%ADD70O,0.0110X0.0700*%
%ADD71R,0.0110X0.0700*%
%ADD72C,0.0100*%
%ADD73C,0.0060*%
%ADD74C,0.0050*%
%ADD75C,0.0010*%
%ADD76C,0.0500*%
%ADD77C,0.0236*%
%ADD78C,0.0250*%
%ADD79C,0.0110*%
%ADD80C,0.0300*%
%ADD81C,0.0120*%
%ADD82C,0.0150*%
%ADD83C,0.0600*%
%ADD84C,0.0400*%
%ADD85C,0.0800*%
%ADD86C,0.0080*%
%ADD87C,0.0236*%
%ADD88C,0.0236*%
%ADD89R,0.0512X0.0334*%
%ADD90R,0.0315X0.0236*%
%ADD91R,0.0236X0.0315*%
%ADD92R,0.0413X0.0236*%
%ADD93C,0.0079*%
%ADD94R,0.1420X0.0710*%
%ADD95R,0.0118X0.0354*%
*
G04 Plot Data ***
*
G54D72*
G01X0023475Y-0019433D02*
X0022975D01*
X0022892Y-0019267D01*
Y-0019100D01*
X0022975Y-0018933D01*
X0023475D01*
X0023558Y-0019100D01*
Y-0019267D01*
X0023225Y-0019933D01*
X0021942Y-0019767D02*
X0022025Y-0019933D01*
X0022525D01*
X0022608Y-0019767D01*
Y-0019433D01*
X0022442Y-0019267D01*
X0021942D01*
Y-0018933D01*
X0022608D01*
X0021075Y-0019433D02*
X0021575D01*
X0021658Y-0019600D01*
Y-0019767D01*
X0021575Y-0019933D01*
X0021075D01*
X0020992Y-0019767D01*
Y-0019600D01*
X0021325Y-0018933D01*
X0011162Y-0019933D02*
X0010579D01*
Y-0018933D01*
X0010296Y-0019600D02*
X0009629D01*
X0010296Y-0019933D02*
Y-0019433D01*
X0010046Y-0018933D01*
X0009879D01*
X0009629Y-0019433D01*
Y-0019933D01*
X0009012D02*
Y-0018933D01*
X0009346D02*
X0008679D01*
X0007812Y-0019933D02*
X0007729Y-0019767D01*
Y-0019100D01*
X0007812Y-0018933D01*
X0008312D01*
X0008396Y-0019100D01*
Y-0019767D01*
X0008312Y-0019933D01*
X0007812D01*
X0007112D02*
Y-0018933D01*
X0007446D02*
X0006779D01*
X0031414Y-0018072D02*
Y-0017406D01*
X0031358Y-0018072D02*
X0031691D01*
X0031803Y-0017850D01*
Y-0017628D01*
X0031691Y-0017406D01*
X0031358D01*
X0030991Y-0017739D02*
X0030658D01*
X0031103Y-0018072D02*
X0030658D01*
Y-0017406D01*
X0031103D01*
X0030180Y-0018072D02*
Y-0017406D01*
X0030403D02*
X0029958D01*
X0029703Y-0017850D02*
X0029258D01*
X0029703Y-0018072D02*
Y-0017739D01*
X0029536Y-0017406D01*
X0029425D01*
X0029258Y-0017739D01*
Y-0018072D01*
X0029003D02*
X0028614D01*
Y-0017406D01*
X0027914Y-0017739D02*
X0028247D01*
X0028358Y-0017628D01*
Y-0017517D01*
X0028247Y-0017406D01*
X0027914D01*
Y-0018072D01*
X0027658Y-0017739D02*
X0027214D01*
X0026958Y-0017406D02*
Y-0018072D01*
X0026847Y-0017961D01*
X0026625Y-0017517D01*
X0026514Y-0017406D01*
Y-0018072D01*
X0025869D02*
X0025814Y-0017961D01*
Y-0017517D01*
X0025869Y-0017406D01*
X0026203D01*
X0026258Y-0017517D01*
Y-0017961D01*
X0026203Y-0018072D01*
X0025869D01*
X0025558Y-0017406D02*
Y-0018072D01*
X0025447Y-0017961D01*
X0025225Y-0017517D01*
X0025114Y-0017406D01*
Y-0018072D01*
X0023558Y-0017850D02*
X0023114D01*
X0023336Y-0017406D01*
X0023447D01*
Y-0018072D01*
X0009719D02*
Y-0017739D01*
X0009942Y-0018072D02*
Y-0017739D01*
X0009886Y-0017628D01*
X0009775D01*
X0009719Y-0017739D01*
X0009664Y-0017628D01*
X0009553D01*
X0009497Y-0017739D01*
Y-0018072D01*
X0009019D02*
Y-0017739D01*
X0009242Y-0018072D02*
Y-0017739D01*
X0009186Y-0017628D01*
X0009075D01*
X0009019Y-0017739D01*
X0008964Y-0017628D01*
X0008853D01*
X0008797Y-0017739D01*
Y-0018072D01*
X0007314D02*
X0007203Y-0017961D01*
X0007147Y-0017850D01*
Y-0017628D01*
X0007203Y-0017517D01*
X0007314Y-0017406D01*
X0007425D01*
X0007536Y-0017517D01*
X0007592Y-0017628D01*
Y-0017850D01*
X0007536Y-0017961D01*
X0007425Y-0018072D01*
X0007314D01*
X0006614D02*
X0006503Y-0017961D01*
X0006447Y-0017850D01*
Y-0017628D01*
X0006503Y-0017517D01*
X0006614Y-0017406D01*
X0006725D01*
X0006836Y-0017517D01*
X0006892Y-0017628D01*
Y-0017850D01*
X0006836Y-0017961D01*
X0006725Y-0018072D01*
X0006614D01*
X0006192D02*
X0005747D01*
X0006192Y-0017628D01*
Y-0017517D01*
X0006136Y-0017406D01*
X0005803D01*
X0005747Y-0017517D01*
X0005381Y-0018072D02*
X0005492D01*
Y-0017961D01*
X0005381D01*
Y-0018072D01*
X0004569Y-0017961D02*
X0004681Y-0018072D01*
X0004903D01*
X0005014Y-0017961D01*
Y-0017850D01*
X0004792Y-0017628D01*
X0005014Y-0017406D01*
X0004569D01*
X0031414Y-0016572D02*
Y-0015906D01*
X0031358Y-0016572D02*
X0031691D01*
X0031803Y-0016350D01*
Y-0016128D01*
X0031691Y-0015906D01*
X0031358D01*
X0030991Y-0016239D02*
X0030658D01*
X0031103Y-0016572D02*
X0030658D01*
Y-0015906D01*
X0031103D01*
X0030180Y-0016572D02*
Y-0015906D01*
X0030403D02*
X0029958D01*
X0029703Y-0016350D02*
X0029258D01*
X0029703Y-0016572D02*
Y-0016239D01*
X0029536Y-0015906D01*
X0029425D01*
X0029258Y-0016239D01*
Y-0016572D01*
X0029003D02*
X0028614D01*
Y-0015906D01*
X0027914Y-0016239D02*
X0028247D01*
X0028358Y-0016128D01*
Y-0016017D01*
X0028247Y-0015906D01*
X0027914D01*
Y-0016572D01*
X0027658Y-0016239D02*
X0027214D01*
X0026958Y-0015906D02*
Y-0016572D01*
X0026847Y-0016461D01*
X0026625Y-0016017D01*
X0026514Y-0015906D01*
Y-0016572D01*
X0025869D02*
X0025814Y-0016461D01*
Y-0016017D01*
X0025869Y-0015906D01*
X0026203D01*
X0026258Y-0016017D01*
Y-0016461D01*
X0026203Y-0016572D01*
X0025869D01*
X0025558Y-0015906D02*
Y-0016572D01*
X0025447Y-0016461D01*
X0025225Y-0016017D01*
X0025114Y-0015906D01*
Y-0016572D01*
X0023558D02*
X0023336D01*
X0023447D02*
Y-0015906D01*
X0023336Y-0016017D01*
X0009719Y-0016572D02*
Y-0016239D01*
X0009942Y-0016572D02*
Y-0016239D01*
X0009886Y-0016128D01*
X0009775D01*
X0009719Y-0016239D01*
X0009664Y-0016128D01*
X0009553D01*
X0009497Y-0016239D01*
Y-0016572D01*
X0009019D02*
Y-0016239D01*
X0009242Y-0016572D02*
Y-0016239D01*
X0009186Y-0016128D01*
X0009075D01*
X0009019Y-0016239D01*
X0008964Y-0016128D01*
X0008853D01*
X0008797Y-0016239D01*
Y-0016572D01*
X0007536Y-0016239D02*
X0007203D01*
X0007147Y-0016128D01*
Y-0016017D01*
X0007203Y-0015906D01*
X0007536D01*
X0007592Y-0016017D01*
Y-0016128D01*
X0007369Y-0016572D01*
X0006836Y-0016239D02*
X0006503D01*
X0006447Y-0016128D01*
Y-0016017D01*
X0006503Y-0015906D01*
X0006836D01*
X0006892Y-0016017D01*
Y-0016128D01*
X0006669Y-0016572D01*
X0006192Y-0016350D02*
X0005747D01*
X0005969Y-0015906D01*
X0006080D01*
Y-0016572D01*
X0005381D02*
X0005492D01*
Y-0016461D01*
X0005381D01*
Y-0016572D01*
X0005014D02*
X0004792D01*
X0004903D02*
Y-0015906D01*
X0004792Y-0016017D01*
X0023169Y-0014739D02*
X0023503D01*
X0023558Y-0014850D01*
Y-0014961D01*
X0023503Y-0015072D01*
X0023169D01*
X0023114Y-0014961D01*
Y-0014850D01*
X0023336Y-0014406D01*
X0009719Y-0015072D02*
Y-0014739D01*
X0009942Y-0015072D02*
Y-0014739D01*
X0009886Y-0014628D01*
X0009775D01*
X0009719Y-0014739D01*
X0009664Y-0014628D01*
X0009553D01*
X0009497Y-0014739D01*
Y-0015072D01*
X0009019D02*
Y-0014739D01*
X0009242Y-0015072D02*
Y-0014739D01*
X0009186Y-0014628D01*
X0009075D01*
X0009019Y-0014739D01*
X0008964Y-0014628D01*
X0008853D01*
X0008797Y-0014739D01*
Y-0015072D01*
X0007314D02*
X0007203Y-0014961D01*
X0007147Y-0014850D01*
Y-0014628D01*
X0007203Y-0014517D01*
X0007314Y-0014406D01*
X0007425D01*
X0007536Y-0014517D01*
X0007592Y-0014628D01*
Y-0014850D01*
X0007536Y-0014961D01*
X0007425Y-0015072D01*
X0007314D01*
X0006614D02*
X0006503Y-0014961D01*
X0006447Y-0014850D01*
Y-0014628D01*
X0006503Y-0014517D01*
X0006614Y-0014406D01*
X0006725D01*
X0006836Y-0014517D01*
X0006892Y-0014628D01*
Y-0014850D01*
X0006836Y-0014961D01*
X0006725Y-0015072D01*
X0006614D01*
X0006192D02*
X0005747D01*
X0006192Y-0014628D01*
Y-0014517D01*
X0006136Y-0014406D01*
X0005803D01*
X0005747Y-0014517D01*
X0005381Y-0015072D02*
X0005492D01*
Y-0014961D01*
X0005381D01*
Y-0015072D01*
X0005014D02*
X0004792D01*
X0004903D02*
Y-0014406D01*
X0004792Y-0014517D01*
X0023114Y-0013461D02*
X0023225Y-0013572D01*
X0023447D01*
X0023558Y-0013461D01*
Y-0013350D01*
X0023336Y-0013128D01*
X0023558Y-0012906D01*
X0023114D01*
X0022858Y-0013572D02*
X0022636D01*
X0022747D02*
Y-0012906D01*
X0022636Y-0013017D01*
X0009719Y-0013572D02*
Y-0013239D01*
X0009942Y-0013572D02*
Y-0013239D01*
X0009886Y-0013128D01*
X0009775D01*
X0009719Y-0013239D01*
X0009664Y-0013128D01*
X0009553D01*
X0009497Y-0013239D01*
Y-0013572D01*
X0009019D02*
Y-0013239D01*
X0009242Y-0013572D02*
Y-0013239D01*
X0009186Y-0013128D01*
X0009075D01*
X0009019Y-0013239D01*
X0008964Y-0013128D01*
X0008853D01*
X0008797Y-0013239D01*
Y-0013572D01*
X0007314D02*
X0007203Y-0013461D01*
X0007147Y-0013350D01*
Y-0013128D01*
X0007203Y-0013017D01*
X0007314Y-0012906D01*
X0007425D01*
X0007536Y-0013017D01*
X0007592Y-0013128D01*
Y-0013350D01*
X0007536Y-0013461D01*
X0007425Y-0013572D01*
X0007314D01*
X0006614D02*
X0006503Y-0013461D01*
X0006447Y-0013350D01*
Y-0013128D01*
X0006503Y-0013017D01*
X0006614Y-0012906D01*
X0006725D01*
X0006836Y-0013017D01*
X0006892Y-0013128D01*
Y-0013350D01*
X0006836Y-0013461D01*
X0006725Y-0013572D01*
X0006614D01*
X0006192D02*
X0005969D01*
X0006080D02*
Y-0012906D01*
X0005969Y-0013017D01*
X0005492Y-0013572D02*
X0005603D01*
Y-0013461D01*
X0005492D01*
Y-0013572D01*
X0005125D02*
X0004903D01*
X0005014D02*
Y-0012906D01*
X0004903Y-0013017D01*
X0023114Y-0011961D02*
X0023225Y-0012072D01*
X0023447D01*
X0023558Y-0011961D01*
Y-0011850D01*
X0023336Y-0011628D01*
X0023558Y-0011406D01*
X0023114D01*
X0009719Y-0012072D02*
Y-0011739D01*
X0009942Y-0012072D02*
Y-0011739D01*
X0009886Y-0011628D01*
X0009775D01*
X0009719Y-0011739D01*
X0009664Y-0011628D01*
X0009553D01*
X0009497Y-0011739D01*
Y-0012072D01*
X0009019D02*
Y-0011739D01*
X0009242Y-0012072D02*
Y-0011739D01*
X0009186Y-0011628D01*
X0009075D01*
X0009019Y-0011739D01*
X0008964Y-0011628D01*
X0008853D01*
X0008797Y-0011739D01*
Y-0012072D01*
X0007314D02*
X0007203Y-0011961D01*
X0007147Y-0011850D01*
Y-0011628D01*
X0007203Y-0011517D01*
X0007314Y-0011406D01*
X0007425D01*
X0007536Y-0011517D01*
X0007592Y-0011628D01*
Y-0011850D01*
X0007536Y-0011961D01*
X0007425Y-0012072D01*
X0007314D01*
X0006614D02*
X0006503Y-0011961D01*
X0006447Y-0011850D01*
Y-0011628D01*
X0006503Y-0011517D01*
X0006614Y-0011406D01*
X0006725D01*
X0006836Y-0011517D01*
X0006892Y-0011628D01*
Y-0011850D01*
X0006836Y-0011961D01*
X0006725Y-0012072D01*
X0006614D01*
X0006136Y-0011739D02*
X0005803D01*
X0005747Y-0011628D01*
Y-0011517D01*
X0005803Y-0011406D01*
X0006136D01*
X0006192Y-0011517D01*
Y-0011628D01*
X0005969Y-0012072D01*
X0005381D02*
X0005492D01*
Y-0011961D01*
X0005381D01*
Y-0012072D01*
X0004736D02*
X0004625Y-0011961D01*
X0004569Y-0011850D01*
Y-0011628D01*
X0004625Y-0011517D01*
X0004736Y-0011406D01*
X0004847D01*
X0004958Y-0011517D01*
X0005014Y-0011628D01*
Y-0011850D01*
X0004958Y-0011961D01*
X0004847Y-0012072D01*
X0004736D01*
X0023558Y-0010572D02*
X0023114D01*
X0023558Y-0010128D01*
Y-0010017D01*
X0023503Y-0009906D01*
X0023169D01*
X0023114Y-0010017D01*
X0022803Y-0010239D02*
X0022858Y-0010128D01*
Y-0010017D01*
X0022803Y-0009906D01*
X0022469D01*
X0022414Y-0010017D01*
Y-0010128D01*
X0022469Y-0010239D01*
X0022803D01*
X0022858Y-0010350D01*
Y-0010461D01*
X0022803Y-0010572D01*
X0022469D01*
X0022414Y-0010461D01*
Y-0010350D01*
X0022469Y-0010239D01*
X0009719Y-0010572D02*
Y-0010239D01*
X0009942Y-0010572D02*
Y-0010239D01*
X0009886Y-0010128D01*
X0009775D01*
X0009719Y-0010239D01*
X0009664Y-0010128D01*
X0009553D01*
X0009497Y-0010239D01*
Y-0010572D01*
X0009019D02*
Y-0010239D01*
X0009242Y-0010572D02*
Y-0010239D01*
X0009186Y-0010128D01*
X0009075D01*
X0009019Y-0010239D01*
X0008964Y-0010128D01*
X0008853D01*
X0008797Y-0010239D01*
Y-0010572D01*
X0007314D02*
X0007203Y-0010461D01*
X0007147Y-0010350D01*
Y-0010128D01*
X0007203Y-0010017D01*
X0007314Y-0009906D01*
X0007425D01*
X0007536Y-0010017D01*
X0007592Y-0010128D01*
Y-0010350D01*
X0007536Y-0010461D01*
X0007425Y-0010572D01*
X0007314D01*
X0006614D02*
X0006503Y-0010461D01*
X0006447Y-0010350D01*
Y-0010128D01*
X0006503Y-0010017D01*
X0006614Y-0009906D01*
X0006725D01*
X0006836Y-0010017D01*
X0006892Y-0010128D01*
Y-0010350D01*
X0006836Y-0010461D01*
X0006725Y-0010572D01*
X0006614D01*
X0006136Y-0010239D02*
X0006192Y-0010128D01*
Y-0010017D01*
X0006136Y-0009906D01*
X0005803D01*
X0005747Y-0010017D01*
Y-0010128D01*
X0005803Y-0010239D01*
X0006136D01*
X0006192Y-0010350D01*
Y-0010461D01*
X0006136Y-0010572D01*
X0005803D01*
X0005747Y-0010461D01*
Y-0010350D01*
X0005803Y-0010239D01*
X0005381Y-0010572D02*
X0005492D01*
Y-0010461D01*
X0005381D01*
Y-0010572D01*
X0004736D02*
X0004625Y-0010461D01*
X0004569Y-0010350D01*
Y-0010128D01*
X0004625Y-0010017D01*
X0004736Y-0009906D01*
X0004847D01*
X0004958Y-0010017D01*
X0005014Y-0010128D01*
Y-0010350D01*
X0004958Y-0010461D01*
X0004847Y-0010572D01*
X0004736D01*
X0023280Y-0009072D02*
X0023169Y-0008961D01*
X0023114Y-0008850D01*
Y-0008628D01*
X0023169Y-0008517D01*
X0023280Y-0008406D01*
X0023392D01*
X0023503Y-0008517D01*
X0023558Y-0008628D01*
Y-0008850D01*
X0023503Y-0008961D01*
X0023392Y-0009072D01*
X0023280D01*
X0022414Y-0008961D02*
X0022469Y-0009072D01*
X0022803D01*
X0022858Y-0008961D01*
Y-0008739D01*
X0022747Y-0008628D01*
X0022414D01*
Y-0008406D01*
X0022858D01*
X0021714Y-0008961D02*
X0021769Y-0009072D01*
X0022103D01*
X0022158Y-0008961D01*
Y-0008739D01*
X0022047Y-0008628D01*
X0021714D01*
Y-0008406D01*
X0022158D01*
X0009719Y-0009072D02*
Y-0008739D01*
X0009942Y-0009072D02*
Y-0008739D01*
X0009886Y-0008628D01*
X0009775D01*
X0009719Y-0008739D01*
X0009664Y-0008628D01*
X0009553D01*
X0009497Y-0008739D01*
Y-0009072D01*
X0009019D02*
Y-0008739D01*
X0009242Y-0009072D02*
Y-0008739D01*
X0009186Y-0008628D01*
X0009075D01*
X0009019Y-0008739D01*
X0008964Y-0008628D01*
X0008853D01*
X0008797Y-0008739D01*
Y-0009072D01*
X0007314D02*
X0007203Y-0008961D01*
X0007147Y-0008850D01*
Y-0008628D01*
X0007203Y-0008517D01*
X0007314Y-0008406D01*
X0007425D01*
X0007536Y-0008517D01*
X0007592Y-0008628D01*
Y-0008850D01*
X0007536Y-0008961D01*
X0007425Y-0009072D01*
X0007314D01*
X0006614D02*
X0006503Y-0008961D01*
X0006447Y-0008850D01*
Y-0008628D01*
X0006503Y-0008517D01*
X0006614Y-0008406D01*
X0006725D01*
X0006836Y-0008517D01*
X0006892Y-0008628D01*
Y-0008850D01*
X0006836Y-0008961D01*
X0006725Y-0009072D01*
X0006614D01*
X0006192D02*
X0005747D01*
X0006192Y-0008628D01*
Y-0008517D01*
X0006136Y-0008406D01*
X0005803D01*
X0005747Y-0008517D01*
X0005381Y-0009072D02*
X0005492D01*
Y-0008961D01*
X0005381D01*
Y-0009072D01*
X0004736D02*
X0004625Y-0008961D01*
X0004569Y-0008850D01*
Y-0008628D01*
X0004625Y-0008517D01*
X0004736Y-0008406D01*
X0004847D01*
X0004958Y-0008517D01*
X0005014Y-0008628D01*
Y-0008850D01*
X0004958Y-0008961D01*
X0004847Y-0009072D01*
X0004736D01*
X0031962Y-0006933D02*
X0031462D01*
X0032129Y-0007433D02*
X0031462D01*
Y-0006433D01*
X0032129D01*
X0030846Y-0007433D02*
Y-0006433D01*
X0031179D02*
X0030512D01*
X0029646Y-0007433D02*
X0029562Y-0007267D01*
Y-0006600D01*
X0029646Y-0006433D01*
X0030146D01*
X0030229Y-0006600D01*
Y-0007267D01*
X0030146Y-0007433D01*
X0029646D01*
X0029279Y-0006433D02*
Y-0007433D01*
X0029112Y-0007267D01*
X0028779Y-0006600D01*
X0028612Y-0006433D01*
Y-0007433D01*
X0022775D02*
Y-0006933D01*
X0023108Y-0006433D02*
X0022858Y-0006933D01*
X0022692D01*
X0022442Y-0006433D01*
X0021825Y-0007433D02*
Y-0006433D01*
X0022158D02*
X0021492D01*
X0020875Y-0007100D02*
X0021208Y-0007433D01*
X0020542Y-0007267D02*
X0020625Y-0007433D01*
X0020958D01*
X0021042Y-0007267D01*
X0021208Y-0007100D01*
Y-0006600D01*
X0021125Y-0006433D01*
X0020625D01*
X0020542Y-0006600D01*
Y-0007267D01*
X0016258Y-0007433D02*
X0015675D01*
Y-0006433D01*
X0014808Y-0007433D02*
X0014725Y-0007267D01*
Y-0006600D01*
X0014808Y-0006433D01*
X0015308D01*
X0015392Y-0006600D01*
Y-0007267D01*
X0015308Y-0007433D01*
X0014808D01*
X0014108D02*
Y-0006433D01*
X0014442D02*
X0013775D01*
X0008437Y-0007433D02*
Y-0006433D01*
X0008271Y-0006600D01*
X0008104Y-0006933D01*
X0007937Y-0006600D01*
X0007771Y-0006433D01*
Y-0007433D01*
X0007487Y-0007100D02*
X0006821D01*
X0007487Y-0007433D02*
Y-0006933D01*
X0007237Y-0006433D01*
X0007071D01*
X0006821Y-0006933D01*
Y-0007433D01*
X0006537D02*
X0006204D01*
X0006371D02*
Y-0006433D01*
X0006537D02*
X0006204D01*
X0005171Y-0007433D02*
Y-0006433D01*
X0005087Y-0007433D02*
X0005587D01*
X0005754Y-0007100D01*
Y-0006767D01*
X0005587Y-0006433D01*
X0005087D01*
X0002000Y-0007433D02*
Y-0006433D01*
X0001833Y-0006600D01*
X0001667Y-0006933D01*
X0001500Y-0006600D01*
X0001333Y-0006433D01*
Y-0007433D01*
X0000717D02*
Y-0006933D01*
X0001050Y-0006433D02*
X0000800Y-0006933D01*
X0000633D01*
X0000383Y-0006433D01*
X0000100Y-0006600D02*
X0000017Y-0006433D01*
X-0000483D01*
X-0000567Y-0006600D01*
Y-0006767D01*
X-0000483Y-0006933D01*
X0000017D01*
X0000100Y-0007100D01*
Y-0007267D01*
X0000017Y-0007433D01*
X-0000483D01*
X-0000567Y-0007267D01*
X0022287Y-0005433D02*
Y-0004433D01*
X0022621D02*
X0021954D01*
X0021421Y-0004933D02*
X0021671Y-0005433D01*
X0021004Y-0004933D02*
X0021504D01*
X0021671Y-0004767D01*
Y-0004600D01*
X0021504Y-0004433D01*
X0021004D01*
Y-0005433D01*
X0020721Y-0005100D02*
X0020054D01*
X0020721Y-0005433D02*
Y-0004933D01*
X0020471Y-0004433D01*
X0020304D01*
X0020054Y-0004933D01*
Y-0005433D01*
X0019771Y-0004933D02*
X0019104D01*
X0019771Y-0005433D02*
Y-0004433D01*
X0019104Y-0005433D02*
Y-0004433D01*
X0018821Y-0005267D02*
X0018737Y-0005433D01*
X0018237D01*
X0018154Y-0005267D01*
Y-0004600D01*
X0018237Y-0004433D01*
X0018737D01*
X0018821Y-0004600D01*
X0016546Y-0005433D02*
X0015962D01*
Y-0004433D01*
X0015679Y-0005433D02*
X0015096D01*
Y-0004433D01*
X0014812Y-0005433D02*
X0014479D01*
X0014646D02*
Y-0004433D01*
X0014812D02*
X0014479D01*
X0013779Y-0004933D02*
X0014029Y-0005433D01*
X0013362Y-0004933D02*
X0013862D01*
X0014029Y-0004767D01*
Y-0004600D01*
X0013862Y-0004433D01*
X0013362D01*
Y-0005433D01*
X0012496D02*
Y-0004433D01*
X0012412Y-0005433D02*
X0012912D01*
X0013079Y-0005100D01*
Y-0004767D01*
X0012912Y-0004433D01*
X0012412D01*
X0010050Y0047600D02*
X0009550Y0047100D01*
X0010050D02*
X0009550Y0047600D01*
X0010050Y0042200D02*
X0009550Y0041700D01*
X0010050D02*
X0009550Y0042200D01*
X0013150D02*
X0012650Y0041700D01*
X0013150D02*
X0012650Y0042200D01*
X0000100Y0028300D02*
X-0000400Y0027800D01*
X0000100D02*
X-0000400Y0028300D01*
X0002250Y0015250D02*
X0001750Y0014750D01*
X0002250D02*
X0001750Y0015250D01*
X0013250Y0014250D02*
X0012750Y0013750D01*
X0013250D02*
X0012750Y0014250D01*
X0016250Y0012300D02*
X0015750Y0011800D01*
X0016250D02*
X0015750Y0012300D01*
X0014106Y0016856D02*
X0013606Y0016356D01*
X0014106D02*
X0013606Y0016856D01*
X0017100Y0019750D02*
X0016600Y0019250D01*
X0017100D02*
X0016600Y0019750D01*
X0018000Y0018550D02*
X0017500Y0018050D01*
X0018000D02*
X0017500Y0018550D01*
X0014106Y0016856D02*
X0013606Y0016356D01*
X0014106D02*
X0013606Y0016856D01*
X0013800Y0018600D02*
X0013300Y0018100D01*
X0013800D02*
X0013300Y0018600D01*
X0018000Y0018550D02*
X0017500Y0018050D01*
X0018000D02*
X0017500Y0018550D01*
X0017100Y0019750D02*
X0016600Y0019250D01*
X0017100D02*
X0016600Y0019750D01*
X0011000Y0044700D02*
X0010500Y0044200D01*
X0011000D02*
X0010500Y0044700D01*
X0009600Y0043200D02*
X0009100Y0042700D01*
X0009600D02*
X0009100Y0043200D01*
X0013150Y0044650D02*
X0012650Y0044150D01*
X0013150D02*
X0012650Y0044650D01*
X0013300Y0043200D02*
X0012800Y0042700D01*
X0013300D02*
X0012800Y0043200D01*
X0029100Y0014500D02*
X0028600Y0014000D01*
X0029100D02*
X0028600Y0014500D01*
X0028050D02*
X0027550Y0014000D01*
X0028050D02*
X0027550Y0014500D01*
X0005150Y0029750D02*
X0004650Y0029250D01*
X0005150D02*
X0004650Y0029750D01*
X0000380Y0042830D02*
X-0000120Y0042330D01*
X0000380D02*
X-0000120Y0042830D01*
X0005350Y0041750D02*
X0004850Y0041250D01*
X0005350D02*
X0004850Y0041750D01*
X0005250Y0039250D02*
X0004750Y0038750D01*
X0005250D02*
X0004750Y0039250D01*
X0014600Y0044700D02*
X0014100Y0044200D01*
X0014600D02*
X0014100Y0044700D01*
X0015500Y0044600D02*
X0015000Y0044100D01*
X0015500D02*
X0015000Y0044600D01*
X0015500D02*
X0015000Y0044100D01*
X0015500D02*
X0015000Y0044600D01*
X0013150Y0044650D02*
X0012650Y0044150D01*
X0013150D02*
X0012650Y0044650D01*
X0014000Y0044600D02*
X0013500Y0044100D01*
X0014000D02*
X0013500Y0044600D01*
X0011750D02*
X0011250Y0044100D01*
X0011750D02*
X0011250Y0044600D01*
X0012500D02*
X0012000Y0044100D01*
X0012500D02*
X0012000Y0044600D01*
X0012500D02*
X0012000Y0044100D01*
X0012500D02*
X0012000Y0044600D01*
X0013150Y0044650D02*
X0012650Y0044150D01*
X0013150D02*
X0012650Y0044650D01*
X0014600Y0044700D02*
X0014100Y0044200D01*
X0014600D02*
X0014100Y0044700D01*
X0014000Y0044600D02*
X0013500Y0044100D01*
X0014000D02*
X0013500Y0044600D01*
X0011750D02*
X0011250Y0044100D01*
X0011750D02*
X0011250Y0044600D01*
X0011000Y0044700D02*
X0010500Y0044200D01*
X0011000D02*
X0010500Y0044700D01*
X0011000D02*
X0010500Y0044200D01*
X0011000D02*
X0010500Y0044700D01*
X0011650Y0047700D02*
X0011150Y0047200D01*
X0011650D02*
X0011150Y0047700D01*
X0009600Y0043200D02*
X0009100Y0042700D01*
X0009600D02*
X0009100Y0043200D01*
X0008680Y0043880D02*
X0008180Y0043380D01*
X0008680D02*
X0008180Y0043880D01*
X0011750Y0022050D02*
X0011250Y0021550D01*
X0011750D02*
X0011250Y0022050D01*
X0007200Y0027100D02*
X0006700Y0026600D01*
X0007200D02*
X0006700Y0027100D01*
X0011750Y0022050D02*
X0011250Y0021550D01*
X0011750D02*
X0011250Y0022050D01*
X0026950Y0007500D02*
X0026450Y0007000D01*
X0026950D02*
X0026450Y0007500D01*
X0017800Y0007650D02*
X0017300Y0007150D01*
X0017800D02*
X0017300Y0007650D01*
X0005350Y0041750D02*
X0004850Y0041250D01*
X0005350D02*
X0004850Y0041750D01*
X0029100Y0014500D02*
X0028600Y0014000D01*
X0029100D02*
X0028600Y0014500D01*
X0029852Y0021252D02*
X0029352Y0020752D01*
X0029852D02*
X0029352Y0021252D01*
X0005250Y0036750D02*
X0004750Y0036250D01*
X0005250D02*
X0004750Y0036750D01*
X0005250Y0039250D02*
X0004750Y0038750D01*
X0005250D02*
X0004750Y0039250D01*
X0005250Y0034250D02*
X0004750Y0033750D01*
X0005250D02*
X0004750Y0034250D01*
X0005250Y0036750D02*
X0004750Y0036250D01*
X0005250D02*
X0004750Y0036750D01*
X0005150Y0029750D02*
X0004650Y0029250D01*
X0005150D02*
X0004650Y0029750D01*
X0005250Y0032000D02*
X0004750Y0031500D01*
X0005250D02*
X0004750Y0032000D01*
X0005250Y0034250D02*
X0004750Y0033750D01*
X0005250D02*
X0004750Y0034250D01*
X0005250Y0032000D02*
X0004750Y0031500D01*
X0005250D02*
X0004750Y0032000D01*
X0022650Y0021250D02*
X0022150Y0020750D01*
X0022650D02*
X0022150Y0021250D01*
X0024400D02*
X0023900Y0020750D01*
X0024400D02*
X0023900Y0021250D01*
X0021750Y0023850D02*
X0021250Y0023350D01*
X0021750D02*
X0021250Y0023850D01*
X0022300Y0025600D02*
X0021800Y0025100D01*
X0022300D02*
X0021800Y0025600D01*
X0024400Y0021250D02*
X0023900Y0020750D01*
X0024400D02*
X0023900Y0021250D01*
X0024600Y0019220D02*
X0024100Y0018720D01*
X0024600D02*
X0024100Y0019220D01*
X0027303Y0039900D02*
X0026803Y0039400D01*
X0027303D02*
X0026803Y0039900D01*
X0027650Y0045097D02*
X0027150Y0044597D01*
X0027650D02*
X0027150Y0045097D01*
X0032697Y0045100D02*
X0032197Y0044600D01*
X0032697D02*
X0032197Y0045100D01*
X0032697Y0039900D02*
X0032197Y0039400D01*
X0032697D02*
X0032197Y0039900D01*
X0032697Y0029900D02*
X0032197Y0029400D01*
X0032697D02*
X0032197Y0029900D01*
X0000220Y0008330D02*
X-0000280Y0007830D01*
X0000220D02*
X-0000280Y0008330D01*
X0000220Y0009280D02*
X-0000280Y0008780D01*
X0000220D02*
X-0000280Y0009280D01*
X0000220D02*
X-0000280Y0008780D01*
X0000220D02*
X-0000280Y0009280D01*
X0000220Y0008330D02*
X-0000280Y0007830D01*
X0000220D02*
X-0000280Y0008330D01*
X0000220Y0009280D02*
X-0000280Y0008780D01*
X0000220D02*
X-0000280Y0009280D01*
X0000220Y0008330D02*
X-0000280Y0007830D01*
X0000220D02*
X-0000280Y0008330D01*
X0021750Y0023850D02*
X0021250Y0023350D01*
X0021750D02*
X0021250Y0023850D01*
X0023250Y0023500D02*
X0022750Y0023000D01*
X0023250D02*
X0022750Y0023500D01*
X0021500Y0021400D02*
X0021000Y0020900D01*
X0021500D02*
X0021000Y0021400D01*
X0022650Y0021250D02*
X0022150Y0020750D01*
X0022650D02*
X0022150Y0021250D01*
X0022300Y0025600D02*
X0021800Y0025100D01*
X0022300D02*
X0021800Y0025600D01*
X0024300Y0026500D02*
X0023800Y0026000D01*
X0024300D02*
X0023800Y0026500D01*
X0025500Y0026100D02*
X0025000Y0025600D01*
X0025500D02*
X0025000Y0026100D01*
X0024500Y0025700D02*
X0024000Y0025200D01*
X0024500D02*
X0024000Y0025700D01*
X0020070Y0018900D02*
X0019570Y0018400D01*
X0020070D02*
X0019570Y0018900D01*
X0018000Y0020000D02*
X0017500Y0019500D01*
X0018000D02*
X0017500Y0020000D01*
X0008600Y0012200D02*
X0008100Y0011700D01*
X0008600D02*
X0008100Y0012200D01*
X0007500Y0011750D02*
X0007000Y0011250D01*
X0007500D02*
X0007000Y0011750D01*
X0008750Y0013000D02*
X0008250Y0012500D01*
X0008750D02*
X0008250Y0013000D01*
X0008600Y0012200D02*
X0008100Y0011700D01*
X0008600D02*
X0008100Y0012200D01*
X0010720Y0014250D02*
X0010220Y0013750D01*
X0010720D02*
X0010220Y0014250D01*
X0010100Y0016750D02*
X0009600Y0016250D01*
X0010100D02*
X0009600Y0016750D01*
X0010100D02*
X0009600Y0016250D01*
X0010100D02*
X0009600Y0016750D01*
X0011000Y0017750D02*
X0010500Y0017250D01*
X0011000D02*
X0010500Y0017750D01*
X0011150Y0018820D02*
X0010650Y0018320D01*
X0011150D02*
X0010650Y0018820D01*
X0011000Y0017750D02*
X0010500Y0017250D01*
X0011000D02*
X0010500Y0017750D01*
X0007500Y0011750D02*
X0007000Y0011250D01*
X0007500D02*
X0007000Y0011750D01*
X0006050Y0011482D02*
X0005550Y0010982D01*
X0006050D02*
X0005550Y0011482D01*
X0024500Y0025700D02*
X0024000Y0025200D01*
X0024500D02*
X0024000Y0025700D01*
X0024300Y0026500D02*
X0023800Y0026000D01*
X0024300D02*
X0023800Y0026500D01*
X0013900Y0019530D02*
X0013400Y0019030D01*
X0013900D02*
X0013400Y0019530D01*
X0014447Y0019600D02*
X0013947Y0019100D01*
X0014447D02*
X0013947Y0019600D01*
X0010500Y0006750D02*
X0010000Y0006250D01*
X0010500D02*
X0010000Y0006750D01*
X0011750Y0007750D02*
X0011250Y0007250D01*
X0011750D02*
X0011250Y0007750D01*
X0011750D02*
X0011250Y0007250D01*
X0011750D02*
X0011250Y0007750D01*
X0013200Y0008900D02*
X0012700Y0008400D01*
X0013200D02*
X0012700Y0008900D01*
X0026400Y0009030D02*
X0025900Y0008530D01*
X0026400D02*
X0025900Y0009030D01*
X0022700Y0008250D02*
X0022200Y0007750D01*
X0022700D02*
X0022200Y0008250D01*
X0020070Y0018900D02*
X0019570Y0018400D01*
X0020070D02*
X0019570Y0018900D01*
X0017240Y0033850D02*
X0016740Y0033350D01*
X0017240D02*
X0016740Y0033850D01*
X0021200Y0033650D02*
X0020700Y0033150D01*
X0021200D02*
X0020700Y0033650D01*
X0021200D02*
X0020700Y0033150D01*
X0021200D02*
X0020700Y0033650D01*
X0023200D02*
X0022700Y0033150D01*
X0023200D02*
X0022700Y0033650D01*
X0023200D02*
X0022700Y0033150D01*
X0023200D02*
X0022700Y0033650D01*
X0027303Y0035100D02*
X0026803Y0034600D01*
X0027303D02*
X0026803Y0035100D01*
X0033350Y0032250D02*
X0032850Y0031750D01*
X0033350D02*
X0032850Y0032250D01*
X0033350Y0032750D02*
X0032850Y0032250D01*
X0033350D02*
X0032850Y0032750D01*
X0032697Y0035100D02*
X0032197Y0034600D01*
X0032697D02*
X0032197Y0035100D01*
X0032600Y0038950D02*
X0032100Y0038450D01*
X0032600D02*
X0032100Y0038950D01*
X0033350Y0032750D02*
X0032850Y0032250D01*
X0033350D02*
X0032850Y0032750D01*
X0032697Y0035100D02*
X0032197Y0034600D01*
X0032697D02*
X0032197Y0035100D01*
X0027650Y0045097D02*
X0027150Y0044597D01*
X0027650D02*
X0027150Y0045097D01*
X0032697Y0045100D02*
X0032197Y0044600D01*
X0032697D02*
X0032197Y0045100D01*
X0032600Y0038950D02*
X0032100Y0038450D01*
X0032600D02*
X0032100Y0038950D01*
X0032697Y0039900D02*
X0032197Y0039400D01*
X0032697D02*
X0032197Y0039900D01*
X0027303Y0035100D02*
X0026803Y0034600D01*
X0027303D02*
X0026803Y0035100D01*
X0027303Y0039900D02*
X0026803Y0039400D01*
X0027303D02*
X0026803Y0039900D01*
X0027650Y0045097D02*
X0027150Y0044597D01*
X0027650D02*
X0027150Y0045097D01*
X0017240Y0033850D02*
X0016740Y0033350D01*
X0017240D02*
X0016740Y0033850D01*
X0017240Y0031600D02*
X0016740Y0031100D01*
X0017240D02*
X0016740Y0031600D01*
X0017240Y0029600D02*
X0016740Y0029100D01*
X0017240D02*
X0016740Y0029600D01*
X0017240Y0027350D02*
X0016740Y0026850D01*
X0017240D02*
X0016740Y0027350D01*
X0017240Y0031600D02*
X0016740Y0031100D01*
X0017240D02*
X0016740Y0031600D01*
X0017240Y0029600D02*
X0016740Y0029100D01*
X0017240D02*
X0016740Y0029600D01*
X0017240Y0036100D02*
X0016740Y0035600D01*
X0017240D02*
X0016740Y0036100D01*
X0017240Y0038350D02*
X0016740Y0037850D01*
X0017240D02*
X0016740Y0038350D01*
X0022400Y0017850D02*
X0021900Y0017350D01*
X0022400D02*
X0021900Y0017850D01*
X0017240Y0040600D02*
X0016740Y0040100D01*
X0017240D02*
X0016740Y0040600D01*
X0020450Y0040400D02*
X0019950Y0039900D01*
X0020450D02*
X0019950Y0040400D01*
X0024300Y0026500D02*
X0023800Y0026000D01*
X0024300D02*
X0023800Y0026500D01*
X0024500Y0029150D02*
X0024000Y0028650D01*
X0024500D02*
X0024000Y0029150D01*
X0017240Y0029600D02*
X0016740Y0029100D01*
X0017240D02*
X0016740Y0029600D01*
X0018900Y0030000D02*
X0018400Y0029500D01*
X0018900D02*
X0018400Y0030000D01*
X0011350Y0028280D02*
X0010850Y0027780D01*
X0011350D02*
X0010850Y0028280D01*
X0018000Y0020000D02*
X0017500Y0019500D01*
X0018000D02*
X0017500Y0020000D01*
X0017300Y0020100D02*
X0016800Y0019600D01*
X0017300D02*
X0016800Y0020100D01*
X0024600Y0019220D02*
X0024100Y0018720D01*
X0024600D02*
X0024100Y0019220D01*
X0017300Y0020100D02*
X0016800Y0019600D01*
X0017300D02*
X0016800Y0020100D01*
X0017240Y0042600D02*
X0016740Y0042100D01*
X0017240D02*
X0016740Y0042600D01*
X0017250Y0048250D02*
X0016750Y0047750D01*
X0017250D02*
X0016750Y0048250D01*
X0012050Y0048000D02*
X0011550Y0047500D01*
X0012050D02*
X0011550Y0048000D01*
X0009730Y0047980D02*
X0009230Y0047480D01*
X0009730D02*
X0009230Y0047980D01*
X0017240Y0040600D02*
X0016740Y0040100D01*
X0017240D02*
X0016740Y0040600D01*
X0017240Y0042600D02*
X0016740Y0042100D01*
X0017240D02*
X0016740Y0042600D01*
X0009730Y0047980D02*
X0009230Y0047480D01*
X0009730D02*
X0009230Y0047980D01*
X0017250Y0048250D02*
X0016750Y0047750D01*
X0017250D02*
X0016750Y0048250D01*
X0023950Y0029150D02*
X0023450Y0028650D01*
X0023950D02*
X0023450Y0029150D01*
X0024500D02*
X0024000Y0028650D01*
X0024500D02*
X0024000Y0029150D01*
X0024500D02*
X0024000Y0028650D01*
X0024500D02*
X0024000Y0029150D01*
X0027303Y0029900D02*
X0026803Y0029400D01*
X0027303D02*
X0026803Y0029900D01*
X0004500Y0014000D02*
X0004000Y0013500D01*
X0004500D02*
X0004000Y0014000D01*
X0004500Y0014750D02*
X0004000Y0014250D01*
X0004500D02*
X0004000Y0014750D01*
X0006100Y0016250D02*
X0005600Y0015750D01*
X0006100D02*
X0005600Y0016250D01*
X0020070Y0018900D02*
X0019570Y0018400D01*
X0020070D02*
X0019570Y0018900D01*
X0020150Y0016000D02*
X0019650Y0015500D01*
X0020150D02*
X0019650Y0016000D01*
X0021900Y0012550D02*
X0021400Y0012050D01*
X0021900D02*
X0021400Y0012550D01*
X0019850Y0012800D02*
X0019350Y0012300D01*
X0019850D02*
X0019350Y0012800D01*
X0028000Y0005450D02*
X0027500Y0004950D01*
X0028000D02*
X0027500Y0005450D01*
X0026000Y0006300D02*
X0025500Y0005800D01*
X0026000D02*
X0025500Y0006300D01*
X0026000D02*
X0025500Y0005800D01*
X0026000D02*
X0025500Y0006300D01*
X0027500Y0022200D02*
X0027000Y0021700D01*
X0027500D02*
X0027000Y0022200D01*
X0026150Y0021250D02*
X0025650Y0020750D01*
X0026150D02*
X0025650Y0021250D01*
X0026150D02*
X0025650Y0020750D01*
X0026150D02*
X0025650Y0021250D01*
X0027500Y0022200D02*
X0027000Y0021700D01*
X0027500D02*
X0027000Y0022200D01*
X0027900Y0021250D02*
X0027400Y0020750D01*
X0027900D02*
X0027400Y0021250D01*
X0024400D02*
X0023900Y0020750D01*
X0024400D02*
X0023900Y0021250D01*
X0026150D02*
X0025650Y0020750D01*
X0026150D02*
X0025650Y0021250D01*
X0020000Y0023350D02*
X0019500Y0022850D01*
X0020000D02*
X0019500Y0023350D01*
X0021750Y0023850D02*
X0021250Y0023350D01*
X0021750D02*
X0021250Y0023850D01*
X0003000Y0014000D02*
X0002500Y0013500D01*
X0003000D02*
X0002500Y0014000D01*
X0001500D02*
X0001000Y0013500D01*
X0001500D02*
X0001000Y0014000D01*
X0003000Y0013250D02*
X0002500Y0012750D01*
X0003000D02*
X0002500Y0013250D01*
X0003000Y0014000D02*
X0002500Y0013500D01*
X0003000D02*
X0002500Y0014000D01*
X0022650Y0021250D02*
X0022150Y0020750D01*
X0022650D02*
X0022150Y0021250D01*
X0023250Y0023500D02*
X0022750Y0023000D01*
X0023250D02*
X0022750Y0023500D01*
X-0000550Y0013500D02*
X-0001050Y0013000D01*
X-0000550D02*
X-0001050Y0013500D01*
X0009150Y0014200D02*
X0008650Y0013700D01*
X0009150D02*
X0008650Y0014200D01*
X0008750Y0013000D02*
X0008250Y0012500D01*
X0008750D02*
X0008250Y0013000D01*
X0010720Y0014250D02*
X0010220Y0013750D01*
X0010720D02*
X0010220Y0014250D01*
X0009150Y0014200D02*
X0008650Y0013700D01*
X0009150D02*
X0008650Y0014200D01*
X0011850Y0013300D02*
X0011350Y0012800D01*
X0011850D02*
X0011350Y0013300D01*
X0010720Y0014250D02*
X0010220Y0013750D01*
X0010720D02*
X0010220Y0014250D01*
X0014050Y0017250D02*
X0013550Y0016750D01*
X0014050D02*
X0013550Y0017250D01*
X0013900Y0019530D02*
X0013400Y0019030D01*
X0013900D02*
X0013400Y0019530D01*
X0014050Y0017250D02*
X0013550Y0016750D01*
X0014050D02*
X0013550Y0017250D01*
X0017300Y0010250D02*
X0016800Y0009750D01*
X0017300D02*
X0016800Y0010250D01*
X0015850Y0012370D02*
X0015350Y0011870D01*
X0015850D02*
X0015350Y0012370D01*
X0006050Y0011482D02*
X0005550Y0010982D01*
X0006050D02*
X0005550Y0011482D01*
X0014050Y0017250D02*
X0013550Y0016750D01*
X0014050D02*
X0013550Y0017250D01*
X0014447Y0019600D02*
X0013947Y0019100D01*
X0014447D02*
X0013947Y0019600D01*
X0017300Y0020100D02*
X0016800Y0019600D01*
X0017300D02*
X0016800Y0020100D01*
X0000220Y0024900D02*
X-0000280Y0024400D01*
X0000220D02*
X-0000280Y0024900D01*
X0001720Y0019900D02*
X0001220Y0019400D01*
X0001720D02*
X0001220Y0019900D01*
X0000220D02*
X-0000280Y0019400D01*
X0000220D02*
X-0000280Y0019900D01*
X0003150Y0024820D02*
X0002650Y0024320D01*
X0003150D02*
X0002650Y0024820D01*
X0002220Y0025100D02*
X0001720Y0024600D01*
X0002220D02*
X0001720Y0025100D01*
X0000220Y0026100D02*
X-0000280Y0025600D01*
X0000220D02*
X-0000280Y0026100D01*
X0000220Y0024900D02*
X-0000280Y0024400D01*
X0000220D02*
X-0000280Y0024900D01*
X0004500Y0025500D02*
X0004000Y0025000D01*
X0004500D02*
X0004000Y0025500D01*
X0004500Y0026500D02*
X0004000Y0026000D01*
X0004500D02*
X0004000Y0026500D01*
X0004500Y0025500D02*
X0004000Y0025000D01*
X0004500D02*
X0004000Y0025500D01*
X0000220Y0024900D02*
X-0000280Y0024400D01*
X0000220D02*
X-0000280Y0024900D01*
X0002220Y0025100D02*
X0001720Y0024600D01*
X0002220D02*
X0001720Y0025100D01*
X0006000Y0023750D02*
X0005500Y0023250D01*
X0006000D02*
X0005500Y0023750D01*
X0004500Y0025500D02*
X0004000Y0025000D01*
X0004500D02*
X0004000Y0025500D01*
X0006000Y0023000D02*
X0005500Y0022500D01*
X0006000D02*
X0005500Y0023000D01*
X0006000Y0023750D02*
X0005500Y0023250D01*
X0006000D02*
X0005500Y0023750D01*
X0004850Y0022982D02*
X0004350Y0022482D01*
X0004850D02*
X0004350Y0022982D01*
X0006000Y0023000D02*
X0005500Y0022500D01*
X0006000D02*
X0005500Y0023000D01*
X0002850Y0019500D02*
X0002350Y0019000D01*
X0002850D02*
X0002350Y0019500D01*
X0001720Y0019900D02*
X0001220Y0019400D01*
X0001720D02*
X0001220Y0019900D01*
X0004850Y0017232D02*
X0004350Y0016732D01*
X0004850D02*
X0004350Y0017232D01*
X0006150Y0017680D02*
X0005650Y0017180D01*
X0006150D02*
X0005650Y0017680D01*
X0004500Y0019500D02*
X0004000Y0019000D01*
X0004500D02*
X0004000Y0019500D01*
X0006000D02*
X0005500Y0019000D01*
X0006000D02*
X0005500Y0019500D01*
X0002850Y0018750D02*
X0002350Y0018250D01*
X0002850D02*
X0002350Y0018750D01*
X0002850Y0019500D02*
X0002350Y0019000D01*
X0002850D02*
X0002350Y0019500D01*
X0004500D02*
X0004000Y0019000D01*
X0004500D02*
X0004000Y0019500D01*
X0002850D02*
X0002350Y0019000D01*
X0002850D02*
X0002350Y0019500D01*
X0004500Y0020250D02*
X0004000Y0019750D01*
X0004500D02*
X0004000Y0020250D01*
X0004500Y0019500D02*
X0004000Y0019000D01*
X0004500D02*
X0004000Y0019500D01*
X0006150Y0017680D02*
X0005650Y0017180D01*
X0006150D02*
X0005650Y0017680D01*
X0006000Y0019500D02*
X0005500Y0019000D01*
X0006000D02*
X0005500Y0019500D01*
X0000220Y0019900D02*
X-0000280Y0019400D01*
X0000220D02*
X-0000280Y0019900D01*
X0004500Y0014750D02*
X0004000Y0014250D01*
X0004500D02*
X0004000Y0014750D01*
X0006100Y0016250D02*
X0005600Y0015750D01*
X0006100D02*
X0005600Y0016250D01*
X0003000Y0014000D02*
X0002500Y0013500D01*
X0003000D02*
X0002500Y0014000D01*
X0004500D02*
X0004000Y0013500D01*
X0004500D02*
X0004000Y0014000D01*
X-0000550Y0013500D02*
X-0001050Y0013000D01*
X-0000550D02*
X-0001050Y0013500D01*
X0019000Y0026800D02*
X0018500Y0026300D01*
X0019000D02*
X0018500Y0026800D01*
X0019200Y0013350D02*
X0018700Y0012850D01*
X0019200D02*
X0018700Y0013350D01*
X0023450Y0012000D02*
X0022950Y0011500D01*
X0023450D02*
X0022950Y0012000D01*
X0025000Y0012400D02*
X0024500Y0011900D01*
X0025000D02*
X0024500Y0012400D01*
X0011300Y0013690D02*
X0010800Y0013190D01*
X0011300D02*
X0010800Y0013690D01*
X0019200Y0013350D02*
X0018700Y0012850D01*
X0019200D02*
X0018700Y0013350D01*
X0019150Y0009600D02*
X0018650Y0009100D01*
X0019150D02*
X0018650Y0009600D01*
X0019200Y0013350D02*
X0018700Y0012850D01*
X0019200D02*
X0018700Y0013350D01*
X0019000Y0021600D02*
X0018500Y0021100D01*
X0019000D02*
X0018500Y0021600D01*
X0019000Y0026800D02*
X0018500Y0026300D01*
X0019000D02*
X0018500Y0026800D01*
X0023750Y0008650D02*
X0023250Y0008150D01*
X0023750D02*
X0023250Y0008650D01*
X0024100Y0010200D02*
X0023600Y0009700D01*
X0024100D02*
X0023600Y0010200D01*
X0026500Y0001950D02*
X0026000Y0001450D01*
X0026500D02*
X0026000Y0001950D01*
X0027250Y0002000D02*
X0026750Y0001500D01*
X0027250D02*
X0026750Y0002000D01*
X0027250D02*
X0026750Y0001500D01*
X0027250D02*
X0026750Y0002000D01*
X0027900Y0004780D02*
X0027400Y0004280D01*
X0027900D02*
X0027400Y0004780D01*
X0015250Y0007500D02*
X0014750Y0007000D01*
X0015250D02*
X0014750Y0007500D01*
X0013750D02*
X0013250Y0007000D01*
X0013750D02*
X0013250Y0007500D01*
X0024750Y0002000D02*
X0024250Y0001500D01*
X0024750D02*
X0024250Y0002000D01*
X0026500Y0001950D02*
X0026000Y0001450D01*
X0026500D02*
X0026000Y0001950D01*
X0027250Y0002000D02*
X0026750Y0001500D01*
X0027250D02*
X0026750Y0002000D01*
X0006850Y0029750D02*
X0006350Y0029250D01*
X0006850D02*
X0006350Y0029750D01*
X0007200Y0027100D02*
X0006700Y0026600D01*
X0007200D02*
X0006700Y0027100D01*
X0015900Y0010950D02*
X0015400Y0010450D01*
X0015900D02*
X0015400Y0010950D01*
X0020450D02*
X0019950Y0010450D01*
X0020450D02*
X0019950Y0010950D01*
X0020450Y0009350D02*
X0019950Y0008850D01*
X0020450D02*
X0019950Y0009350D01*
X0025500Y0008450D02*
X0025000Y0007950D01*
X0025500D02*
X0025000Y0008450D01*
X0033750Y0035700D02*
X0033250Y0035200D01*
X0033750D02*
X0033250Y0035700D01*
X0022750Y0024450D02*
X0022250Y0023950D01*
X0022750D02*
X0022250Y0024450D01*
X0028200Y0025200D02*
X0027700Y0024700D01*
X0028200D02*
X0027700Y0025200D01*
X0020500Y0018700D02*
X0020000Y0018200D01*
X0020500D02*
X0020000Y0018700D01*
X0020450Y0010950D02*
X0019950Y0010450D01*
X0020450D02*
X0019950Y0010950D01*
X0015900D02*
X0015400Y0010450D01*
X0015900D02*
X0015400Y0010950D01*
X0022750Y0024450D02*
X0022250Y0023950D01*
X0022750D02*
X0022250Y0024450D01*
Y0018700D02*
X0021750Y0018200D01*
X0022250D02*
X0021750Y0018700D01*
X0025750D02*
X0025250Y0018200D01*
X0025750D02*
X0025250Y0018700D01*
X0028050Y0019600D02*
X0027550Y0019100D01*
X0028050D02*
X0027550Y0019600D01*
X0003000Y0026000D02*
X0002500Y0025500D01*
X0003000D02*
X0002500Y0026000D01*
X0003000Y0027500D02*
X0002500Y0027000D01*
X0003000D02*
X0002500Y0027500D01*
X0004700D02*
X0004200Y0027000D01*
X0004700D02*
X0004200Y0027500D01*
X0004720Y0037370D02*
X0004220Y0036870D01*
X0004720D02*
X0004220Y0037370D01*
X-0000400Y0013050D02*
X-0000900Y0012550D01*
X-0000400D02*
X-0000900Y0013050D01*
X-0000400Y0010850D02*
X-0000900Y0010350D01*
X-0000400D02*
X-0000900Y0010850D01*
X-0000200Y0015450D02*
X-0000700Y0014950D01*
X-0000200D02*
X-0000700Y0015450D01*
X-0000400Y0013050D02*
X-0000900Y0012550D01*
X-0000400D02*
X-0000900Y0013050D01*
X0021350Y0013400D02*
X0020850Y0012900D01*
X0021350D02*
X0020850Y0013400D01*
X0022500Y0013050D02*
X0022000Y0012550D01*
X0022500D02*
X0022000Y0013050D01*
X0018600Y0024450D02*
X0018100Y0023950D01*
X0018600D02*
X0018100Y0024450D01*
X0022750D02*
X0022250Y0023950D01*
X0022750D02*
X0022250Y0024450D01*
X0022100Y0034250D02*
X0021600Y0033750D01*
X0022100D02*
X0021600Y0034250D01*
X0022750Y0024450D02*
X0022250Y0023950D01*
X0022750D02*
X0022250Y0024450D01*
X-0000200Y0015450D02*
X-0000700Y0014950D01*
X-0000200D02*
X-0000700Y0015450D01*
X-0000200Y0018400D02*
X-0000700Y0017900D01*
X-0000200D02*
X-0000700Y0018400D01*
X0000200Y0021050D02*
X-0000300Y0020550D01*
X0000200D02*
X-0000300Y0021050D01*
X-0000200Y0018400D02*
X-0000700Y0017900D01*
X-0000200D02*
X-0000700Y0018400D01*
X0007350Y0005950D02*
X0006850Y0005450D01*
X0007350D02*
X0006850Y0005950D01*
X0007350Y0009550D02*
X0006850Y0009050D01*
X0007350D02*
X0006850Y0009550D01*
X0021100Y0010600D02*
X0020600Y0010100D01*
X0021100D02*
X0020600Y0010600D01*
X0021350Y0013400D02*
X0020850Y0012900D01*
X0021350D02*
X0020850Y0013400D01*
X0007350Y0009550D02*
X0006850Y0009050D01*
X0007350D02*
X0006850Y0009550D01*
X0007350Y0005950D02*
X0006850Y0005450D01*
X0007350D02*
X0006850Y0005950D01*
X0007000Y0046750D02*
X0006500Y0046250D01*
X0007000D02*
X0006500Y0046750D01*
X0000200Y0021050D02*
X-0000300Y0020550D01*
X0000200D02*
X-0000300Y0021050D01*
X0000600Y0026000D02*
X0000100Y0025500D01*
X0000600D02*
X0000100Y0026000D01*
X0028200Y0025200D02*
X0027700Y0024700D01*
X0028200D02*
X0027700Y0025200D01*
X0027800Y0026500D02*
X0027300Y0026000D01*
X0027800D02*
X0027300Y0026500D01*
X0027750Y0027250D02*
X0027250Y0026750D01*
X0027750D02*
X0027250Y0027250D01*
X0027800Y0026500D02*
X0027300Y0026000D01*
X0027800D02*
X0027300Y0026500D01*
X0022250Y0018700D02*
X0021750Y0018200D01*
X0022250D02*
X0021750Y0018700D01*
X0020500D02*
X0020000Y0018200D01*
X0020500D02*
X0020000Y0018700D01*
X0024000D02*
X0023500Y0018200D01*
X0024000D02*
X0023500Y0018700D01*
X0022250D02*
X0021750Y0018200D01*
X0022250D02*
X0021750Y0018700D01*
X0025750D02*
X0025250Y0018200D01*
X0025750D02*
X0025250Y0018700D01*
X0024000D02*
X0023500Y0018200D01*
X0024000D02*
X0023500Y0018700D01*
X0004720Y0039980D02*
X0004220Y0039480D01*
X0004720D02*
X0004220Y0039980D01*
X0003250Y0043400D02*
X0002750Y0042900D01*
X0003250D02*
X0002750Y0043400D01*
X0001300Y0021850D02*
X0000800Y0021350D01*
X0001300D02*
X0000800Y0021850D01*
X0001300Y0023000D02*
X0000800Y0022500D01*
X0001300D02*
X0000800Y0023000D01*
X0023250Y0013050D02*
X0022750Y0012550D01*
X0023250D02*
X0022750Y0013050D01*
X0026250D02*
X0025750Y0012550D01*
X0026250D02*
X0025750Y0013050D01*
X0026250Y0014500D02*
X0025750Y0014000D01*
X0026250D02*
X0025750Y0014500D01*
X0028500Y0016150D02*
X0028000Y0015650D01*
X0028500D02*
X0028000Y0016150D01*
X0028500Y0020800D02*
X0028000Y0020300D01*
X0028500D02*
X0028000Y0020800D01*
X0012500D02*
X0012000Y0020300D01*
X0012500D02*
X0012000Y0020800D01*
X0013250Y0028250D02*
X0012750Y0027750D01*
X0013250D02*
X0012750Y0028250D01*
X0007550Y0021050D02*
X0007050Y0020550D01*
X0007550D02*
X0007050Y0021050D01*
X0008250Y0042750D02*
X0007750Y0042250D01*
X0008250D02*
X0007750Y0042750D01*
X0014750Y0044050D02*
X0014250Y0043550D01*
X0014750D02*
X0014250Y0044050D01*
X0025000Y0012400D02*
X0024500Y0011900D01*
X0025000D02*
X0024500Y0012400D01*
X0026400Y0009030D02*
X0025900Y0008530D01*
X0026400D02*
X0025900Y0009030D01*
X0010000Y0000900D02*
X0009500Y0000400D01*
X0010000D02*
X0009500Y0000900D01*
X0009450Y0001000D02*
X0008950Y0000500D01*
X0009450D02*
X0008950Y0001000D01*
X0009750Y0006650D02*
X0009250Y0006150D01*
X0009750D02*
X0009250Y0006650D01*
X0008500Y0004000D02*
X0008000Y0003500D01*
X0008500D02*
X0008000Y0004000D01*
X0027700Y0009650D02*
X0027200Y0009150D01*
X0027700D02*
X0027200Y0009650D01*
X0027700Y0014800D02*
X0027200Y0014300D01*
X0027700D02*
X0027200Y0014800D01*
X0013250Y0030500D02*
X0012750Y0030000D01*
X0013250D02*
X0012750Y0030500D01*
X0013250Y0028250D02*
X0012750Y0027750D01*
X0013250D02*
X0012750Y0028250D01*
X0011500Y0001500D02*
X0011000Y0001000D01*
X0011500D02*
X0011000Y0001500D01*
X0010750D02*
X0010250Y0001000D01*
X0010750D02*
X0010250Y0001500D01*
X0012750Y0001350D02*
X0012250Y0000850D01*
X0012750D02*
X0012250Y0001350D01*
X0012600Y0000850D02*
X0012100Y0000350D01*
X0012600D02*
X0012100Y0000850D01*
X0010750Y0001500D02*
X0010250Y0001000D01*
X0010750D02*
X0010250Y0001500D01*
X0010000Y0000900D02*
X0009500Y0000400D01*
X0010000D02*
X0009500Y0000900D01*
X0011750Y0007750D02*
X0011250Y0007250D01*
X0011750D02*
X0011250Y0007750D01*
X0013350Y0005200D02*
X0012850Y0004700D01*
X0013350D02*
X0012850Y0005200D01*
X0012750Y0001350D02*
X0012250Y0000850D01*
X0012750D02*
X0012250Y0001350D01*
X0008500Y0004000D02*
X0008000Y0003500D01*
X0008500D02*
X0008000Y0004000D01*
X0009450Y0001000D02*
X0008950Y0000500D01*
X0009450D02*
X0008950Y0001000D01*
X0013250Y0032500D02*
X0012750Y0032000D01*
X0013250D02*
X0012750Y0032500D01*
X0013250Y0030500D02*
X0012750Y0030000D01*
X0013250D02*
X0012750Y0030500D01*
X0013250Y0034750D02*
X0012750Y0034250D01*
X0013250D02*
X0012750Y0034750D01*
X0013250Y0032500D02*
X0012750Y0032000D01*
X0013250D02*
X0012750Y0032500D01*
X0008680Y0043880D02*
X0008180Y0043380D01*
X0008680D02*
X0008180Y0043880D01*
X0006850Y0041750D02*
X0006350Y0041250D01*
X0006850D02*
X0006350Y0041750D01*
X0016750Y0003600D02*
X0016250Y0003100D01*
X0016750D02*
X0016250Y0003600D01*
X0013250Y0037000D02*
X0012750Y0036500D01*
X0013250D02*
X0012750Y0037000D01*
X0013250Y0034750D02*
X0012750Y0034250D01*
X0013250D02*
X0012750Y0034750D01*
X0013250Y0039250D02*
X0012750Y0038750D01*
X0013250D02*
X0012750Y0039250D01*
X0013250Y0037000D02*
X0012750Y0036500D01*
X0013250D02*
X0012750Y0037000D01*
X0013250Y0041250D02*
X0012750Y0040750D01*
X0013250D02*
X0012750Y0041250D01*
X0013250Y0039250D02*
X0012750Y0038750D01*
X0013250D02*
X0012750Y0039250D01*
X0023450Y0012000D02*
X0022950Y0011500D01*
X0023450D02*
X0022950Y0012000D01*
X0021900Y0012550D02*
X0021400Y0012050D01*
X0021900D02*
X0021400Y0012550D01*
X0020150Y0016000D02*
X0019650Y0015500D01*
X0020150D02*
X0019650Y0016000D01*
X0019850Y0012800D02*
X0019350Y0012300D01*
X0019850D02*
X0019350Y0012800D01*
X0025000Y0012400D02*
X0024500Y0011900D01*
X0025000D02*
X0024500Y0012400D01*
X0027500Y0015100D02*
X0027000Y0014600D01*
X0027500D02*
X0027000Y0015100D01*
X0017240Y0033850D02*
X0016740Y0033350D01*
X0017240D02*
X0016740Y0033850D01*
X0017240Y0036100D02*
X0016740Y0035600D01*
X0017240D02*
X0016740Y0036100D01*
X0012350Y0035400D02*
X0011850Y0034900D01*
X0012350D02*
X0011850Y0035400D01*
X0015250Y0007500D02*
X0014750Y0007000D01*
X0015250D02*
X0014750Y0007500D01*
X0026950D02*
X0026450Y0007000D01*
X0026950D02*
X0026450Y0007500D01*
X0017850Y0008250D02*
X0017350Y0007750D01*
X0017850D02*
X0017350Y0008250D01*
X0017850Y0008750D02*
X0017350Y0008250D01*
X0017850D02*
X0017350Y0008750D01*
X0029852Y0023248D02*
X0029352Y0022748D01*
X0029852D02*
X0029352Y0023248D01*
X0011850Y0037600D02*
X0011350Y0037100D01*
X0011850D02*
X0011350Y0037600D01*
X0017400Y0026350D02*
X0016900Y0025850D01*
X0017400D02*
X0016900Y0026350D01*
X0015150D02*
X0014650Y0025850D01*
X0015150D02*
X0014650Y0026350D01*
X0011000Y0046550D02*
X0010500Y0046050D01*
X0011000D02*
X0010500Y0046550D01*
X0022450Y0044850D02*
X0021950Y0044350D01*
X0022450D02*
X0021950Y0044850D01*
X0017950Y0032050D02*
X0017450Y0031550D01*
X0017950D02*
X0017450Y0032050D01*
X0018550Y0018250D02*
X0018050Y0017750D01*
X0018550D02*
X0018050Y0018250D01*
X0011000Y0040800D02*
X0010500Y0040300D01*
X0011000D02*
X0010500Y0040800D01*
X0012600Y0039850D02*
X0012100Y0039350D01*
X0012600D02*
X0012100Y0039850D01*
X0023250Y0013050D02*
X0022750Y0012550D01*
X0023250D02*
X0022750Y0013050D01*
X0022500D02*
X0022000Y0012550D01*
X0022500D02*
X0022000Y0013050D01*
X0004720Y0039980D02*
X0004220Y0039480D01*
X0004720D02*
X0004220Y0039980D01*
X0004720Y0037370D02*
X0004220Y0036870D01*
X0004720D02*
X0004220Y0037370D01*
X0015250Y0007500D02*
X0014750Y0007000D01*
X0015250D02*
X0014750Y0007500D01*
X0015900Y0044700D02*
X0015400Y0044200D01*
X0015900D02*
X0015400Y0044700D01*
X0015600Y0029150D02*
X0015100Y0028650D01*
X0015600D02*
X0015100Y0029150D01*
X0021850Y0027400D02*
X0021350Y0026900D01*
X0021850D02*
X0021350Y0027400D01*
X0011450Y0033450D02*
X0010950Y0032950D01*
X0011450D02*
X0010950Y0033450D01*
X0015600Y0020470D02*
X0015100Y0019970D01*
X0015600D02*
X0015100Y0020470D01*
X0019550D02*
X0019050Y0019970D01*
X0019550D02*
X0019050Y0020470D01*
X0019850Y0025650D02*
X0019350Y0025150D01*
X0019850D02*
X0019350Y0025650D01*
X0016350Y0015650D02*
X0015850Y0015150D01*
X0016350D02*
X0015850Y0015650D01*
X0016250Y0043250D02*
X0015750Y0042750D01*
X0016250D02*
X0015750Y0043250D01*
X0011500Y0003150D02*
X0011000Y0002650D01*
X0011500D02*
X0011000Y0003150D01*
X0011500Y0012650D02*
X0011000Y0012150D01*
X0011500D02*
X0011000Y0012650D01*
X0012150Y0031150D02*
X0011650Y0030650D01*
X0012150D02*
X0011650Y0031150D01*
X0000750Y0028000D02*
X0000250Y0027500D01*
X0000750D02*
X0000250Y0028000D01*
X0001750Y0020450D02*
X0001250Y0019950D01*
X0001750D02*
X0001250Y0020450D01*
X0033600Y0042500D02*
X0033100Y0042000D01*
X0033600D02*
X0033100Y0042500D01*
X0027950Y0042250D02*
X0027450Y0041750D01*
X0027950D02*
X0027450Y0042250D01*
X0020650Y0026950D02*
X0020150Y0026450D01*
X0020650D02*
X0020150Y0026950D01*
X0021600Y0015550D02*
X0021100Y0015050D01*
X0021600D02*
X0021100Y0015550D01*
X0017240Y0038350D02*
X0016740Y0037850D01*
X0017240D02*
X0016740Y0038350D01*
X0017240Y0040600D02*
X0016740Y0040100D01*
X0017240D02*
X0016740Y0040600D01*
X0010900Y0048250D02*
X0010400Y0047750D01*
X0010900D02*
X0010400Y0048250D01*
X0025300Y0046760D02*
X0024800Y0046260D01*
X0025300D02*
X0024800Y0046760D01*
X0010900Y0006050D02*
X0010400Y0005550D01*
X0010900D02*
X0010400Y0006050D01*
X0017000Y0007000D02*
X0016500Y0006500D01*
X0017000D02*
X0016500Y0007000D01*
X0016614Y0013914D02*
X0016114Y0013414D01*
X0016614D02*
X0016114Y0013914D01*
X0033300Y0042150D02*
X0032800Y0041650D01*
X0033300D02*
X0032800Y0042150D01*
X0027950Y0041750D02*
X0027450Y0041250D01*
X0027950D02*
X0027450Y0041750D01*
X0005250Y0036750D02*
X0004750Y0036250D01*
X0005250D02*
X0004750Y0036750D01*
X0007000D02*
X0006500Y0036250D01*
X0007000D02*
X0006500Y0036750D01*
X0005250Y0039250D02*
X0004750Y0038750D01*
X0005250D02*
X0004750Y0039250D01*
X0006950D02*
X0006450Y0038750D01*
X0006950D02*
X0006450Y0039250D01*
X0019550Y0017500D02*
X0019050Y0017000D01*
X0019550D02*
X0019050Y0017500D01*
X0019900Y0011550D02*
X0019400Y0011050D01*
X0019900D02*
X0019400Y0011550D01*
X0027950Y0041750D02*
X0027450Y0041250D01*
X0027950D02*
X0027450Y0041750D01*
X0025500D02*
X0025000Y0041250D01*
X0025500D02*
X0025000Y0041750D01*
X0025700Y0032400D02*
X0025200Y0031900D01*
X0025700D02*
X0025200Y0032400D01*
X0034000Y0038450D02*
X0033500Y0037950D01*
X0034000D02*
X0033500Y0038450D01*
X0026250Y0038250D02*
X0025750Y0037750D01*
X0026250D02*
X0025750Y0038250D01*
X0026250Y0022250D02*
X0025750Y0021750D01*
X0026250D02*
X0025750Y0022250D01*
X0022250Y0017350D02*
X0021750Y0016850D01*
X0022250D02*
X0021750Y0017350D01*
X0022050Y0011600D02*
X0021550Y0011100D01*
X0022050D02*
X0021550Y0011600D01*
X0014950Y0018300D02*
X0014450Y0017800D01*
X0014950D02*
X0014450Y0018300D01*
X0015400Y0009200D02*
X0014900Y0008700D01*
X0015400D02*
X0014900Y0009200D01*
X0028300Y0009600D02*
X0027800Y0009100D01*
X0028300D02*
X0027800Y0009600D01*
X0005250Y0034250D02*
X0004750Y0033750D01*
X0005250D02*
X0004750Y0034250D01*
X0006900D02*
X0006400Y0033750D01*
X0006900D02*
X0006400Y0034250D01*
X0033300Y0041250D02*
X0032800Y0040750D01*
X0033300D02*
X0032800Y0041250D01*
X0027950D02*
X0027450Y0040750D01*
X0027950D02*
X0027450Y0041250D01*
X0026000Y0032250D02*
X0025500Y0031750D01*
X0026000D02*
X0025500Y0032250D01*
X0025850Y0042350D02*
X0025350Y0041850D01*
X0025850D02*
X0025350Y0042350D01*
X-0000200Y0027250D02*
X-0000700Y0026750D01*
X-0000200D02*
X-0000700Y0027250D01*
X-0000600Y0014250D02*
X-0001100Y0013750D01*
X-0000600D02*
X-0001100Y0014250D01*
X0012650Y0041850D02*
X0012150Y0041350D01*
X0012650D02*
X0012150Y0041850D01*
X0008850Y0045600D02*
X0008350Y0045100D01*
X0008850D02*
X0008350Y0045600D01*
X0024400Y0044000D02*
X0023900Y0043500D01*
X0024400D02*
X0023900Y0044000D01*
X0002150Y0042500D02*
X0001650Y0042000D01*
X0002150D02*
X0001650Y0042500D01*
X0002280Y0020930D02*
X0001780Y0020430D01*
X0002280D02*
X0001780Y0020930D01*
X0017970Y0030030D02*
X0017470Y0029530D01*
X0017970D02*
X0017470Y0030030D01*
X0017250Y0018100D02*
X0016750Y0017600D01*
X0017250D02*
X0016750Y0018100D01*
X0015600Y0028550D02*
X0015100Y0028050D01*
X0015600D02*
X0015100Y0028550D01*
X0018000Y0027700D02*
X0017500Y0027200D01*
X0018000D02*
X0017500Y0027700D01*
X0002600Y0033150D02*
X0002100Y0032650D01*
X0002600D02*
X0002100Y0033150D01*
X0001200Y0012000D02*
X0000700Y0011500D01*
X0001200D02*
X0000700Y0012000D01*
X0010600Y0047700D02*
X0010100Y0047200D01*
X0010600D02*
X0010100Y0047700D01*
X0011250D02*
X0010750Y0047200D01*
X0011250D02*
X0010750Y0047700D01*
X0012000Y0016100D02*
X0011500Y0015600D01*
X0012000D02*
X0011500Y0016100D01*
X0002850Y0015500D02*
X0002350Y0015000D01*
X0002850D02*
X0002350Y0015500D01*
X0003400Y0016450D02*
X0002900Y0015950D01*
X0003400D02*
X0002900Y0016450D01*
X0025100Y0034850D02*
X0024600Y0034350D01*
X0025100D02*
X0024600Y0034850D01*
X0033350Y0033600D02*
X0032850Y0033100D01*
X0033350D02*
X0032850Y0033600D01*
X0022750Y0019750D02*
X0022250Y0019250D01*
X0022750D02*
X0022250Y0019750D01*
X0022650Y0016150D02*
X0022150Y0015650D01*
X0022650D02*
X0022150Y0016150D01*
X0014700Y0015600D02*
X0014200Y0015100D01*
X0014700D02*
X0014200Y0015600D01*
X0008250Y0008750D02*
X0007750Y0008250D01*
X0008250D02*
X0007750Y0008750D01*
X0007550Y0021050D02*
X0007050Y0020550D01*
X0007550D02*
X0007050Y0021050D01*
X0025350Y0020250D02*
X0024850Y0019750D01*
X0025350D02*
X0024850Y0020250D01*
X0024950Y0016500D02*
X0024450Y0016000D01*
X0024950D02*
X0024450Y0016500D01*
X0015150Y0015800D02*
X0014650Y0015300D01*
X0015150D02*
X0014650Y0015800D01*
X0020400Y0032000D02*
X0019900Y0031500D01*
X0020400D02*
X0019900Y0032000D01*
X0021350Y0015300D02*
X0020850Y0014800D01*
X0021350D02*
X0020850Y0015300D01*
X0022150Y0007800D02*
X0021650Y0007300D01*
X0022150D02*
X0021650Y0007800D01*
X0014750Y0009000D02*
X0014250Y0008500D01*
X0014750D02*
X0014250Y0009000D01*
X0014550Y0018300D02*
X0014050Y0017800D01*
X0014550D02*
X0014050Y0018300D01*
X0018900Y0030000D02*
X0018400Y0029500D01*
X0018900D02*
X0018400Y0030000D01*
X0005250Y0032000D02*
X0004750Y0031500D01*
X0005250D02*
X0004750Y0032000D01*
X0006950D02*
X0006450Y0031500D01*
X0006950D02*
X0006450Y0032000D01*
X0020100Y0020250D02*
X0019600Y0019750D01*
X0020100D02*
X0019600Y0020250D01*
X0019800Y0015500D02*
X0019300Y0015000D01*
X0019800D02*
X0019300Y0015500D01*
X0014400Y0015350D02*
X0013900Y0014850D01*
X0014400D02*
X0013900Y0015350D01*
X0018000Y0011550D02*
X0017500Y0011050D01*
X0018000D02*
X0017500Y0011550D01*
X0017256Y0017644D02*
X0016756Y0017144D01*
X0017256D02*
X0016756Y0017644D01*
X0002200Y0026900D02*
X0001700Y0026400D01*
X0002200D02*
X0001700Y0026900D01*
X0002220Y0035220D02*
X0001720Y0034720D01*
X0002220D02*
X0001720Y0035220D01*
X0027950Y0031250D02*
X0027450Y0030750D01*
X0027950D02*
X0027450Y0031250D01*
X0033350D02*
X0032850Y0030750D01*
X0033350D02*
X0032850Y0031250D01*
X0026250Y0015850D02*
X0025750Y0015350D01*
X0026250D02*
X0025750Y0015850D01*
X0027900Y0016000D02*
X0027400Y0015500D01*
X0027900D02*
X0027400Y0016000D01*
X0025100Y0032750D02*
X0024600Y0032250D01*
X0025100D02*
X0024600Y0032750D01*
X0024550Y0027500D02*
X0024050Y0027000D01*
X0024550D02*
X0024050Y0027500D01*
X0025850Y0027000D02*
X0025350Y0026500D01*
X0025850D02*
X0025350Y0027000D01*
X0026000Y0032250D02*
X0025500Y0031750D01*
X0026000D02*
X0025500Y0032250D01*
X0017750Y0014500D02*
X0017250Y0014000D01*
X0017750D02*
X0017250Y0014500D01*
X0007000Y0015000D02*
X0006500Y0014500D01*
X0007000D02*
X0006500Y0015000D01*
X0024600Y0012600D02*
X0024100Y0012100D01*
X0024600D02*
X0024100Y0012600D01*
X0014960Y0012850D02*
X0014460Y0012350D01*
X0014960D02*
X0014460Y0012850D01*
X0025150Y0032250D02*
X0024650Y0031750D01*
X0025150D02*
X0024650Y0032250D01*
X0025150Y0026900D02*
X0024650Y0026400D01*
X0025150D02*
X0024650Y0026900D01*
X0024050Y0011600D02*
X0023550Y0011100D01*
X0024050D02*
X0023550Y0011600D01*
X0023450Y0017000D02*
X0022950Y0016500D01*
X0023450D02*
X0022950Y0017000D01*
Y0042450D02*
X0022450Y0041950D01*
X0022950D02*
X0022450Y0042450D01*
X0024450Y0038650D02*
X0023950Y0038150D01*
X0024450D02*
X0023950Y0038650D01*
X0009780Y0013420D02*
X0009280Y0012920D01*
X0009780D02*
X0009280Y0013420D01*
X0009600Y0017750D02*
X0009100Y0017250D01*
X0009600D02*
X0009100Y0017750D01*
X0013300Y0018550D02*
X0012800Y0018050D01*
X0013300D02*
X0012800Y0018550D01*
X0003500Y0031300D02*
X0003000Y0030800D01*
X0003500D02*
X0003000Y0031300D01*
X0004750Y0015750D02*
X0004250Y0015250D01*
X0004750D02*
X0004250Y0015750D01*
X0025600Y0045250D02*
X0025100Y0044750D01*
X0025600D02*
X0025100Y0045250D01*
X0033300Y0043250D02*
X0032800Y0042750D01*
X0033300D02*
X0032800Y0043250D01*
X0020350Y0015500D02*
X0019850Y0015000D01*
X0020350D02*
X0019850Y0015500D01*
X0026000Y0024400D02*
X0025500Y0023900D01*
X0026000D02*
X0025500Y0024400D01*
X0025850Y0027000D02*
X0025350Y0026500D01*
X0025850D02*
X0025350Y0027000D01*
X0023250Y0018350D02*
X0022750Y0017850D01*
X0023250D02*
X0022750Y0018350D01*
X0003750Y0011250D02*
X0003250Y0010750D01*
X0003750D02*
X0003250Y0011250D01*
X0003150Y0032800D02*
X0002650Y0032300D01*
X0003150D02*
X0002650Y0032800D01*
X0020530Y0015970D02*
X0020030Y0015470D01*
X0020530D02*
X0020030Y0015970D01*
X0013250Y0014250D02*
X0012750Y0013750D01*
X0013250D02*
X0012750Y0014250D01*
X0013050Y0014750D02*
X0012550Y0014250D01*
X0013050D02*
X0012550Y0014750D01*
X0026750Y0027500D02*
X0026250Y0027000D01*
X0026750D02*
X0026250Y0027500D01*
X0026750Y0022250D02*
X0026250Y0021750D01*
X0026750D02*
X0026250Y0022250D01*
X0014450Y0016200D02*
X0013950Y0015700D01*
X0014450D02*
X0013950Y0016200D01*
X0010000Y0015750D02*
X0009500Y0015250D01*
X0010000D02*
X0009500Y0015750D01*
X0026900Y0039250D02*
X0026400Y0038750D01*
X0026900D02*
X0026400Y0039250D01*
X0033300Y0039700D02*
X0032800Y0039200D01*
X0033300D02*
X0032800Y0039700D01*
X0025050Y0033200D02*
X0024550Y0032700D01*
X0025050D02*
X0024550Y0033200D01*
X0021650Y0040850D02*
X0021150Y0040350D01*
X0021650D02*
X0021150Y0040850D01*
X0026300Y0016300D02*
X0025800Y0015800D01*
X0026300D02*
X0025800Y0016300D01*
X0026300Y0019700D02*
X0025800Y0019200D01*
X0026300D02*
X0025800Y0019700D01*
X0019750Y0028750D02*
X0019250Y0028250D01*
X0019750D02*
X0019250Y0028750D01*
X0031650D02*
X0031150Y0028250D01*
X0031650D02*
X0031150Y0028750D01*
X0012550Y0016200D02*
X0012050Y0015700D01*
X0012550D02*
X0012050Y0016200D01*
X0012800Y0016000D02*
X0012300Y0015500D01*
X0012800D02*
X0012300Y0016000D01*
X0018200Y0002750D02*
X0017700Y0002250D01*
X0018200D02*
X0017700Y0002750D01*
X0018200Y0009800D02*
X0017700Y0009300D01*
X0018200D02*
X0017700Y0009800D01*
X0003500Y0022726D02*
X0003000Y0022226D01*
X0003500D02*
X0003000Y0022726D01*
X0002900Y0034950D02*
X0002400Y0034450D01*
X0002900D02*
X0002400Y0034950D01*
X0033300Y0043750D02*
X0032800Y0043250D01*
X0033300D02*
X0032800Y0043750D01*
X0027800Y0046750D02*
X0027300Y0046250D01*
X0027800D02*
X0027300Y0046750D01*
X0007050Y0014450D02*
X0006550Y0013950D01*
X0007050D02*
X0006550Y0014450D01*
X0016300Y0013950D02*
X0015800Y0013450D01*
X0016300D02*
X0015800Y0013950D01*
X0004250Y0016900D02*
X0003750Y0016400D01*
X0004250D02*
X0003750Y0016900D01*
X0003950Y0030350D02*
X0003450Y0029850D01*
X0003950D02*
X0003450Y0030350D01*
X0026900Y0006750D02*
X0026400Y0006250D01*
X0026900D02*
X0026400Y0006750D01*
X0016750Y0007250D02*
X0016250Y0006750D01*
X0016750D02*
X0016250Y0007250D01*
X0015300Y0018300D02*
X0014800Y0017800D01*
X0015300D02*
X0014800Y0018300D01*
X0032050Y0027500D02*
X0031550Y0027000D01*
X0032050D02*
X0031550Y0027500D01*
X0034000D02*
X0033500Y0027000D01*
X0034000D02*
X0033500Y0027500D01*
X0007550Y0015400D02*
X0007050Y0014900D01*
X0007550D02*
X0007050Y0015400D01*
X0016220Y0015130D02*
X0015720Y0014630D01*
X0016220D02*
X0015720Y0015130D01*
X0021950Y0015600D02*
X0021450Y0015100D01*
X0021950D02*
X0021450Y0015600D01*
X0021650Y0030750D02*
X0021150Y0030250D01*
X0021650D02*
X0021150Y0030750D01*
X0006250Y0021600D02*
X0005750Y0021100D01*
X0006250D02*
X0005750Y0021600D01*
X0017400Y0021200D02*
X0016900Y0020700D01*
X0017400D02*
X0016900Y0021200D01*
X0024450Y0038650D02*
X0023950Y0038150D01*
X0024450D02*
X0023950Y0038650D01*
X0025750Y0022250D02*
X0025250Y0021750D01*
X0025750D02*
X0025250Y0022250D01*
X0017008Y0013942D02*
X0016508Y0013442D01*
X0017008D02*
X0016508Y0013942D01*
X0016650Y0010050D02*
X0016150Y0009550D01*
X0016650D02*
X0016150Y0010050D01*
X0007400Y0010250D02*
X0006900Y0009750D01*
X0007400D02*
X0006900Y0010250D01*
X0000675Y-0017700D02*
X0000425Y-0017950D01*
X0000925D02*
X0000675Y-0017700D01*
X0000425Y-0017950D02*
X0000925D01*
X0000425Y-0016250D02*
Y-0016450D01*
X0000675Y-0016500D02*
X0000425Y-0016250D01*
X0000925D02*
X0000675Y-0016500D01*
X0000925Y-0016450D02*
Y-0016250D01*
X0000675Y-0016200D02*
X0000925Y-0016450D01*
X0000425D02*
X0000675Y-0016200D01*
X0000925Y-0014850D02*
X0000425D01*
X0000675Y-0014600D02*
Y-0015100D01*
X0000425Y-0013100D02*
Y-0013350D01*
X0000675Y-0013100D02*
X0000425D01*
X0000675Y-0013600D02*
Y-0013100D01*
X0000925Y-0013600D02*
X0000675D01*
X0000925Y-0013350D02*
Y-0013600D01*
X0000425Y-0013350D02*
X0000925D01*
X0000425Y-0011600D02*
Y-0012100D01*
X0000925Y-0011600D02*
X0000425D01*
X0000925Y-0012100D02*
Y-0011600D01*
X0000425Y-0012100D02*
X0000925D01*
Y-0011600D02*
X0000425Y-0012100D01*
X0000925D02*
X0000425Y-0011600D01*
X0000675Y-0010100D02*
X0000425Y-0010350D01*
X0000925D02*
X0000675Y-0010100D01*
Y-0010600D02*
X0000925Y-0010350D01*
X0000425D02*
X0000675Y-0010600D01*
X0000925Y-0008600D02*
X0000425Y-0009100D01*
X0000925D02*
X0000425Y-0008600D01*
X0036150Y-0020650D02*
X-0001200D01*
X0036100Y-0020600D02*
X-0001150D01*
X0036100Y-0018600D02*
X-0001150D01*
X0036100Y-0017100D02*
X-0001150D01*
X0036100Y-0015600D02*
X-0001150D01*
X0036100Y-0014100D02*
X-0001150D01*
X0036100Y-0012600D02*
X-0001150D01*
X0036100Y-0011100D02*
X-0001150D01*
X0036100Y-0009600D02*
X-0001150D01*
X0036100Y-0008100D02*
X-0001150D01*
X0036100Y-0008050D02*
X-0001150D01*
X0036100Y-0006100D02*
X-0001150D01*
X0036100Y-0006050D02*
X-0001150D01*
X0036100Y-0004100D02*
X-0001150D01*
X0036150Y-0004050D02*
X-0001200D01*
X0036150Y-0020600D02*
Y-0004100D01*
X0036100Y-0020600D02*
Y-0004100D01*
X0024558Y-0020600D02*
Y-0006100D01*
X0019008Y-0020600D02*
Y-0006100D01*
X0010942Y-0018600D02*
Y-0006100D01*
X0002550Y-0018600D02*
Y-0006100D01*
X0002500Y-0018600D02*
Y-0006100D01*
X-0001200Y-0020600D02*
Y-0004100D01*
X-0001150Y-0020600D02*
Y-0004100D01*
X0034252Y-0001969D02*
Y0049212D01*
X-0001181D01*
Y-0001969D01*
X0034252D01*
X0030250Y0016750D02*
X0029750Y0016250D01*
X0030250D02*
X0029750Y0016750D01*
X0030750D02*
X0030250Y0016250D01*
X0030750D02*
X0030250Y0016750D01*
X0031250D02*
X0030750Y0016250D01*
X0031250D02*
X0030750Y0016750D01*
X0031750D02*
X0031250Y0016250D01*
X0031750D02*
X0031250Y0016750D01*
X0032250D02*
X0031750Y0016250D01*
X0032250D02*
X0031750Y0016750D01*
X0032750D02*
X0032250Y0016250D01*
X0032750D02*
X0032250Y0016750D01*
X0033250D02*
X0032750Y0016250D01*
X0033250D02*
X0032750Y0016750D01*
X0033250Y0017750D02*
X0032750Y0017250D01*
X0033250D02*
X0032750Y0017750D01*
X0032250Y0017250D01*
X0032750D02*
X0032250Y0017750D01*
X0031750Y0017250D01*
X0032250D02*
X0031750Y0017750D01*
X0031250Y0017250D01*
X0031750D02*
X0031250Y0017750D01*
X0030750Y0017250D01*
X0031250D02*
X0030750Y0017750D01*
X0030250Y0017250D01*
X0030750D02*
X0030250Y0017750D01*
X0029750Y0017250D01*
X0030250D02*
X0029750Y0017750D01*
X0030250Y0018750D02*
X0029750Y0018250D01*
X0030250D02*
X0029750Y0018750D01*
X0030750D02*
X0030250Y0018250D01*
X0030750D02*
X0030250Y0018750D01*
X0031250D02*
X0030750Y0018250D01*
X0031250D02*
X0030750Y0018750D01*
X0031750D02*
X0031250Y0018250D01*
X0031750D02*
X0031250Y0018750D01*
X0032250D02*
X0031750Y0018250D01*
X0032250D02*
X0031750Y0018750D01*
X0032750D02*
X0032250Y0018250D01*
X0032750D02*
X0032250Y0018750D01*
X0033250D02*
X0032750Y0018250D01*
X0033250D02*
X0032750Y0018750D01*
X0033250Y0019750D02*
X0032750Y0019250D01*
X0033250D02*
X0032750Y0019750D01*
X0032250Y0019250D01*
X0032750D02*
X0032250Y0019750D01*
X0031750Y0019250D01*
X0032250D02*
X0031750Y0019750D01*
X0031250Y0019250D01*
X0031750D02*
X0031250Y0019750D01*
X0030750Y0019250D01*
X0031250D02*
X0030750Y0019750D01*
X0030250Y0019250D01*
X0030750D02*
X0030250Y0019750D01*
X0029750Y0019250D01*
X0030250D02*
X0029750Y0019750D01*
X0031250Y0013250D02*
X0030750Y0012750D01*
X0031250D02*
X0030750Y0013250D01*
X0031250Y0013750D02*
X0030750Y0013250D01*
X0031250D02*
X0030750Y0013750D01*
X0031250Y0014250D02*
X0030750Y0013750D01*
X0031250D02*
X0030750Y0014250D01*
X0031250Y0014750D02*
X0030750Y0014250D01*
X0031250D02*
X0030750Y0014750D01*
X0031250Y0015250D02*
X0030750Y0014750D01*
X0031250D02*
X0030750Y0015250D01*
X0031750Y0013250D02*
X0031250Y0012750D01*
X0031750D02*
X0031250Y0013250D01*
X0031750Y0013750D02*
X0031250Y0013250D01*
X0031750D02*
X0031250Y0013750D01*
X0031750Y0014250D02*
X0031250Y0013750D01*
X0031750D02*
X0031250Y0014250D01*
X0031750Y0014750D02*
X0031250Y0014250D01*
X0031750D02*
X0031250Y0014750D01*
X0031750Y0015250D02*
X0031250Y0014750D01*
X0031750D02*
X0031250Y0015250D01*
X0032250Y0013250D02*
X0031750Y0012750D01*
X0032250D02*
X0031750Y0013250D01*
X0032250Y0013750D02*
X0031750Y0013250D01*
X0032250D02*
X0031750Y0013750D01*
X0032250Y0014250D02*
X0031750Y0013750D01*
X0032250D02*
X0031750Y0014250D01*
X0032250Y0014750D02*
X0031750Y0014250D01*
X0032250D02*
X0031750Y0014750D01*
X0032250Y0015250D02*
X0031750Y0014750D01*
X0032250D02*
X0031750Y0015250D01*
X0033250Y0013250D02*
X0032750Y0012750D01*
X0033250D02*
X0032750Y0013250D01*
X0033250Y0013750D02*
X0032750Y0013250D01*
X0033250D02*
X0032750Y0013750D01*
X0033250Y0014250D02*
X0032750Y0013750D01*
X0033250D02*
X0032750Y0014250D01*
X0033250Y0014750D02*
X0032750Y0014250D01*
X0033250D02*
X0032750Y0014750D01*
X0033250Y0015250D02*
X0032750Y0014750D01*
X0033250D02*
X0032750Y0015250D01*
X0015250Y0007000D02*
X0014750Y0006500D01*
X0015250D02*
X0014750Y0007000D01*
X0014250Y0006500D01*
X0014750D02*
X0014250Y0007000D01*
X0014750Y0007500D02*
X0014250Y0007000D01*
X0014750D02*
X0014250Y0007500D01*
X0015250Y0008000D02*
X0014750Y0007500D01*
X0015250D02*
X0014750Y0008000D01*
X0014250Y0007500D01*
X0014750D02*
X0014250Y0008000D01*
X0015750Y0007000D02*
X0015250Y0006500D01*
X0015750D02*
X0015250Y0007000D01*
X0015750Y0008000D02*
X0015250Y0007500D01*
X0015750D02*
X0015250Y0008000D01*
X0015750Y0007500D02*
X0015250Y0007000D01*
X0015750D02*
X0015250Y0007500D01*
X0015750Y0006500D02*
X0015250Y0006000D01*
X0015750D02*
X0015250Y0006500D01*
X0015750Y0008500D02*
X0015250Y0008000D01*
X0015750D02*
X0015250Y0008500D01*
X0014750Y0006500D02*
X0014250Y0006000D01*
X0014750D02*
X0014250Y0006500D01*
X0015250D02*
X0014750Y0006000D01*
X0015250D02*
X0014750Y0006500D01*
X0015250Y0008500D02*
X0014750Y0008000D01*
X0015250D02*
X0014750Y0008500D01*
X0014250Y0008000D01*
X0014750D02*
X0014250Y0008500D01*
X0003250Y-0000750D02*
X0002750Y-0001250D01*
X0003250D02*
X0002750Y-0000750D01*
X0003750D02*
X0003250Y-0001250D01*
X0003750D02*
X0003250Y-0000750D01*
X0004250D02*
X0003750Y-0001250D01*
X0004250D02*
X0003750Y-0000750D01*
X0004750D02*
X0004250Y-0001250D01*
X0004750D02*
X0004250Y-0000750D01*
X0005250D02*
X0004750Y-0001250D01*
X0005250D02*
X0004750Y-0000750D01*
X0005250Y-0000250D02*
X0004750Y-0000750D01*
X0005250D02*
X0004750Y-0000250D01*
X0004250Y-0000750D01*
X0004750D02*
X0004250Y-0000250D01*
X0003750Y-0000750D01*
X0004250D02*
X0003750Y-0000250D01*
X0003250Y-0000750D01*
X0003750D02*
X0003250Y-0000250D01*
X0002750Y-0000750D01*
X0003250D02*
X0002750Y-0000250D01*
Y-0000750D02*
X0002250Y-0001250D01*
X0002750D02*
X0002250Y-0000750D01*
X0002750Y-0000250D02*
X0002250Y-0000750D01*
X0002750D02*
X0002250Y-0000250D01*
X0003250Y0000250D02*
X0002750Y-0000250D01*
X0003250D02*
X0002750Y0000250D01*
X0003750D02*
X0003250Y-0000250D01*
X0003750D02*
X0003250Y0000250D01*
X0004250D02*
X0003750Y-0000250D01*
X0004250D02*
X0003750Y0000250D01*
X0004750D02*
X0004250Y-0000250D01*
X0004750D02*
X0004250Y0000250D01*
X0005250D02*
X0004750Y-0000250D01*
X0005250D02*
X0004750Y0000250D01*
X0005250Y0000750D02*
X0004750Y0000250D01*
X0005250D02*
X0004750Y0000750D01*
X0004250Y0000250D01*
X0004750D02*
X0004250Y0000750D01*
X0003750Y0000250D01*
X0004250D02*
X0003750Y0000750D01*
X0003250Y0000250D01*
X0003750D02*
X0003250Y0000750D01*
X0002750Y0000250D01*
X0003250D02*
X0002750Y0000750D01*
Y0000250D02*
X0002250Y-0000250D01*
X0002750D02*
X0002250Y0000250D01*
X0002750Y0000750D02*
X0002250Y0000250D01*
X0002750D02*
X0002250Y0000750D01*
X0002750Y0001250D02*
X0002250Y0000750D01*
X0002750D02*
X0002250Y0001250D01*
X0003250D02*
X0002750Y0000750D01*
X0003250D02*
X0002750Y0001250D01*
X0003750D02*
X0003250Y0000750D01*
X0003750D02*
X0003250Y0001250D01*
X0004250D02*
X0003750Y0000750D01*
X0004250D02*
X0003750Y0001250D01*
X0004750D02*
X0004250Y0000750D01*
X0004750D02*
X0004250Y0001250D01*
X0005250D02*
X0004750Y0000750D01*
X0005250D02*
X0004750Y0001250D01*
X0005250Y0001750D02*
X0004750Y0001250D01*
X0005250D02*
X0004750Y0001750D01*
X0004250Y0001250D01*
X0004750D02*
X0004250Y0001750D01*
X0003750Y0001250D01*
X0004250D02*
X0003750Y0001750D01*
X0003250Y0001250D01*
X0003750D02*
X0003250Y0001750D01*
X0002750Y0001250D01*
X0003250D02*
X0002750Y0001750D01*
X0002250Y0001250D01*
X0002750D02*
X0002250Y0001750D01*
X0002750Y0002250D02*
X0002250Y0001750D01*
X0002750D02*
X0002250Y0002250D01*
X0003250D02*
X0002750Y0001750D01*
X0003250D02*
X0002750Y0002250D01*
X0003750D02*
X0003250Y0001750D01*
X0003750D02*
X0003250Y0002250D01*
X0004250D02*
X0003750Y0001750D01*
X0004250D02*
X0003750Y0002250D01*
X0004750D02*
X0004250Y0001750D01*
X0004750D02*
X0004250Y0002250D01*
X0005250D02*
X0004750Y0001750D01*
X0005250D02*
X0004750Y0002250D01*
X0005250Y0002750D02*
X0004750Y0002250D01*
X0005250D02*
X0004750Y0002750D01*
X0004250Y0002250D01*
X0004750D02*
X0004250Y0002750D01*
X0003750Y0002250D01*
X0004250D02*
X0003750Y0002750D01*
X0003250Y0002250D01*
X0003750D02*
X0003250Y0002750D01*
X0002750Y0002250D01*
X0003250D02*
X0002750Y0002750D01*
X0002250Y0002250D01*
X0002750D02*
X0002250Y0002750D01*
X0003750Y0005250D02*
X0003250Y0004750D01*
X0003750D02*
X0003250Y0005250D01*
X0004250D02*
X0003750Y0004750D01*
X0004250D02*
X0003750Y0005250D01*
X0004750D02*
X0004250Y0004750D01*
X0004750D02*
X0004250Y0005250D01*
X0005250D02*
X0004750Y0004750D01*
X0005250D02*
X0004750Y0005250D01*
X0005250Y0005750D02*
X0004750Y0005250D01*
X0005250D02*
X0004750Y0005750D01*
X0004250Y0005250D01*
X0004750D02*
X0004250Y0005750D01*
X0003750Y0005250D01*
X0004250D02*
X0003750Y0005750D01*
X0003250Y0005250D01*
X0003750D02*
X0003250Y0005750D01*
X0002750Y0005250D01*
X0003250D02*
X0002750Y0005750D01*
X0003250Y0005250D02*
X0002750Y0004750D01*
X0003250D02*
X0002750Y0005250D01*
X0002250Y0004750D01*
X0002750D02*
X0002250Y0005250D01*
X0002750Y0005750D02*
X0002250Y0005250D01*
X0002750D02*
X0002250Y0005750D01*
X0002750Y0006250D02*
X0002250Y0005750D01*
X0002750D02*
X0002250Y0006250D01*
X0003250D02*
X0002750Y0005750D01*
X0003250D02*
X0002750Y0006250D01*
X0003750D02*
X0003250Y0005750D01*
X0003750D02*
X0003250Y0006250D01*
X0004250D02*
X0003750Y0005750D01*
X0004250D02*
X0003750Y0006250D01*
X0004750D02*
X0004250Y0005750D01*
X0004750D02*
X0004250Y0006250D01*
X0005250D02*
X0004750Y0005750D01*
X0005250D02*
X0004750Y0006250D01*
X0005250Y0006750D02*
X0004750Y0006250D01*
X0005250D02*
X0004750Y0006750D01*
X0004250Y0006250D01*
X0004750D02*
X0004250Y0006750D01*
X0003750Y0006250D01*
X0004250D02*
X0003750Y0006750D01*
X0003250Y0006250D01*
X0003750D02*
X0003250Y0006750D01*
X0002750Y0006250D01*
X0003250D02*
X0002750Y0006750D01*
X0002250Y0006250D01*
X0002750D02*
X0002250Y0006750D01*
X0002750Y0007250D02*
X0002250Y0006750D01*
X0002750D02*
X0002250Y0007250D01*
X0003250D02*
X0002750Y0006750D01*
X0003250D02*
X0002750Y0007250D01*
X0003750D02*
X0003250Y0006750D01*
X0003750D02*
X0003250Y0007250D01*
X0004250D02*
X0003750Y0006750D01*
X0004250D02*
X0003750Y0007250D01*
X0004750D02*
X0004250Y0006750D01*
X0004750D02*
X0004250Y0007250D01*
X0005250D02*
X0004750Y0006750D01*
X0005250D02*
X0004750Y0007250D01*
X0005250Y0007750D02*
X0004750Y0007250D01*
X0005250D02*
X0004750Y0007750D01*
X0004250Y0007250D01*
X0004750D02*
X0004250Y0007750D01*
X0003750Y0007250D01*
X0004250D02*
X0003750Y0007750D01*
X0003250Y0007250D01*
X0003750D02*
X0003250Y0007750D01*
X0002750Y0007250D01*
X0003250D02*
X0002750Y0007750D01*
X0002250Y0007250D01*
X0002750D02*
X0002250Y0007750D01*
X0002750Y0008250D02*
X0002250Y0007750D01*
X0002750D02*
X0002250Y0008250D01*
X0003250D02*
X0002750Y0007750D01*
X0003250D02*
X0002750Y0008250D01*
X0003750D02*
X0003250Y0007750D01*
X0003750D02*
X0003250Y0008250D01*
X0004250D02*
X0003750Y0007750D01*
X0004250D02*
X0003750Y0008250D01*
X0004750D02*
X0004250Y0007750D01*
X0004750D02*
X0004250Y0008250D01*
X0005250D02*
X0004750Y0007750D01*
X0005250D02*
X0004750Y0008250D01*
X0005250Y0008750D02*
X0004750Y0008250D01*
X0005250D02*
X0004750Y0008750D01*
X0004250Y0008250D01*
X0004750D02*
X0004250Y0008750D01*
X0003750Y0008250D01*
X0004250D02*
X0003750Y0008750D01*
X0003250Y0008250D01*
X0003750D02*
X0003250Y0008750D01*
X0002750Y0008250D01*
X0003250D02*
X0002750Y0008750D01*
X0002250Y0008250D01*
X0002750D02*
X0002250Y0008750D01*
X0013750Y0002000D02*
Y0001750D01*
X0014000Y0002000D02*
X0013750D01*
X0014000Y0001500D02*
Y0002000D01*
X0014250Y0001500D02*
X0014000D01*
X0014250Y0001750D02*
Y0001500D01*
X0013750Y0001750D02*
X0014250D01*
X0013750Y0001000D02*
Y0000750D01*
X0014000Y0001000D02*
X0013750D01*
X0014000Y0000500D02*
Y0001000D01*
X0014250Y0000500D02*
X0014000D01*
X0014250Y0000750D02*
Y0000500D01*
X0013750Y0000750D02*
X0014250D01*
X0013750Y0000000D02*
Y-0000250D01*
X0014000Y0000000D02*
X0013750D01*
X0014000Y-0000500D02*
Y0000000D01*
X0014250Y-0000500D02*
X0014000D01*
X0014250Y-0000250D02*
Y-0000500D01*
X0013750Y-0000250D02*
X0014250D01*
X0029750Y0032500D02*
X0029500Y0032250D01*
X0030000D02*
X0029750Y0032500D01*
Y0032000D02*
X0030000Y0032250D01*
X0029500D02*
X0029750Y0032000D01*
X0030250Y0032500D02*
X0030000Y0032250D01*
X0030500D02*
X0030250Y0032500D01*
Y0032000D02*
X0030500Y0032250D01*
X0030000D02*
X0030250Y0032000D01*
X0030750Y0032500D02*
X0030500Y0032250D01*
X0031000D02*
X0030750Y0032500D01*
Y0032000D02*
X0031000Y0032250D01*
X0030500D02*
X0030750Y0032000D01*
X0029250Y0032500D02*
X0029000Y0032250D01*
X0029500D02*
X0029250Y0032500D01*
Y0032000D02*
X0029500Y0032250D01*
X0029000D02*
X0029250Y0032000D01*
X0028750Y0032500D02*
X0028500Y0032250D01*
X0029000D02*
X0028750Y0032500D01*
Y0032000D02*
X0029000Y0032250D01*
X0028500D02*
X0028750Y0032000D01*
X0030750Y0031500D02*
X0030500Y0031250D01*
X0031000D02*
X0030750Y0031500D01*
Y0031000D02*
X0031000Y0031250D01*
X0030500D02*
X0030750Y0031000D01*
X0030250Y0031500D02*
X0030000Y0031250D01*
X0030500D02*
X0030250Y0031500D01*
Y0031000D02*
X0030500Y0031250D01*
X0030000D02*
X0030250Y0031000D01*
X0029750Y0031500D02*
X0029500Y0031250D01*
X0030000D02*
X0029750Y0031500D01*
Y0031000D02*
X0030000Y0031250D01*
X0029500D02*
X0029750Y0031000D01*
X0029250Y0031500D02*
X0029000Y0031250D01*
X0029500D02*
X0029250Y0031500D01*
Y0031000D02*
X0029500Y0031250D01*
X0029000D02*
X0029250Y0031000D01*
X0028750Y0031500D02*
X0028500Y0031250D01*
X0029000D02*
X0028750Y0031500D01*
Y0031000D02*
X0029000Y0031250D01*
X0028500D02*
X0028750Y0031000D01*
X0030750Y0033500D02*
X0030500Y0033250D01*
X0031000D02*
X0030750Y0033500D01*
Y0033000D02*
X0031000Y0033250D01*
X0030500D02*
X0030750Y0033000D01*
X0030250Y0033500D02*
X0030000Y0033250D01*
X0030500D02*
X0030250Y0033500D01*
Y0033000D02*
X0030500Y0033250D01*
X0030000D02*
X0030250Y0033000D01*
X0029750Y0033500D02*
X0029500Y0033250D01*
X0030000D02*
X0029750Y0033500D01*
Y0033000D02*
X0030000Y0033250D01*
X0029500D02*
X0029750Y0033000D01*
X0029250Y0033500D02*
X0029000Y0033250D01*
X0029500D02*
X0029250Y0033500D01*
Y0033000D02*
X0029500Y0033250D01*
X0029000D02*
X0029250Y0033000D01*
X0028750Y0033500D02*
X0028500Y0033250D01*
X0029000D02*
X0028750Y0033500D01*
Y0033000D02*
X0029000Y0033250D01*
X0028500D02*
X0028750Y0033000D01*
X0030250Y0034500D02*
X0030000Y0034250D01*
X0030500D02*
X0030250Y0034500D01*
Y0034000D02*
X0030500Y0034250D01*
X0030000D02*
X0030250Y0034000D01*
X0029750Y0034500D02*
X0029500Y0034250D01*
X0030000D02*
X0029750Y0034500D01*
Y0034000D02*
X0030000Y0034250D01*
X0029500D02*
X0029750Y0034000D01*
X0029250Y0034500D02*
X0029000Y0034250D01*
X0029500D02*
X0029250Y0034500D01*
Y0034000D02*
X0029500Y0034250D01*
X0029000D02*
X0029250Y0034000D01*
X0030250Y0030500D02*
X0030000Y0030250D01*
X0030500D02*
X0030250Y0030500D01*
Y0030000D02*
X0030500Y0030250D01*
X0030000D02*
X0030250Y0030000D01*
X0029750Y0030500D02*
X0029500Y0030250D01*
X0030000D02*
X0029750Y0030500D01*
Y0030000D02*
X0030000Y0030250D01*
X0029500D02*
X0029750Y0030000D01*
X0029250Y0030500D02*
X0029000Y0030250D01*
X0029500D02*
X0029250Y0030500D01*
Y0030000D02*
X0029500Y0030250D01*
X0029000D02*
X0029250Y0030000D01*
X0029750Y0042500D02*
X0029500Y0042250D01*
X0030000D02*
X0029750Y0042500D01*
Y0042000D02*
X0030000Y0042250D01*
X0029500D02*
X0029750Y0042000D01*
X0030250Y0042500D02*
X0030000Y0042250D01*
X0030500D02*
X0030250Y0042500D01*
Y0042000D02*
X0030500Y0042250D01*
X0030000D02*
X0030250Y0042000D01*
X0030750Y0042500D02*
X0030500Y0042250D01*
X0031000D02*
X0030750Y0042500D01*
Y0042000D02*
X0031000Y0042250D01*
X0030500D02*
X0030750Y0042000D01*
X0029250Y0042500D02*
X0029000Y0042250D01*
X0029500D02*
X0029250Y0042500D01*
Y0042000D02*
X0029500Y0042250D01*
X0029000D02*
X0029250Y0042000D01*
X0028750Y0042500D02*
X0028500Y0042250D01*
X0029000D02*
X0028750Y0042500D01*
Y0042000D02*
X0029000Y0042250D01*
X0028500D02*
X0028750Y0042000D01*
X0030750Y0041500D02*
X0030500Y0041250D01*
X0031000D02*
X0030750Y0041500D01*
Y0041000D02*
X0031000Y0041250D01*
X0030500D02*
X0030750Y0041000D01*
X0030250Y0041500D02*
X0030000Y0041250D01*
X0030500D02*
X0030250Y0041500D01*
Y0041000D02*
X0030500Y0041250D01*
X0030000D02*
X0030250Y0041000D01*
X0029750Y0041500D02*
X0029500Y0041250D01*
X0030000D02*
X0029750Y0041500D01*
Y0041000D02*
X0030000Y0041250D01*
X0029500D02*
X0029750Y0041000D01*
X0029250Y0041500D02*
X0029000Y0041250D01*
X0029500D02*
X0029250Y0041500D01*
Y0041000D02*
X0029500Y0041250D01*
X0029000D02*
X0029250Y0041000D01*
X0028750Y0041500D02*
X0028500Y0041250D01*
X0029000D02*
X0028750Y0041500D01*
Y0041000D02*
X0029000Y0041250D01*
X0028500D02*
X0028750Y0041000D01*
X0030750Y0043500D02*
X0030500Y0043250D01*
X0031000D02*
X0030750Y0043500D01*
Y0043000D02*
X0031000Y0043250D01*
X0030500D02*
X0030750Y0043000D01*
X0030250Y0043500D02*
X0030000Y0043250D01*
X0030500D02*
X0030250Y0043500D01*
Y0043000D02*
X0030500Y0043250D01*
X0030000D02*
X0030250Y0043000D01*
X0029750Y0043500D02*
X0029500Y0043250D01*
X0030000D02*
X0029750Y0043500D01*
Y0043000D02*
X0030000Y0043250D01*
X0029500D02*
X0029750Y0043000D01*
X0029250Y0043500D02*
X0029000Y0043250D01*
X0029500D02*
X0029250Y0043500D01*
Y0043000D02*
X0029500Y0043250D01*
X0029000D02*
X0029250Y0043000D01*
X0028750Y0043500D02*
X0028500Y0043250D01*
X0029000D02*
X0028750Y0043500D01*
Y0043000D02*
X0029000Y0043250D01*
X0028500D02*
X0028750Y0043000D01*
X0030250Y0044500D02*
X0030000Y0044250D01*
X0030500D02*
X0030250Y0044500D01*
Y0044000D02*
X0030500Y0044250D01*
X0030000D02*
X0030250Y0044000D01*
X0029750Y0044500D02*
X0029500Y0044250D01*
X0030000D02*
X0029750Y0044500D01*
Y0044000D02*
X0030000Y0044250D01*
X0029500D02*
X0029750Y0044000D01*
X0029250Y0044500D02*
X0029000Y0044250D01*
X0029500D02*
X0029250Y0044500D01*
Y0044000D02*
X0029500Y0044250D01*
X0029000D02*
X0029250Y0044000D01*
X0030250Y0040500D02*
X0030000Y0040250D01*
X0030500D02*
X0030250Y0040500D01*
Y0040000D02*
X0030500Y0040250D01*
X0030000D02*
X0030250Y0040000D01*
X0029750Y0040500D02*
X0029500Y0040250D01*
X0030000D02*
X0029750Y0040500D01*
Y0040000D02*
X0030000Y0040250D01*
X0029500D02*
X0029750Y0040000D01*
X0029250Y0040500D02*
X0029000Y0040250D01*
X0029500D02*
X0029250Y0040500D01*
Y0040000D02*
X0029500Y0040250D01*
X0029000D02*
X0029250Y0040000D01*
X0020482Y0006006D02*
X0019982Y0005506D01*
X0020482D02*
X0019982Y0006006D01*
X0020482Y0005494D02*
X0019982Y0004994D01*
X0020482D02*
X0019982Y0005494D01*
X0020994Y0006006D02*
X0020494Y0005506D01*
X0020994D02*
X0020494Y0006006D01*
X0020994Y0005494D02*
X0020494Y0004994D01*
X0020994D02*
X0020494Y0005494D01*
X0021506Y0006006D02*
X0021006Y0005506D01*
X0021506D02*
X0021006Y0006006D01*
X0021506Y0005494D02*
X0021006Y0004994D01*
X0021506D02*
X0021006Y0005494D01*
X0022018Y0006006D02*
X0021518Y0005506D01*
X0022018D02*
X0021518Y0006006D01*
X0022018Y0005494D02*
X0021518Y0004994D01*
X0022018D02*
X0021518Y0005494D01*
X0010750Y0030250D02*
X0010500Y0030000D01*
X0011000D02*
X0010750Y0030250D01*
Y0029750D02*
X0011000Y0030000D01*
X0010500D02*
X0010750Y0029750D01*
X0009750Y0030250D02*
X0009500Y0030000D01*
X0010000D02*
X0009750Y0030250D01*
Y0029750D02*
X0010000Y0030000D01*
X0009500D02*
X0009750Y0029750D01*
X0008750Y0030250D02*
X0008500Y0030000D01*
X0009000D02*
X0008750Y0030250D01*
Y0029750D02*
X0009000Y0030000D01*
X0008500D02*
X0008750Y0029750D01*
X0010750Y0037000D02*
X0010500Y0036750D01*
X0011000D02*
X0010750Y0037000D01*
Y0036500D02*
X0011000Y0036750D01*
X0010500D02*
X0010750Y0036500D01*
X0009750Y0037000D02*
X0009500Y0036750D01*
X0010000D02*
X0009750Y0037000D01*
Y0036500D02*
X0010000Y0036750D01*
X0009500D02*
X0009750Y0036500D01*
X0008750Y0037000D02*
X0008500Y0036750D01*
X0009000D02*
X0008750Y0037000D01*
Y0036500D02*
X0009000Y0036750D01*
X0008500D02*
X0008750Y0036500D01*
X0010750Y0032500D02*
X0010500Y0032250D01*
X0011000D02*
X0010750Y0032500D01*
Y0032000D02*
X0011000Y0032250D01*
X0010500D02*
X0010750Y0032000D01*
X0009750Y0032500D02*
X0009500Y0032250D01*
X0010000D02*
X0009750Y0032500D01*
Y0032000D02*
X0010000Y0032250D01*
X0009500D02*
X0009750Y0032000D01*
X0008750Y0032500D02*
X0008500Y0032250D01*
X0009000D02*
X0008750Y0032500D01*
Y0032000D02*
X0009000Y0032250D01*
X0008500D02*
X0008750Y0032000D01*
X0010750Y0039250D02*
X0010500Y0039000D01*
X0011000D02*
X0010750Y0039250D01*
Y0038750D02*
X0011000Y0039000D01*
X0010500D02*
X0010750Y0038750D01*
X0009750Y0039250D02*
X0009500Y0039000D01*
X0010000D02*
X0009750Y0039250D01*
Y0038750D02*
X0010000Y0039000D01*
X0009500D02*
X0009750Y0038750D01*
X0008750Y0039250D02*
X0008500Y0039000D01*
X0009000D02*
X0008750Y0039250D01*
Y0038750D02*
X0009000Y0039000D01*
X0008500D02*
X0008750Y0038750D01*
X0010750Y0034750D02*
X0010500Y0034500D01*
X0011000D02*
X0010750Y0034750D01*
Y0034250D02*
X0011000Y0034500D01*
X0010500D02*
X0010750Y0034250D01*
X0009750Y0034750D02*
X0009500Y0034500D01*
X0010000D02*
X0009750Y0034750D01*
Y0034250D02*
X0010000Y0034500D01*
X0009500D02*
X0009750Y0034250D01*
X0008750Y0034750D02*
X0008500Y0034500D01*
X0009000D02*
X0008750Y0034750D01*
Y0034250D02*
X0009000Y0034500D01*
X0008500D02*
X0008750Y0034250D01*
X0010750Y0041500D02*
X0010500Y0041250D01*
X0011000D02*
X0010750Y0041500D01*
Y0041000D02*
X0011000Y0041250D01*
X0010500D02*
X0010750Y0041000D01*
X0009750Y0041500D02*
X0009500Y0041250D01*
X0010000D02*
X0009750Y0041500D01*
Y0041000D02*
X0010000Y0041250D01*
X0009500D02*
X0009750Y0041000D01*
X0008750Y0041500D02*
X0008500Y0041250D01*
X0009000D02*
X0008750Y0041500D01*
Y0041000D02*
X0009000Y0041250D01*
X0008500D02*
X0008750Y0041000D01*
X0023250Y0034250D02*
Y0034000D01*
X0023500Y0034250D02*
X0023250D01*
X0023500Y0033750D02*
Y0034250D01*
X0023750Y0033750D02*
X0023500D01*
X0023750Y0034000D02*
Y0033750D01*
X0023250Y0034000D02*
X0023750D01*
X0023250Y0035250D02*
Y0035000D01*
X0023500Y0035250D02*
X0023250D01*
X0023500Y0034750D02*
Y0035250D01*
X0023750Y0034750D02*
X0023500D01*
X0023750Y0035000D02*
Y0034750D01*
X0023250Y0035000D02*
X0023750D01*
X0023250Y0039250D02*
Y0039000D01*
X0023500Y0039250D02*
X0023250D01*
X0023500Y0038750D02*
Y0039250D01*
X0023750Y0038750D02*
X0023500D01*
X0023750Y0039000D02*
Y0038750D01*
X0023250Y0039000D02*
X0023750D01*
X0023250Y0041250D02*
Y0041000D01*
X0023500Y0041250D02*
X0023250D01*
X0023500Y0040750D02*
Y0041250D01*
X0023750Y0040750D02*
X0023500D01*
X0023750Y0041000D02*
Y0040750D01*
X0023250Y0041000D02*
X0023750D01*
X0014750Y0022500D02*
Y0022250D01*
X0015000Y0022500D02*
X0014750D01*
X0015000Y0022000D02*
Y0022500D01*
X0015250Y0022000D02*
X0015000D01*
X0015250Y0022250D02*
Y0022000D01*
X0014750Y0022250D02*
X0015250D01*
X0014750Y0023500D02*
Y0023250D01*
X0015000Y0023500D02*
X0014750D01*
X0015000Y0023000D02*
Y0023500D01*
X0015250Y0023000D02*
X0015000D01*
X0015250Y0023250D02*
Y0023000D01*
X0014750Y0023250D02*
X0015250D01*
X0014750Y0024500D02*
Y0024250D01*
X0015000Y0024500D02*
X0014750D01*
X0015000Y0024000D02*
Y0024500D01*
X0015250Y0024000D02*
X0015000D01*
X0015250Y0024250D02*
Y0024000D01*
X0014750Y0024250D02*
X0015250D01*
X0013750Y0024500D02*
Y0024250D01*
X0014000Y0024500D02*
X0013750D01*
X0014000Y0024000D02*
Y0024500D01*
X0014250Y0024000D02*
X0014000D01*
X0014250Y0024250D02*
Y0024000D01*
X0013750Y0024250D02*
X0014250D01*
X0013750Y0023500D02*
Y0023250D01*
X0014000Y0023500D02*
X0013750D01*
X0014000Y0023000D02*
Y0023500D01*
X0014250Y0023000D02*
X0014000D01*
X0014250Y0023250D02*
Y0023000D01*
X0013750Y0023250D02*
X0014250D01*
X0013750Y0022500D02*
Y0022250D01*
X0014000Y0022500D02*
X0013750D01*
X0014000Y0022000D02*
Y0022500D01*
X0014250Y0022000D02*
X0014000D01*
X0014250Y0022250D02*
Y0022000D01*
X0013750Y0022250D02*
X0014250D01*
X0008750Y0018000D02*
X0008500Y0017750D01*
X0009000D02*
X0008750Y0018000D01*
Y0017500D02*
X0009000Y0017750D01*
X0008500D02*
X0008750Y0017500D01*
Y0018787D02*
X0008500Y0018537D01*
X0009000D02*
X0008750Y0018787D01*
Y0018287D02*
X0009000Y0018537D01*
X0008500D02*
X0008750Y0018287D01*
Y0019575D02*
X0008500Y0019325D01*
X0009000D02*
X0008750Y0019575D01*
Y0019075D02*
X0009000Y0019325D01*
X0008500D02*
X0008750Y0019075D01*
X0009500Y0022000D02*
X0009250Y0021750D01*
X0009750D02*
X0009500Y0022000D01*
Y0021500D02*
X0009750Y0021750D01*
X0009250D02*
X0009500Y0021500D01*
Y0023000D02*
X0009250Y0022750D01*
X0009750D02*
X0009500Y0023000D01*
Y0022500D02*
X0009750Y0022750D01*
X0009250D02*
X0009500Y0022500D01*
Y0024000D02*
X0009250Y0023750D01*
X0009750D02*
X0009500Y0024000D01*
Y0023500D02*
X0009750Y0023750D01*
X0009250D02*
X0009500Y0023500D01*
Y0025000D02*
X0009250Y0024750D01*
X0009750D02*
X0009500Y0025000D01*
Y0024500D02*
X0009750Y0024750D01*
X0009250D02*
X0009500Y0024500D01*
X0008500Y0025500D02*
X0008250Y0025250D01*
X0008750D02*
X0008500Y0025500D01*
Y0025000D02*
X0008750Y0025250D01*
X0008250D02*
X0008500Y0025000D01*
Y0024500D02*
X0008250Y0024250D01*
X0008750D02*
X0008500Y0024500D01*
Y0024000D02*
X0008750Y0024250D01*
X0008250D02*
X0008500Y0024000D01*
Y0023500D02*
X0008250Y0023250D01*
X0008750D02*
X0008500Y0023500D01*
Y0023000D02*
X0008750Y0023250D01*
X0008250D02*
X0008500Y0023000D01*
Y0022500D02*
X0008250Y0022250D01*
X0008750D02*
X0008500Y0022500D01*
Y0022000D02*
X0008750Y0022250D01*
X0008250D02*
X0008500Y0022000D01*
X0008541Y0021299D02*
Y0021099D01*
X0008791Y0021049D02*
X0008541Y0021299D01*
X0009041D02*
X0008791Y0021049D01*
X0009041Y0021099D02*
Y0021299D01*
X0008791Y0021349D02*
X0009041Y0021099D01*
X0008541D02*
X0008791Y0021349D01*
X0023250Y-0000750D02*
X0023000Y-0001000D01*
X0023500D02*
X0023250Y-0000750D01*
Y-0001250D02*
X0023500Y-0001000D01*
X0023000D02*
X0023250Y-0001250D01*
X0022463Y-0000750D02*
X0022213Y-0001000D01*
X0022713D02*
X0022463Y-0000750D01*
Y-0001250D02*
X0022713Y-0001000D01*
X0022213D02*
X0022463Y-0001250D01*
X0021675Y-0000750D02*
X0021425Y-0001000D01*
X0021925D02*
X0021675Y-0000750D01*
Y-0001250D02*
X0021925Y-0001000D01*
X0021425D02*
X0021675Y-0001250D01*
X0020750Y0048500D02*
X0020500Y0048250D01*
X0021000D02*
X0020750Y0048500D01*
Y0048000D02*
X0021000Y0048250D01*
X0020500D02*
X0020750Y0048000D01*
X0021537Y0048500D02*
X0021287Y0048250D01*
X0021787D02*
X0021537Y0048500D01*
Y0048000D02*
X0021787Y0048250D01*
X0021287D02*
X0021537Y0048000D01*
X0022325Y0048500D02*
X0022075Y0048250D01*
X0022575D02*
X0022325Y0048500D01*
Y0048000D02*
X0022575Y0048250D01*
X0022075D02*
X0022325Y0048000D01*
X0026075Y0048250D02*
Y0047750D01*
X0026575Y0048250D02*
X0026075D01*
X0026575Y0047750D02*
Y0048250D01*
X0026075Y0047750D02*
X0026575D01*
Y0048250D02*
X0026075Y0047750D01*
X0026575D02*
X0026075Y0048250D01*
X0025287D02*
Y0047750D01*
X0025787Y0048250D02*
X0025287D01*
X0025787Y0047750D02*
Y0048250D01*
X0025287Y0047750D02*
X0025787D01*
Y0048250D02*
X0025287Y0047750D01*
X0025787D02*
X0025287Y0048250D01*
X0024500D02*
Y0047750D01*
X0025000Y0048250D02*
X0024500D01*
X0025000Y0047750D02*
Y0048250D01*
X0024500Y0047750D02*
X0025000D01*
Y0048250D02*
X0024500Y0047750D01*
X0025000D02*
X0024500Y0048250D01*
X0028500Y-0000750D02*
X0028250Y-0001000D01*
X0028750D02*
X0028500Y-0000750D01*
Y-0001250D02*
X0028750Y-0001000D01*
X0028250D02*
X0028500Y-0001250D01*
X0027713Y-0000750D02*
X0027463Y-0001000D01*
X0027963D02*
X0027713Y-0000750D01*
Y-0001250D02*
X0027963Y-0001000D01*
X0027463D02*
X0027713Y-0001250D01*
X0026925Y-0000750D02*
X0026675Y-0001000D01*
X0027175D02*
X0026925Y-0000750D01*
Y-0001250D02*
X0027175Y-0001000D01*
X0026675D02*
X0026925Y-0001250D01*
X0026138Y-0000750D02*
X0025888Y-0001000D01*
X0026388D02*
X0026138Y-0000750D01*
Y-0001250D02*
X0026388Y-0001000D01*
X0025888D02*
X0026138Y-0001250D01*
X0025350Y-0000750D02*
X0025100Y-0001000D01*
X0025600D02*
X0025350Y-0000750D01*
Y-0001250D02*
X0025600Y-0001000D01*
X0025100D02*
X0025350Y-0001250D01*
X0031734Y0007984D02*
X0031234D01*
X0031484Y0008234D02*
Y0007734D01*
X0029766Y0007984D02*
X0029266D01*
X0029516Y0008234D02*
Y0007734D01*
X0028781Y0007000D02*
X0028281D01*
X0028531Y0007250D02*
Y0006750D01*
X0029766Y0006016D02*
X0029266D01*
X0029516Y0006266D02*
Y0005766D01*
X0031734Y0006016D02*
X0031234D01*
X0031484Y0006266D02*
Y0005766D01*
X0030750Y0007000D02*
X0030250D01*
X0030500Y0007250D02*
Y0006750D01*
X0033071Y0000150D02*
X0032821Y-0000100D01*
X0033321D02*
X0033071Y0000150D01*
X0032821Y-0000100D02*
X0033321D01*
X0033071Y0047394D02*
X0032821Y0047144D01*
X0033321D02*
X0033071Y0047394D01*
X0032821Y0047144D02*
X0033321D01*
X0000000Y0047394D02*
X-0000250Y0047144D01*
X0000250D02*
X0000000Y0047394D01*
X-0000250Y0047144D02*
X0000250D01*
X0000000Y0000150D02*
X-0000250Y-0000100D01*
X0000250D02*
X0000000Y0000150D01*
X-0000250Y-0000100D02*
X0000250D01*
M02*
