%
T1C0.0079F200S100
X-000850Y014000
X-000800Y013250
X-000650Y010600
X-000650Y012800
X-000450Y015200
X-000450Y018150
X-000450Y027000
X-000150Y028050
X-000050Y020800
X-000030Y008080
X-000030Y009030
X-000030Y019650
X-000030Y024650
X-000030Y025850
X000130Y042580
X000350Y025750
X000500Y027750
X000950Y011750
X001050Y021600
X001050Y022750
X001250Y013750
X001470Y019650
X001500Y020200
X001900Y042250
X001950Y026650
X001970Y024850
X001970Y034970
X002000Y015000
X002030Y020680
X002350Y032900
X002500Y-001000
X002500Y-000500
X002500Y000000
X002500Y000500
X002500Y001000
X002500Y001500
X002500Y002000
X002500Y002500
X002500Y005000
X002500Y005500
X002500Y006000
X002500Y006500
X002500Y007000
X002500Y007500
X002500Y008000
X002500Y008500
X002600Y015250
X002600Y018500
X002600Y019250
X002650Y034700
X002750Y013000
X002750Y013750
X002900Y024570
X002750Y025750
X002750Y027250
X002900Y032550
X003000Y-001000
X003000Y-000500
X003000Y000000
X003000Y000500
X003000Y001000
X003000Y001500
X003000Y002000
X003000Y002500
X003000Y005000
X003000Y005500
X003000Y006000
X003000Y006500
X003000Y007000
X003000Y007500
X003000Y008000
X003000Y008500
X003150Y016200
X003000Y043150
X003250Y022476
X003250Y031050
X003500Y-001000
X003500Y-000500
X003500Y000000
X003500Y000500
X003500Y001000
X003500Y001500
X003500Y002000
X003500Y002500
X003500Y005000
X003500Y005500
X003500Y006000
X003500Y006500
X003500Y007000
X003500Y007500
X003500Y008000
X003500Y008500
X003500Y011000
X003700Y030100
X004000Y-001000
X004000Y-000500
X004000Y000000
X004000Y000500
X004000Y001000
X004000Y001500
X004000Y002000
X004000Y002500
X004000Y005000
X004000Y005500
X004000Y006000
X004000Y006500
X004000Y007000
X004000Y007500
X004000Y008000
X004000Y008500
X004000Y016650
X004250Y013750
X004250Y014500
X004250Y019250
X004250Y020000
X004250Y025250
X004250Y026250
X004450Y027250
X004470Y037120
X004470Y039730
X004500Y-001000
X004500Y-000500
X004500Y000000
X004500Y000500
X004500Y001000
X004500Y001500
X004500Y002000
X004500Y002500
X004500Y005000
X004500Y005500
X004500Y006000
X004500Y006500
X004500Y007000
X004500Y007500
X004500Y008000
X004500Y008500
X004500Y015500
X004600Y016982
X004600Y022732
X004900Y029500
X005000Y-001000
X005000Y-000500
X005000Y000000
X005000Y000500
X005000Y001000
X005000Y001500
X005000Y002000
X005000Y002500
X005000Y005000
X005000Y005500
X005000Y006000
X005000Y006500
X005000Y007000
X005000Y007500
X005000Y008000
X005000Y008500
X005000Y031750
X005000Y034000
X005000Y036500
X005000Y039000
X005100Y041500
X005750Y019250
X005750Y022750
X005750Y023500
X005800Y011232
X005850Y016000
X005900Y017430
X006000Y021350
X006600Y029500
X006600Y041500
X006650Y034000
X006700Y031750
X006700Y039000
X006750Y014750
X006800Y014200
X006750Y036500
X006750Y046500
X006950Y026850
X007100Y005700
X007100Y009300
X007150Y010000
X007250Y011500
X007300Y015150
X007300Y020800
X008000Y008500
X008000Y042500
X008250Y003750
X008350Y011950
X008430Y043630
X008500Y012750
X008600Y045350
X008900Y013950
X009200Y000750
X009350Y017500
X009350Y042950
X009480Y047730
X009500Y006400
X009530Y013170
X009750Y000650
X009750Y015500
X009800Y041950
X009800Y047350
X009850Y016500
X010250Y006500
X010350Y047450
X010470Y014000
X010500Y001250
X010650Y005800
X010750Y017500
X010750Y040550
X010750Y044450
X010750Y046300
X010650Y048000
X010900Y018570
X011000Y047450
X011050Y013440
X011100Y028030
X011200Y033200
X011250Y001250
X011250Y002900
X011250Y012400
X011400Y047450
X011500Y007500
X011500Y021800
X011500Y044350
X011600Y013050
X011750Y015850
X011600Y037350
X011800Y047750
X011900Y030900
X012100Y035150
X012250Y020550
X012250Y044350
X012300Y015950
X012350Y000600
X012350Y039600
X012400Y041600
X012500Y001100
X012550Y015750
X012800Y014500
X012900Y041950
X012900Y044400
X012950Y008650
X013000Y014000
X013050Y018300
X013000Y028000
X013000Y030250
X013000Y032250
X013000Y034500
X013000Y036750
X013000Y039000
X013000Y041000
X013050Y042950
X013100Y004950
X013500Y007250
X013550Y018350
X013650Y019280
X013750Y044350
X013800Y017000
X013856Y016606
X014150Y015100
X014197Y019350
X014200Y015950
X014300Y018050
X014350Y044450
X014450Y015350
X014500Y006250
X014500Y006750
X014500Y007250
X014500Y007750
X014500Y008250
X014500Y008750
X014500Y043800
X014700Y018050
X014710Y012600
X014900Y015550
X015000Y006250
X015000Y006750
X015000Y007250
X015000Y007750
X015000Y008250
X014900Y026100
X015050Y018050
X015150Y008950
X015250Y044350
X015350Y020220
X015350Y028300
X015350Y028900
X015500Y006250
X015500Y006750
X015500Y007250
X015500Y007750
X015500Y008250
X015600Y012120
X015650Y010700
X015970Y014880
X015650Y044450
X016000Y012050
X016050Y013700
X016000Y043000
X016100Y015400
X016364Y013664
X016400Y009800
X016500Y003350
X016500Y007000
X016750Y006750
X016758Y013692
X016850Y019500
X016990Y027100
X016990Y029350
X016990Y031350
X016990Y033600
X016990Y035850
X016990Y038100
X016990Y040350
X016990Y042350
X017000Y017850
X017006Y017394
X017000Y048000
X017050Y010000
X017050Y019850
X017150Y020950
X017150Y026100
X017500Y014250
X017550Y007400
X017600Y008000
X017600Y008500
X017700Y031800
X017720Y029780
X017750Y011300
X017750Y018300
X017750Y019750
X017750Y027450
X017950Y002500
X017950Y009550
X018300Y018000
X018350Y024200
X018650Y029750
X018750Y021350
X018750Y026550
X018900Y009350
X018950Y013100
X019300Y017250
X019300Y020220
X019500Y028500
X019550Y015250
X019600Y012550
X019650Y011300
X019600Y025400
X019750Y023100
X019820Y018650
X019850Y020000
X019900Y015750
X020100Y015250
X020150Y031750
X020200Y009100
X020200Y010700
X020232Y005244
X020232Y005756
X020200Y040150
X020250Y018450
X020280Y015720
X020400Y026700
X020744Y005244
X020744Y005756
X020850Y010350
X020950Y033400
X021100Y013150
X021100Y015050
X021250Y021150
X021256Y005244
X021256Y005756
X021350Y015300
X021400Y030500
X021500Y023600
X021400Y040600
X021600Y027150
X021650Y012300
X021700Y015350
X021768Y005244
X021768Y005756
X021800Y011350
X021850Y034000
X021900Y007550
X022000Y017100
X022000Y018450
X022050Y025350
X022150Y017600
X022200Y044600
X022250Y012800
X022400Y015900
X022400Y021000
X022450Y008000
X022500Y019500
X022500Y024200
X022700Y042200
X022950Y033400
X023000Y012800
X023000Y018100
X023000Y023250
X023200Y011750
X023500Y008400
X023200Y016750
X023700Y028900
X023750Y018450
X023800Y011350
X023850Y009950
X024050Y026250
X024150Y021000
X024150Y043750
X024200Y038400
X024250Y025450
X024250Y028900
X024300Y027250
X024350Y012350
X024350Y018970
X024500Y001750
X024700Y016250
X024750Y012150
X024800Y032950
X024850Y032500
X024850Y034600
X024900Y026650
X024900Y032000
X025050Y046510
X025100Y020000
X025250Y008200
X025250Y025850
X025250Y041500
X025350Y045000
X025450Y032150
X025500Y018450
X025500Y022000
X025600Y026750
X025600Y042100
X025750Y006050
X025750Y024150
X025750Y032000
X025900Y021000
X026000Y012800
X026000Y014250
X026000Y015600
X026000Y022000
X026000Y038000
X026050Y016050
X026050Y019450
X026150Y008780
X026250Y001700
X026500Y022000
X026500Y027250
X026650Y006500
X026700Y007250
X026650Y039000
X027000Y001750
X027053Y029650
X027053Y034850
X027053Y039650
X027250Y014850
X027250Y021950
X027400Y044847
X027450Y009400
X027450Y014550
X027500Y027000
X027550Y026250
X027550Y046500
X027650Y004530
X027650Y015750
X027650Y021000
X027700Y031000
X027700Y041000
X027700Y041500
X027700Y042000
X027750Y005200
X027800Y014250
X027800Y019350
X027950Y024950
X028050Y009350
X028250Y015900
X028250Y020550
X028850Y014250
X029602Y021002
X029602Y022998
X030000Y016500
X030500Y016500
X030500Y017500
X030000Y017500
X030000Y018500
X030500Y018500
X030500Y019500
X030000Y019500
X031000Y013000
X031000Y013500
X031000Y014000
X031000Y014500
X031000Y015000
X031000Y016500
X031000Y017500
X031000Y018500
X031000Y019500
X031400Y028500
X031500Y013000
X031500Y013500
X031500Y014000
X031500Y014500
X031500Y015000
X031500Y016500
X031500Y017500
X031500Y018500
X031500Y019500
X031800Y027250
X032000Y013000
X032000Y013500
X032000Y014000
X032000Y014500
X032000Y015000
X032000Y016500
X032000Y017500
X032000Y018500
X032000Y019500
X032350Y038700
X032447Y029650
X032447Y034850
X032447Y039650
X032447Y044850
X032500Y016500
X032500Y017500
X032500Y018500
X032500Y019500
X033000Y013000
X033000Y013500
X033000Y014000
X033000Y014500
X033000Y015000
X033000Y016500
X033000Y017500
X033000Y018500
X033000Y019500
X033050Y039450
X033050Y041000
X033050Y041900
X033050Y043000
X033050Y043500
X033100Y031000
X033100Y032000
X033100Y032500
X033100Y033350
X033350Y042250
X033500Y035450
X033750Y027250
X033750Y038200
T2C0.0315F200S100
X008500Y022250
X008500Y023250
X008500Y024250
X008500Y025250
X008750Y017750
X008750Y018537
X008750Y019325
X008750Y030000
X008750Y032250
X008750Y034500
X008750Y036750
X008750Y039000
X008750Y041250
X009500Y021750
X009500Y022750
X009500Y023750
X009500Y024750
X009750Y030000
X009750Y032250
X009750Y034500
X009750Y036750
X009750Y039000
X009750Y041250
X010750Y030000
X010750Y032250
X010750Y034500
X010750Y036750
X010750Y039000
X010750Y041250
X020750Y048250
X021537Y048250
X021675Y-001000
X022325Y048250
X022463Y-001000
X023250Y-001000
X025350Y-001000
X026138Y-001000
X026925Y-001000
X027713Y-001000
X028500Y-001000
X028750Y031250
X028750Y032250
X028750Y033250
X029250Y030250
X029250Y031250
X029250Y032250
X029250Y033250
X029250Y034250
X029250Y040250
X029250Y041250
X028750Y041250
X028750Y042250
X029250Y042250
X029250Y043250
X028750Y043250
X029250Y044250
X029750Y030250
X030250Y030250
X030250Y031250
X029750Y031250
X029750Y032250
X030250Y032250
X030250Y033250
X029750Y033250
X029750Y034250
X030250Y034250
X030250Y040250
X029750Y040250
X029750Y041250
X030250Y041250
X030250Y042250
X029750Y042250
X029750Y043250
X030250Y043250
X030250Y044250
X029750Y044250
X030750Y031250
X030750Y032250
X030750Y033250
X030750Y041250
X030750Y042250
X030750Y043250
T4C0.0433F200S100
X014000Y-000250
X014000Y000750
X014000Y001750
X014000Y022250
X014000Y023250
X014000Y024250
X015000Y022250
X015000Y023250
X015000Y024250
X023500Y034000
X023500Y035000
X023500Y039000
X023500Y041000
T3C0.0354F200S100
X024750Y048000
X025537Y048000
X026325Y048000
T5C0.0472F200S100
X028531Y007000
X029516Y006016
X029516Y007984
X030500Y007000
X031484Y006016
X031484Y007984
M30
